<svg height="480pt" viewBox="0 0 480 480" width="480pt" xmlns="http://www.w3.org/2000/svg" xmlns:xlink="http://www.w3.org/1999/xlink"><linearGradient id="lg1"><stop offset="0" stop-color="#006df0"/><stop offset="1" stop-color="#00e7f0"/></linearGradient><linearGradient id="linear0" gradientUnits="userSpaceOnUse" x1="240" x2="240" xlink:href="#lg1" y1="525.544" y2="-22.752"/><linearGradient id="linear1" gradientUnits="userSpaceOnUse" x1="440" x2="440" xlink:href="#lg1" y1="525.544" y2="-22.752"/><path d="m408 64h64c4.417969 0 8-3.582031 8-8v-48c0-4.417969-3.582031-8-8-8h-64c-4.417969 0-8 3.582031-8 8v16h-48c-4.417969 0-8 3.582031-8 8v177.136719c-11.195312 2.925781-19.9375 11.667969-22.863281 22.863281h-17.136719v-168c0-36.488281-65.34375-64-152-64s-152 27.511719-152 64v352c0 36.488281 65.34375 64 152 64s152-27.511719 152-64v-168h17.136719c2.925781 11.195312 11.667969 19.9375 22.863281 22.863281v177.136719c0 4.417969 3.582031 8 8 8h48v16c0 4.417969 3.582031 8 8 8h64c4.417969 0 8-3.582031 8-8v-48c0-4.417969-3.582031-8-8-8h-64c-4.417969 0-8 3.582031-8 8v16h-40v-169.136719c11.195312-2.925781 19.9375-11.667969 22.863281-22.863281h17.136719v16c0 4.417969 3.582031 8 8 8h64c4.417969 0 8-3.582031 8-8v-48c0-4.417969-3.582031-8-8-8h-64c-4.417969 0-8 3.582031-8 8v16h-17.136719c-2.925781-11.195312-11.667969-19.9375-22.863281-22.863281v-169.136719h40v16c0 4.417969 3.582031 8 8 8zm8-48h48v32h-48zm-264 0c80.152344 0 136 25.296875 136 48s-55.847656 48-136 48-136-25.296875-136-48 55.847656-48 136-48zm-136 77.390625c24.457031 20.882813 74.863281 34.609375 136 34.609375s111.542969-13.726562 136-34.609375v90.609375c0 22.703125-55.847656 48-136 48s-136-25.296875-136-48zm136 370.609375c-80.152344 0-136-25.296875-136-48v-90.609375c24.457031 20.882813 74.863281 34.609375 136 34.609375s111.542969-13.726562 136-34.609375v90.609375c0 22.703125-55.847656 48-136 48zm0-120c-80.152344 0-136-25.296875-136-48v-82.609375c24.457031 20.882813 74.863281 34.609375 136 34.609375s111.542969-13.726562 136-34.609375v82.609375c0 22.703125-55.847656 48-136 48zm264 88h48v32h-48zm0-208h48v32h-48zm-48 16c0 8.835938-7.164062 16-16 16s-16-7.164062-16-16 7.164062-16 16-16 16 7.164062 16 16zm0 0" fill="url(#linear0)"/><g fill="url(#linear1)"><path d="m432 24h16v16h-16zm0 0"/><path d="m432 232h16v16h-16zm0 0"/><path d="m432 440h16v16h-16zm0 0"/></g></svg>