<?xml version="1.0" standalone="no"?>
<!DOCTYPE svg PUBLIC "-//W3C//DTD SVG 20010904//EN"
 "http://www.w3.org/TR/2001/REC-SVG-20010904/DTD/svg10.dtd">
<svg version="1.0" xmlns="http://www.w3.org/2000/svg"
 width="900.000000pt" height="900.000000pt" viewBox="0 0 900.000000 900.000000"
 preserveAspectRatio="xMidYMid meet">

<g transform="translate(0.000000,900.000000) scale(0.100000,-0.100000)"
fill="#337ab7" stroke="none">
<path d="M3347 7980 c-46 -14 -93 -56 -116 -103 -21 -43 -21 -53 -21 -730 l0
-687 190 0 190 0 0 575 0 575 2335 0 2335 0 0 -2230 0 -2230 -802 -2 c-792 -3
-804 -3 -843 -24 -22 -11 -53 -40 -70 -63 l-30 -43 -5 -811 -5 -812 -1457 -3
-1458 -2 0 352 0 353 -190 0 -190 0 0 -465 c0 -430 2 -468 19 -505 22 -50 69
-91 119 -105 53 -14 3352 -14 3407 1 35 9 162 133 951 922 839 839 912 916
923 957 9 34 11 651 9 2500 l-3 2455 -24 38 c-13 21 -42 50 -64 65 l-41 27
-2565 2 c-1411 1 -2579 -2 -2594 -7z"/>
<path d="M5585 6711 c-65 -29 -115 -104 -115 -171 0 -67 50 -142 115 -171 38
-18 92 -19 1048 -19 1092 0 1046 -2 1105 53 94 88 66 254 -52 308 -39 18 -86
19 -1051 19 -959 0 -1012 -1 -1050 -19z"/>
<path d="M3155 6159 c-498 -68 -927 -319 -1251 -734 -268 -344 -399 -767 -380
-1226 10 -257 60 -477 158 -696 l51 -115 -611 -611 c-627 -630 -666 -673 -713
-796 -111 -294 -21 -625 222 -816 131 -103 263 -148 434 -149 131 0 204 17
325 75 85 41 85 42 756 711 l671 670 124 -31 c179 -44 271 -54 479 -54 470 1
850 136 1197 427 458 383 693 879 693 1466 0 519 -173 944 -539 1324 -279 289
-608 465 -1016 543 -96 18 -495 26 -600 12z m565 -477 c130 -31 204 -57 335
-122 148 -73 262 -158 386 -288 187 -194 306 -419 365 -693 27 -120 27 -428 0
-548 -60 -278 -179 -501 -373 -702 -203 -209 -442 -342 -734 -405 -120 -27
-428 -27 -548 0 -195 42 -391 127 -544 236 -110 79 -276 250 -350 361 -100
151 -173 325 -213 510 -27 120 -27 428 0 548 59 274 178 499 364 693 149 155
281 247 475 330 92 40 238 81 342 98 100 15 397 4 495 -18z"/>
<path d="M5585 5916 c-58 -26 -115 -110 -115 -168 0 -82 63 -167 137 -187 30
-8 332 -11 1051 -9 l1010 3 43 30 c102 72 112 212 22 297 -15 15 -41 32 -56
37 -19 8 -350 11 -1045 11 -827 -1 -1023 -3 -1047 -14z"/>
<path d="M6377 5120 c-72 -22 -137 -108 -137 -181 1 -76 74 -172 142 -184 18
-3 317 -5 665 -3 l631 3 39 31 c54 44 76 86 77 148 1 67 -28 122 -83 161 l-43
30 -631 2 c-348 1 -645 -2 -660 -7z"/>
</g>
</svg>
