<svg height="512" viewBox="0 0 64 64" width="512" xmlns="http://www.w3.org/2000/svg" xmlns:xlink="http://www.w3.org/1999/xlink"><linearGradient id="New_Gradient_Swatch_3" gradientUnits="userSpaceOnUse" x1="31.289" x2="32.979" y1="64.065" y2="-2.664"><stop offset="0" stop-color="#006df0"/><stop offset="1" stop-color="#00e7f0"/></linearGradient><linearGradient id="New_Gradient_Swatch_3-3" x1="31.188" x2="32.878" xlink:href="#New_Gradient_Swatch_3" y1="64.063" y2="-2.667"/><linearGradient id="New_Gradient_Swatch_3-4" x1="6.071" x2="7.761" xlink:href="#New_Gradient_Swatch_3" y1="63.427" y2="-3.303"/><linearGradient id="New_Gradient_Swatch_3-5" x1="11.068" x2="12.758" xlink:href="#New_Gradient_Swatch_3" y1="63.553" y2="-3.176"/><linearGradient id="New_Gradient_Swatch_3-6" x1="16.065" x2="17.754" xlink:href="#New_Gradient_Swatch_3" y1="63.68" y2="-3.05"/><path d="m32 46a10 10 0 1 1 10-10 10.011 10.011 0 0 1 -10 10zm0-18a8 8 0 1 0 8 8 8.009 8.009 0 0 0 -8-8z" fill="url(#New_Gradient_Swatch_3)"/><path d="m32 40a4 4 0 1 1 4-4 4 4 0 0 1 -4 4zm0-6a2 2 0 1 0 2 2 2 2 0 0 0 -2-2z" fill="url(#New_Gradient_Swatch_3)"/><path d="m59 2h-54a3 3 0 0 0 -3 3v54a3 3 0 0 0 3 3h54a3 3 0 0 0 3-3v-54a3 3 0 0 0 -3-3zm-54 2h54a1 1 0 0 1 1 1v5h-56v-5a1 1 0 0 1 1-1zm54 56h-54a1 1 0 0 1 -1-1v-47h56v47a1 1 0 0 1 -1 1z" fill="url(#New_Gradient_Swatch_3-3)"/><path d="m7 8h1a1 1 0 0 0 0-2h-1a1 1 0 0 0 0 2z" fill="url(#New_Gradient_Swatch_3-4)"/><path d="m12 8h1a1 1 0 0 0 0-2h-1a1 1 0 0 0 0 2z" fill="url(#New_Gradient_Swatch_3-5)"/><path d="m17 8h1a1 1 0 0 0 0-2h-1a1 1 0 0 0 0 2z" fill="url(#New_Gradient_Swatch_3-6)"/><path d="m32 23c-11.385 0-21.351 11.857-21.77 12.361a1 1 0 0 0 0 1.278c.419.504 10.385 12.361 21.77 12.361s21.351-11.857 21.77-12.361a1 1 0 0 0 0-1.278c-.419-.504-10.385-12.361-21.77-12.361zm0 24c-9 0-17.446-8.564-19.667-11 2.218-2.438 10.654-11 19.667-11s17.446 8.564 19.667 11c-2.218 2.438-10.654 11-19.667 11z" fill="url(#New_Gradient_Swatch_3)"/></svg>