<svg height="480pt" viewBox="0 0 480 480" width="480pt" xmlns="http://www.w3.org/2000/svg" xmlns:xlink="http://www.w3.org/1999/xlink"><linearGradient id="lg1"><stop offset="0" stop-color="#006df0"/><stop offset="1" stop-color="#00e7f0"/></linearGradient><linearGradient id="linear0" gradientUnits="userSpaceOnUse" x1="352" x2="352" xlink:href="#lg1" y1="500.44" y2="-60.88"/><linearGradient id="linear2" gradientUnits="userSpaceOnUse" x1="384" x2="384" xlink:href="#lg1" y1="500.44" y2="-60.88"/><linearGradient id="linear3" gradientUnits="userSpaceOnUse" x1="240" x2="240" xlink:href="#lg1" y1="500.44" y2="-60.88"/><linearGradient id="linear4" gradientUnits="userSpaceOnUse" x1="192" x2="192" xlink:href="#lg1" y1="500.44" y2="-60.88"/><linearGradient id="linear5" gradientUnits="userSpaceOnUse" x1="312" x2="312" xlink:href="#lg1" y1="500.44" y2="-60.88"/><linearGradient id="linear8" gradientUnits="userSpaceOnUse" x1="208" x2="208" xlink:href="#lg1" y1="500.44" y2="-60.88"/><path d="m425.550781 184.398438-33.949219-33.949219-15.601562 15.597656v-22.046875h-48v22.046875l-15.601562-15.597656-33.949219 33.949219 15.597656 15.601562h-22.046875v48h22.046875l-15.597656 15.601562 33.949219 33.949219 15.601562-15.597656v22.046875h48v-22.046875l15.601562 15.597656 33.949219-33.949219-15.597656-15.601562h22.046875v-48h-22.046875zm-9.550781 31.601562v16h-24.753906l-1.710938 5.703125c-.34375 1.109375-.792968 2.179687-1.34375 3.199219l-2.726562 5.210937 17.464844 17.460938-11.328126 11.355469-17.464843-17.464844-5.207031 2.726562c-1.023438.550782-2.09375 1-3.203126 1.34375l-5.726562 1.710938v24.753906h-16v-24.753906l-5.703125-1.710938c-1.109375-.34375-2.179687-.792968-3.199219-1.34375l-5.210937-2.726562-17.488281 17.464844-11.328126-11.328126 17.464844-17.464843-2.726562-5.207031c-.550782-1.023438-1-2.09375-1.34375-3.203126l-1.710938-5.726562h-24.753906v-16h24.753906l1.710938-5.703125c.34375-1.109375.792968-2.179687 1.34375-3.199219l2.726562-5.210937-17.464844-17.488281 11.328126-11.328126 17.464843 17.464844 5.207031-2.726562c1.023438-.550782 2.09375-1 3.203126-1.34375l5.726562-1.710938v-24.753906h16v24.753906l5.703125 1.710938c1.109375.34375 2.179687.792968 3.199219 1.34375l5.210937 2.726562 17.460938-17.464844 11.328125 11.328126-17.460938 17.464843 2.726563 5.207031c.550781 1.023438 1 2.09375 1.34375 3.203126l1.710937 5.703124zm0 0" fill="url(#linear0)"/><path d="m352 200c-13.253906 0-24 10.746094-24 24s10.746094 24 24 24 24-10.746094 24-24-10.746094-24-24-24zm0 32c-4.417969 0-8-3.582031-8-8s3.582031-8 8-8 8 3.582031 8 8-3.582031 8-8 8zm0 0" fill="url(#linear0)"/><path d="m411.464844 359.847656 12.136718-12.136718-11.3125-11.3125-12.136718 12.136718c-2.542969-1.511718-5.289063-2.65625-8.152344-3.398437v-17.136719h-16v17.136719c-2.863281.742187-5.609375 1.886719-8.152344 3.398437l-12.136718-12.136718-11.3125 11.3125 12.136718 12.136718c-1.511718 2.542969-2.65625 5.289063-3.398437 8.152344h-17.136719v16h17.136719c.742187 2.863281 1.886719 5.609375 3.398437 8.152344l-12.136718 12.136718 11.3125 11.3125 12.136718-12.136718c2.542969 1.511718 5.289063 2.65625 8.152344 3.398437v17.136719h16v-17.136719c2.863281-.742187 5.609375-1.886719 8.152344-3.398437l12.136718 12.136718 11.3125-11.3125-12.136718-12.136718c1.511718-2.542969 2.65625-5.289063 3.398437-8.152344h17.136719v-16h-17.136719c-.742187-2.863281-1.886719-5.609375-3.398437-8.152344zm-27.464844 32.152344c-8.835938 0-16-7.164062-16-16s7.164062-16 16-16 16 7.164062 16 16-7.164062 16-16 16zm0 0" fill="url(#linear2)"/><path d="m440 32v-32h-304v32h-13.601562l-48-32h-50.398438c-13.253906 0-24 10.746094-24 24v416c.0273438 22.082031 17.917969 39.972656 40 40h384c30.914062-.035156 55.964844-25.085938 56-56v-352c-.027344-22.082031-17.917969-39.972656-40-40zm24 40v24h-24v-48c13.253906 0 24 10.746094 24 24zm-312-56h272v80h-272zm-136 424v-416c0-4.417969 3.582031-8 8-8h45.601562l48 32h18.398438v48h-32c-22.082031.027344-39.972656 17.917969-40 40v304c0 13.253906-10.746094 24-24 24s-24-10.746094-24-24zm408 24h-352.207031c5.292969-6.882812 8.175781-15.316406 8.207031-24v-304c0-13.253906 10.746094-24 24-24h360v312c-.027344 22.082031-17.917969 39.972656-40 40zm0 0" fill="url(#linear3)"/><path d="m184 32h16v16h-16zm0 0" fill="url(#linear4)"/><path d="m216 32h192v16h-192zm0 0" fill="url(#linear5)"/><path d="m184 64h16v16h-16zm0 0" fill="url(#linear4)"/><path d="m216 64h192v16h-192zm0 0" fill="url(#linear5)"/><g fill="url(#linear8)"><path d="m232 448h-48v-36.65625l-.984375-.40625-25.894531 25.863281-33.921875-33.921875 25.898437-25.894531c-.136718-.320313-.269531-.648437-.410156-.984375h-36.6875v-48h36.65625c.136719-.335938.273438-.664062.40625-.984375l-25.863281-25.894531 33.921875-33.921875 25.894531 25.898437.984375-.441406v-36.65625h48v36.65625l.984375.40625 25.894531-25.863281 33.921875 33.921875-25.898437 25.894531c.140625.320313.277344.648437.410156.984375h36.6875v48h-36.65625c-.132812.335938-.269531.664062-.40625.984375l25.863281 25.894531-33.921875 33.921875-25.894531-25.898437-.984375.441406zm-32-16h16v-32.246094l5.664062-1.730468c3.164063-.9375 6.226563-2.195313 9.136719-3.757813l5.253907-2.882813 22.824218 22.824219 11.328125-11.328125-22.824219-22.824218 2.882813-5.253907c1.5625-2.910156 2.820313-5.972656 3.757813-9.136719l1.730468-5.664062h32.246094v-16h-32.246094l-1.730468-5.664062c-.9375-3.164063-2.195313-6.226563-3.757813-9.136719l-2.882813-5.253907 22.824219-22.824218-11.328125-11.328125-22.824218 22.824219-5.253907-2.882813c-2.910156-1.5625-5.972656-2.820313-9.136719-3.757813l-5.664062-1.730468v-32.246094h-16v32.246094l-5.664062 1.730468c-3.164063.9375-6.226563 2.195313-9.136719 3.757813l-5.253907 2.882813-22.824218-22.824219-11.328125 11.328125 22.824219 22.824218-2.882813 5.253907c-1.5625 2.910156-2.820313 5.972656-3.757813 9.136719l-1.730468 5.664062h-32.246094v16h32.246094l1.730468 5.664062c.9375 3.164063 2.195313 6.226563 3.757813 9.136719l2.882813 5.253907-22.824219 22.824218 11.328125 11.328125 22.824218-22.824219 5.253907 2.882813c2.910156 1.5625 5.972656 2.820313 9.136719 3.757813l5.664062 1.730468zm0 0"/><path d="m208 384c-17.671875 0-32-14.328125-32-32s14.328125-32 32-32 32 14.328125 32 32-14.328125 32-32 32zm0-48c-8.835938 0-16 7.164062-16 16s7.164062 16 16 16 16-7.164062 16-16-7.164062-16-16-16zm0 0"/></g></svg>