<?xml version="1.0" standalone="no"?>
<!DOCTYPE svg PUBLIC "-//W3C//DTD SVG 20010904//EN"
 "http://www.w3.org/TR/2001/REC-SVG-20010904/DTD/svg10.dtd">
<svg version="1.0" xmlns="http://www.w3.org/2000/svg"
 width="200.000000pt" height="200.000000pt" viewBox="0 0 200.000000 200.000000"
 preserveAspectRatio="xMidYMid meet">

<g transform="translate(0.000000,200.000000) scale(0.100000,-0.100000)"
fill="#337ab7" stroke="none">
<path d="M375 1881 c-11 -5 -29 -19 -40 -31 -20 -22 -20 -38 -23 -834 -2 -446
0 -826 3 -845 4 -18 17 -44 30 -57 l24 -24 641 0 642 0 29 29 29 29 0 837 c0
554 -3 843 -10 856 -27 49 -25 49 -687 48 -340 0 -627 -4 -638 -8z m1253 -69
c10 -7 12 -179 10 -828 l-3 -819 -622 -3 -623 -2 0 823 c0 453 3 827 7 830 9
10 1215 8 1231 -1z"/>
<path d="M943 1610 c-42 -25 -63 -68 -63 -127 1 -88 67 -183 127 -183 97 0
171 173 113 267 -37 61 -116 81 -177 43z m159 -107 c6 -18 15 -30 19 -28 9 6
-8 -71 -21 -96 -16 -29 -61 -59 -90 -59 -61 0 -115 78 -104 152 3 24 7 48 9
53 1 6 39 10 89 10 l86 0 12 -32z"/>
<path d="M835 1297 c-75 -42 -110 -154 -66 -208 19 -24 22 -24 235 -27 l216
-3 25 25 c65 65 -1 212 -103 232 -24 5 -31 2 -36 -13 -4 -11 -22 -42 -41 -68
l-34 -48 -7 27 c-4 16 -2 32 5 39 19 19 12 27 -26 27 -29 0 -34 -3 -25 -12 7
-7 12 -28 12 -48 l-1 -35 -24 29 c-13 16 -31 47 -41 68 -20 44 -34 46 -89 15z"/>
<path d="M552 878 c-21 -21 -14 -58 14 -68 15 -6 199 -10 452 -10 371 0 431 2
450 16 24 17 29 43 10 62 -17 17 -909 17 -926 0z"/>
<path d="M552 648 c-18 -18 -14 -56 7 -68 13 -6 173 -10 453 -10 376 0 436 2
456 16 24 17 29 43 10 62 -17 17 -909 17 -926 0z"/>
<path d="M552 418 c-18 -18 -14 -56 7 -68 13 -6 174 -10 454 -10 411 0 436 1
458 19 21 16 22 22 11 45 l-12 26 -453 0 c-339 0 -456 -3 -465 -12z"/>
</g>
</svg>
