<?xml version="1.0" encoding="UTF-8"?>
<svg xmlns="http://www.w3.org/2000/svg" xmlns:xlink="http://www.w3.org/1999/xlink" width="512" height="512" viewBox="0 0 512 512"><defs><linearGradient id="a" data-name="New Gradient Swatch 1" x1="-2.988" y1="498.988" x2="505.496" y2="-9.497" gradientUnits="userSpaceOnUse"><stop offset="0" stop-color="#003f8a"/><stop offset="0.518" stop-color="#00d7df"/><stop offset="1" stop-color="#006df0"/></linearGradient><linearGradient id="b" x1="-196.988" y1="304.988" x2="311.496" y2="-203.496" xlink:href="#a"/><linearGradient id="c" x1="-180.988" y1="320.988" x2="327.496" y2="-187.496" xlink:href="#a"/><linearGradient id="d" x1="-164.988" y1="336.988" x2="343.496" y2="-171.496" xlink:href="#a"/><linearGradient id="e" x1="57.012" y1="558.988" x2="565.496" y2="50.504" xlink:href="#a"/><linearGradient id="g" x1="-98.988" y1="402.988" x2="409.496" y2="-105.496" xlink:href="#a"/><linearGradient id="h" x1="25.012" y1="526.988" x2="533.496" y2="18.503" xlink:href="#a"/><linearGradient id="i" x1="-138.988" y1="362.988" x2="369.496" y2="-145.496" xlink:href="#a"/><linearGradient id="j" x1="-142.988" y1="358.988" x2="365.496" y2="-149.496" xlink:href="#a"/><linearGradient id="k" x1="-112.988" y1="388.988" x2="395.496" y2="-119.496" xlink:href="#a"/><linearGradient id="l" x1="53.012" y1="554.988" x2="561.496" y2="46.504" xlink:href="#a"/><linearGradient id="m" x1="49.012" y1="550.988" x2="557.496" y2="42.504" xlink:href="#a"/><linearGradient id="n" x1="79.012" y1="580.988" x2="587.496" y2="72.504" xlink:href="#a"/></defs><g><path d="M476,32H36A28.031,28.031,0,0,0,8,60V420a28.031,28.031,0,0,0,28,28H162.98l19.48,19.48a7.985,7.985,0,0,0,10.92.36l16.63-14.54a105.464,105.464,0,0,0,12.54,5.2l1.47,22.03A8,8,0,0,0,232,488h48a8,8,0,0,0,7.98-7.47l1.47-22.03a105.464,105.464,0,0,0,12.54-5.2l16.63,14.54a7.985,7.985,0,0,0,10.92-.36L349.02,448H476a28.031,28.031,0,0,0,28-28V60A28.031,28.031,0,0,0,476,32ZM347.95,377.85a8.013,8.013,0,0,0-7.18,5.84,87.833,87.833,0,0,1-8.08,19.5,8.008,8.008,0,0,0,.94,9.2l13.24,15.13-6.77,6.77-.11.11-16.47,16.47-15.14-13.24a8,8,0,0,0-9.2-.94,87.561,87.561,0,0,1-19.49,8.08,8.013,8.013,0,0,0-5.84,7.18L272.52,472H239.48l-1.33-20.05a8.013,8.013,0,0,0-5.84-7.18,87.561,87.561,0,0,1-19.49-8.08,8,8,0,0,0-9.2.94l-15.14,13.24L172.01,434.4l-.11-.11-6.77-6.77,13.24-15.13a8.008,8.008,0,0,0,.94-9.2,87.833,87.833,0,0,1-8.08-19.5,8.013,8.013,0,0,0-7.18-5.84L144,376.52V343.48l20.05-1.33a8.013,8.013,0,0,0,7.18-5.84,87.561,87.561,0,0,1,8.08-19.49,8.022,8.022,0,0,0-.94-9.21l-13.24-15.13,23.35-23.35,15.14,13.24a8,8,0,0,0,9.2.94,87.561,87.561,0,0,1,19.49-8.08,8.013,8.013,0,0,0,5.84-7.18L239.48,248h33.04l1.33,20.05a8.013,8.013,0,0,0,5.84,7.18,87.561,87.561,0,0,1,19.49,8.08,8,8,0,0,0,9.2-.94l15.14-13.24,23.35,23.35-13.24,15.13a8.022,8.022,0,0,0-.94,9.21,87.561,87.561,0,0,1,8.08,19.49,8.013,8.013,0,0,0,7.18,5.84L368,343.48v33.04ZM488,420a12.01,12.01,0,0,1-12,12H364.67a7.984,7.984,0,0,0-.83-9.39L349.3,405.99a105.464,105.464,0,0,0,5.2-12.54l22.03-1.47A8,8,0,0,0,384,384V336a8,8,0,0,0-7.47-7.98l-22.03-1.47a106.16,106.16,0,0,0-5.2-12.54l14.54-16.62a8,8,0,0,0-.36-10.93l-33.94-33.94a7.985,7.985,0,0,0-10.92-.36L301.99,266.7a105.464,105.464,0,0,0-12.54-5.2l-1.47-22.03A8,8,0,0,0,280,232H232a8,8,0,0,0-7.98,7.47l-1.47,22.03a105.464,105.464,0,0,0-12.54,5.2l-16.63-14.54a7.985,7.985,0,0,0-10.92.36l-33.94,33.94a8,8,0,0,0-.36,10.93l14.54,16.62a106.16,106.16,0,0,0-5.2,12.54l-22.03,1.47A8,8,0,0,0,128,336v48a8,8,0,0,0,7.47,7.98l22.03,1.47a105.464,105.464,0,0,0,5.2,12.54l-14.54,16.62a7.984,7.984,0,0,0-.83,9.39H36a12.01,12.01,0,0,1-12-12V96H488Zm0-340H24V60A12.01,12.01,0,0,1,36,48H476a12.01,12.01,0,0,1,12,12Z" fill="url(#a)"/><path d="M40,72h8a8,8,0,0,0,0-16H40a8,8,0,0,0,0,16Z" fill="url(#b)"/><path d="M72,72h8a8,8,0,0,0,0-16H72a8,8,0,0,0,0,16Z" fill="url(#c)"/><path d="M104,72h8a8,8,0,0,0,0-16h-8a8,8,0,0,0,0,16Z" fill="url(#d)"/><path d="M256,288a72,72,0,1,0,72,72A72.081,72.081,0,0,0,256,288Zm0,128a56,56,0,1,1,56-56A56.063,56.063,0,0,1,256,416Z" fill="url(#e)"/><path d="M256,336a24,24,0,1,0,24,24A24.027,24.027,0,0,0,256,336Zm0,32a8,8,0,1,1,8-8A8.009,8.009,0,0,1,256,368Z" fill="url(#e)"/><path d="M168,160H40a8,8,0,0,0-8,8v64a8,8,0,0,0,8,8H168a8,8,0,0,0,8-8V168A8,8,0,0,0,168,160Zm-8,64H48V176H160Z" fill="url(#g)"/><path d="M464,112H336a8,8,0,0,0-8,8v64a8,8,0,0,0,8,8H464a8,8,0,0,0,8-8V120A8,8,0,0,0,464,112Zm-8,64H344V128H456Z" fill="url(#h)"/><path d="M168,112H40a8,8,0,0,0,0,16H168a8,8,0,0,0,0-16Z" fill="url(#i)"/><path d="M40,152h64a8,8,0,0,0,0-16H40a8,8,0,0,0,0,16Z" fill="url(#j)"/><path d="M136,152a8,8,0,0,0,0-16h-8a8,8,0,0,0,0,16Z" fill="url(#k)"/><path d="M464,200H336a8,8,0,0,0,0,16H464a8,8,0,0,0,0-16Z" fill="url(#l)"/><path d="M400,224H336a8,8,0,0,0,0,16h64a8,8,0,0,0,0-16Z" fill="url(#m)"/><path d="M432,224h-8a8,8,0,0,0,0,16h8a8,8,0,0,0,0-16Z" fill="url(#n)"/></g></svg>
