<?xml version="1.0" encoding="UTF-8"?>
<svg xmlns="http://www.w3.org/2000/svg" xmlns:xlink="http://www.w3.org/1999/xlink" width="512" height="512" viewBox="0 0 512 512"><defs><linearGradient id="a" data-name="New Gradient Swatch 1" x1="74.94" y1="565.06" x2="555.767" y2="84.233" gradientUnits="userSpaceOnUse"><stop offset="0" stop-color="#003f8a"/><stop offset="0.518" stop-color="#00d7df"/><stop offset="1" stop-color="#006df0"/></linearGradient><linearGradient id="b" x1="-1.06" y1="489.06" x2="479.767" y2="8.233" xlink:href="#a"/><linearGradient id="c" x1="74.94" y1="565.06" x2="555.767" y2="84.233" xlink:href="#a"/></defs><g><path d="M317.655,354.34a23.988,23.988,0,0,0-13.775-33A8.043,8.043,0,0,0,304,320V264a8,8,0,0,0-16,0v56a8.043,8.043,0,0,0,.12,1.335,24,24,0,1,0,18.221,44.32l24,24a8,8,0,0,0,11.314-11.314ZM288,344a8,8,0,1,1,8,8A8.009,8.009,0,0,1,288,344Z" fill="url(#a)"/><path d="M408,229.86V16a8,8,0,0,0-8-8H64a8,8,0,0,0-8,8V496a8,8,0,0,0,8,8H400a8,8,0,0,0,8-8V458.14a159.708,159.708,0,0,0,0-228.28ZM320,24h72V216.08c-2.6-1.96-5.28-3.84-8-5.64V48a8,8,0,0,0-8-8H320ZM160,24H304V44a12.01,12.01,0,0,1-12,12H172a12.01,12.01,0,0,1-12-12Zm12,48H292a28.026,28.026,0,0,0,25.29-16H368V201.14a158.832,158.832,0,0,0-48-15.34V168a8,8,0,0,0-8-8H280a8,8,0,0,0-8,8v17.8C195.12,197.41,136,263.93,136,344a159.684,159.684,0,0,0,54.29,120H96V56h50.71A28.026,28.026,0,0,0,172,72ZM304,176v8H288v-8ZM72,488V24h72V40H88a8,8,0,0,0-8,8V472a8,8,0,0,0,8,8H211.81a161.674,161.674,0,0,0,14.49,8Zm320,0H365.7A160.07,160.07,0,0,0,392,471.92Zm-96,0c-79.4,0-144-64.6-144-144s64.6-144,144-144,144,64.6,144,144S375.4,488,296,488Z" fill="url(#b)"/><path d="M296,216A128,128,0,1,0,424,344,128.145,128.145,0,0,0,296,216Zm8,239.711V448a8,8,0,0,0-16,0v7.711A112.168,112.168,0,0,1,184.289,352H192a8,8,0,0,0,0-16h-7.711A112.168,112.168,0,0,1,288,232.289V240a8,8,0,0,0,16,0v-7.711A112.168,112.168,0,0,1,407.711,336H400a8,8,0,0,0,0,16h7.711A112.168,112.168,0,0,1,304,455.711Z" fill="url(#c)"/></g></svg>
