<?xml version="1.0"?>
<svg xmlns="http://www.w3.org/2000/svg" xmlns:xlink="http://www.w3.org/1999/xlink" viewBox="0 0 512 512" width="512" height="512"><linearGradient id="a" gradientUnits="userSpaceOnUse" x1="243.344" x2="243.344" y1="18" y2="466"><stop offset="0" stop-color="#00efd1"/><stop offset="1" stop-color="#00acea"/></linearGradient><linearGradient id="b" x1="256" x2="256" xlink:href="#a" y1="18" y2="466"/><path d="m99.591 371.163a10.04 10.04 0 0 0 2.126-.229l100.623-21.9a9.993 9.993 0 0 0 4.935-2.692l163.406-162.984 7.03-7.03a65.886 65.886 0 0 0 .677-92.671q-.3-.355-.625-.684a66.073 66.073 0 0 0 -93.329.061l-7.047 7.048-162.979 163.4a10.007 10.007 0 0 0 -2.691 4.936l-21.9 100.623a10 10 0 0 0 9.772 12.127zm263.509-274.556c.169.2.348.392.535.578a45.881 45.881 0 0 1 -.029 64.958l-65-65a46.053 46.053 0 0 1 64.494-.536zm-78.624 14.693 64.982 64.983-149.235 148.849-64.6-64.6zm-157.111 169.259 52.829 52.829-67.522 14.694z" fill="url(#a)"/><path d="m430.657 428h-349.314a10 10 0 1 0 0 20h349.314a10 10 0 0 0 0-20z" fill="url(#b)"/></svg>
