<svg height="478pt" viewBox="-3 0 478 478.71444" width="478pt" xmlns="http://www.w3.org/2000/svg" xmlns:xlink="http://www.w3.org/1999/xlink"><linearGradient id="lg1"><stop offset="0" stop-color="#00efd1"/><stop offset="1" stop-color="#00acea"/></linearGradient><linearGradient id="linear0" gradientUnits="userSpaceOnUse" x1="355.781243" x2="355.781243" xlink:href="#lg1" y1="18.383436" y2="465.518436"/><linearGradient id="linear1" gradientUnits="userSpaceOnUse" x1="236.293243" x2="236.293243" xlink:href="#lg1" y1="18.383436" y2="465.518436"/><path d="m355.78125 299.066406c-34.910156 0-63.210938 28.300782-63.214844 63.214844 0 34.910156 28.304688 63.210938 63.214844 63.210938 34.914062 0 63.214844-28.300782 63.214844-63.210938-.039063-34.898438-28.320313-63.175781-63.214844-63.214844zm0 114.425782c-28.285156 0-51.210938-22.929688-51.214844-51.210938 0-28.285156 22.929688-51.214844 51.214844-51.214844s51.214844 22.929688 51.214844 51.214844c-.035156 28.269531-22.941406 51.179688-51.214844 51.210938zm0 0" fill="url(#linear0)"/><path d="m457.21875 346.902344 13.742188-13.175782-16.382813-37.445312-19.054687 1.398438c-5.464844-6.871094-11.851563-12.957032-18.980469-18.085938l.558593-19.035156-38.15625-14.726563-12.367187 14.335938c-8.71875-.859375-17.507813-.632813-26.171875.671875l-13.175781-13.734375-37.445313 16.382812.898438 12.089844c-10.882813-13.324219-27.183594-21.046875-44.386719-21.019531h-32.9375v-27.648438c1.714844-1.429687 3.304687-3 4.746094-4.699218 17.535156-17.929688 27.324219-42.03125 27.253906-67.113282v-91.402344c8-4.574218 13.492187-11.269531 18.027344-19.789062 5.617187-10.550781 8.800781-23.75 8.800781-37.167969.019531-1.75-.730469-3.417969-2.054688-4.5625-1.324218-1.140625-3.082031-1.640625-4.808593-1.367187l-63.179688 9.9375c-11.066406 1.75-22.378906 1.140625-33.191406-1.792969l-28.933594-7.820313c-12.90625-3.566406-26.648437 1.453126-34.222656 12.492188-29.339844 16.664062-47.457031 47.808594-47.4375 81.550781v59.921875c-.027344 25.09375 9.800781 49.195313 27.367187 67.113282 1.394532 1.644531 2.945313 3.148437 4.632813 4.488281v27.859375h-32.777344c-31.683593 0-57.222656 25.960937-57.222656 57.644531v78.65625c-.042969 1.535156.554687 3.015625 1.644531 4.097656 1.09375 1.078125 2.582032 1.660157 4.117188 1.601563h237.121094l13.75 31.570312 19.054687-1.324218c5.460937 6.882812 11.851563 12.980468 18.980469 18.121093l-.5625 19.050781 38.15625 14.738282 12.367187-14.332032c8.71875.863282 17.511719.640626 26.171875-.667968l13.175782 13.734375 37.445312-16.378907-1.398438-19.054687c6.871094-5.464844 12.957032-11.851563 18.082032-18.980469l19.035156.558594 14.726562-38.152344-14.335937-12.367187c.863281-8.71875.636719-17.511719-.671875-26.171875zm-337.300781-330.800782c3.390625-2.636718 7.566406-4.074218 11.859375-4.074218 1.742187 0 3.476562.230468 5.15625.691406l28.914062 7.820312c12.4375 3.378907 25.449219 4.082032 38.175782 2.058594l55.964843-8.796875c-2.148437 25.621094-15.898437 39.183594-27.96875 43.179688-6.675781 1.011719-81.761719 12.300781-116.167969 12.300781-.953124-.007812-1.867187-.402344-2.527343-1.09375-.660157-.691406-1.011719-1.621094-.972657-2.574219v-33.847656c-.085937-6.121094 2.71875-11.929687 7.570313-15.667969zm-19.558594 15.945313v33.570313c-.023437 8.523437 6.796875 15.492187 15.316406 15.652343-14.292969 11.632813-29.316406 16.863281-45.316406 15.609375v-1.699218c-.070313-24.5 10.960937-47.714844 30-63.132813zm-30 123.050781v-46.191406c1 .097656 2.894531.15625 4.359375.15625 25.792969 0 45.660156-14.652344 58.867188-28.449219 38.132812-2.433593 93.773437-10.71875 99.773437-11.753906v86.238281c.070313 21.949219-8.488281 43.046875-23.832031 58.742188-15.539063 15.960937-35.96875 24.75-57.679688 24.75-21.710937 0-42.082031-8.789063-57.625-24.75-15.351562-15.691406-23.921875-36.789063-23.863281-58.742188zm81.617187 95.496094c17.515626-.023438 34.652344-5.074219 49.382813-14.550781v21.851562c-28.820313 23.480469-70.167969 23.492188-99 .023438v-22.023438c14.777344 9.578125 32.007813 14.683594 49.617187 14.699219zm94.867188 133.964844h-234.484375v-72.355469c0-25.066406 20.15625-45.644531 45.222656-45.644531h36.46875c33.414063 28 82.101563 28 115.511719 0h36.734375c15.691406-.011719 30.269531 8.101562 38.527344 21.445312-4.320313 4.113282-8.246094 8.625-11.726563 13.472656l-19.035156-.535156-14.722656 38.164063 14.332031 12.375c-.863281 8.667969-.636719 17.414062.671875 26.027343zm211.144531 4.445312-8.628906 22.347656-17.125-.5-1.84375 2.765626c-5.351563 8.023437-12.054687 15.0625-19.808594 20.800781l-2.652343 1.964843 1.257812 17.101563-21.992188 9.621094-11.808593-12.316407-3.179688.585938c-9.546875 1.746094-19.304687 1.996094-28.929687.746094l-3.199219-.410156-11.019531 12.773437-22.347656-8.625.5-17.125-2.765626-1.84375c-8.023437-5.355469-15.0625-12.054687-20.800781-19.8125l-1.964843-2.648437-17.101563 1.257812-9.617187-21.992188 12.308593-11.808593-.585937-3.179688c-1.742188-9.546875-1.992188-19.308593-.742188-28.929687l.410156-3.203125-12.773437-11.015625 8.625-22.347656 17.121094.5 1.84375-2.765626c5.355469-8.023437 12.058593-15.0625 19.8125-20.800781l2.648437-1.964843-1.253906-17.101563 21.992188-9.621094 11.808593 12.3125 3.179688-.585937c9.546875-1.746094 19.308593-1.996094 28.929687-.746094l3.199219.410156 11.023437-12.773437 22.347657 8.625-.507813 17.121093 2.769532 1.84375c8.023437 5.355469 15.0625 12.058594 20.800781 19.8125l1.964843 2.652344 17.101563-1.257812 9.621094 21.992187-12.3125 11.8125.585937 3.175781c1.742188 9.546876 1.996094 19.308594.746094 28.933594l-.410156 3.199219zm0 0" fill="url(#linear1)"/></svg>