<svg width="32" height="32" viewBox="0 0 32 32" fill="none" xmlns="http://www.w3.org/2000/svg">
<circle cx="16" cy="16" r="16" fill="white"/>
<path fill-rule="evenodd" clip-rule="evenodd" d="M23.1931 20H22.4347V14.4C22.4347 10.8654 19.5448 8 15.9798 8C12.4149 8 9.52496 10.8654 9.52496 14.4V20H8.80686C8.36124 20 8 20.3582 8 20.8C8 21.2418 8.36124 21.6 8.80686 21.6H13.5593C13.5593 22.9255 14.643 24 15.9798 24C17.3167 24 18.4004 22.9255 18.4004 21.6H23.1931C23.6388 21.6 24 21.2418 24 20.8C24 20.3582 23.6388 20 23.1931 20ZM15.9807 22.4007C15.5351 22.4007 15.1738 22.0425 15.1738 21.6007H16.7875C16.7875 22.0425 16.4263 22.4007 15.9807 22.4007ZM11.1367 20.0007H17.5916H20.819V14.4007C20.819 11.7497 18.6516 9.60068 15.9779 9.60068C13.3042 9.60068 11.1367 11.7497 11.1367 14.4007V20.0007Z" fill="#E3311D"/>
</svg>
