<svg width="18" height="18" viewBox="0 0 18 18" fill="none" xmlns="http://www.w3.org/2000/svg">
<path d="M14.8182 2.45455H14.694C14.7744 2.68202 14.8182 2.92681 14.8182 3.18182V14.8182C14.8182 15.0732 14.7744 15.318 14.694 15.5455H14.8182C15.2198 15.5455 15.5455 15.2198 15.5455 14.8182V3.18182C15.5455 2.78016 15.2198 2.45455 14.8182 2.45455Z" fill="#717171"/>
<path fill-rule="evenodd" clip-rule="evenodd" d="M3.90909 2.45455H12.6364C13.038 2.45455 13.3636 2.78016 13.3636 3.18182V14.8182C13.3636 15.2198 13.038 15.5455 12.6364 15.5455H3.90909C3.50743 15.5455 3.18182 15.2198 3.18182 14.8182V14.0909H3.90909C4.31075 14.0909 4.63636 13.7653 4.63636 13.3636C4.63636 12.962 4.31075 12.6364 3.90909 12.6364H3.18182V6.09091H3.90909C4.31075 6.09091 4.63636 5.7653 4.63636 5.36364C4.63636 4.96198 4.31075 4.63636 3.90909 4.63636H3.18182V3.18182C3.18182 2.78016 3.50743 2.45455 3.90909 2.45455ZM6.09091 5.36364C5.68925 5.36364 5.36364 5.68925 5.36364 6.09091C5.36364 6.49257 5.68925 6.81818 6.09091 6.81818C6.49257 6.81818 6.81818 6.49257 6.81818 6.09091C6.81818 5.68925 6.49257 5.36364 6.09091 5.36364ZM7.54545 6.09091C7.54545 5.68925 7.87107 5.36364 8.27273 5.36364H11.9091C12.3108 5.36364 12.6364 5.68925 12.6364 6.09091C12.6364 6.49257 12.3108 6.81818 11.9091 6.81818H8.27273C7.87107 6.81818 7.54545 6.49257 7.54545 6.09091ZM8.27273 8.27273C7.87107 8.27273 7.54545 8.59834 7.54545 9C7.54545 9.40166 7.87107 9.72727 8.27273 9.72727H11.9091C12.3108 9.72727 12.6364 9.40166 12.6364 9C12.6364 8.59834 12.3108 8.27273 11.9091 8.27273H8.27273ZM8.27273 11.1818C7.87107 11.1818 7.54545 11.5074 7.54545 11.9091C7.54545 12.3108 7.87107 12.6364 8.27273 12.6364H11.9091C12.3108 12.6364 12.6364 12.3108 12.6364 11.9091C12.6364 11.5074 12.3108 11.1818 11.9091 11.1818H8.27273ZM6.09091 8.27273C5.68925 8.27273 5.36364 8.59834 5.36364 9C5.36364 9.40166 5.68925 9.72727 6.09091 9.72727C6.49257 9.72727 6.81818 9.40166 6.81818 9C6.81818 8.59834 6.49257 8.27273 6.09091 8.27273ZM6.09091 11.1818C5.68925 11.1818 5.36364 11.5074 5.36364 11.9091C5.36364 12.3108 5.68925 12.6364 6.09091 12.6364C6.49257 12.6364 6.81818 12.3108 6.81818 11.9091C6.81818 11.5074 6.49257 11.1818 6.09091 11.1818Z" fill="#717171"/>
<path fill-rule="evenodd" clip-rule="evenodd" d="M2 0C0.895431 0 0 0.89543 0 2V16C0 17.1046 0.89543 18 2 18H16C17.1046 18 18 17.1046 18 16V2C18 0.895431 17.1046 0 16 0H2ZM1 13.3636C1 12.962 1.32561 12.6364 1.72727 12.6364V6.09091C1.32561 6.09091 1 5.7653 1 5.36364C1 4.96198 1.32561 4.63636 1.72727 4.63636V3.18182C1.72727 1.97683 2.70411 1 3.90909 1H14.8182C16.0232 1 17 1.97683 17 3.18182V14.8182C17 16.0232 16.0232 17 14.8182 17H3.90909C2.70411 17 1.72727 16.0232 1.72727 14.8182V14.0909C1.32561 14.0909 1 13.7653 1 13.3636Z" fill="#717171"/>
</svg>
