<svg width="22" height="22" viewBox="0 0 22 22" fill="none" xmlns="http://www.w3.org/2000/svg">
<g clip-path="url(#clip0_913_39059)">
<path fill-rule="evenodd" clip-rule="evenodd" d="M5 2C5 0.895386 5.89545 0 7 0H13C14.1046 0 15 0.895386 15 2H16.7C18.5225 2 20 3.47742 20 5.30005C20 5.68662 19.6866 6 19.3 6H18.4991C18.1128 6 17.7996 5.68684 17.7996 5.30054C17.7996 4.69299 17.3071 4.20044 16.6996 4.20044H15V5C15 5.55225 14.5523 6 14 6H6C5.44769 6 5 5.55225 5 5V4.20044H3.29962C2.69208 4.20044 2.19958 4.69299 2.19958 5.30054V18.6995C2.19958 19.307 2.69208 19.7996 3.29962 19.7996L16.7004 19.7993C17.3079 19.7993 17.8004 19.3069 17.8004 18.6993C17.8004 18.3131 18.1135 18 18.4998 18H19.3002C19.6867 18 20 18.3133 20 18.6998C20 20.5223 18.5225 21.9998 16.7 21.9998L3.29999 22C1.47748 22 0 20.5226 0 18.7V5.30005C0 4.41724 0.346619 3.61536 0.911255 3.02319C0.930054 3.00342 0.949158 2.98389 0.968445 2.9646L0.999817 2.93372C1.59418 2.35583 2.40552 2 3.29999 2H5ZM7 2H13V4H7V2Z" fill="#717171"/>
<path d="M6 9C6 8.44771 6.44772 8 7 8H10C10.5523 8 11 8.44771 11 9C11 9.55229 10.5523 10 10 10H7C6.44772 10 6 9.55229 6 9Z" fill="#717171"/>
<path d="M12 9C12 8.44771 12.4477 8 13 8H21C21.5523 8 22 8.44771 22 9C22 9.55229 21.5523 10 21 10H13C12.4477 10 12 9.55229 12 9Z" fill="#717171"/>
<path d="M5 13C5 12.4477 5.44772 12 6 12H11C11.5523 12 12 12.4477 12 13C12 13.5523 11.5523 14 11 14H6C5.44772 14 5 13.5523 5 13Z" fill="#717171"/>
<path d="M13 13C13 12.4477 13.4477 12 14 12H16C16.5523 12 17 12.4477 17 13C17 13.5523 16.5523 14 16 14H14C13.4477 14 13 13.5523 13 13Z" fill="#717171"/>
<path d="M11 16C11 15.4477 11.4477 15 12 15H20C20.5523 15 21 15.4477 21 16C21 16.5523 20.5523 17 20 17H12C11.4477 17 11 16.5523 11 16Z" fill="#717171"/>
</g>
<defs>
<clipPath id="clip0_913_39059">
<rect width="22" height="22" fill="white"/>
</clipPath>
</defs>
</svg>
