<svg width="22" height="22" viewBox="0 0 22 22" fill="none" xmlns="http://www.w3.org/2000/svg">
<g clip-path="url(#clip0_913_39061)">
<path fill-rule="evenodd" clip-rule="evenodd" d="M9.39844 11.0014C9.39844 10.1177 10.1148 9.40137 10.9984 9.40137C11.8821 9.40137 12.5984 10.1177 12.5984 11.0014C12.5984 11.885 11.8821 12.6014 10.9984 12.6014C10.1148 12.6014 9.39844 11.885 9.39844 11.0014ZM10.9984 10.4014C10.6671 10.4014 10.3984 10.67 10.3984 11.0014C10.3984 11.3327 10.6671 11.6014 10.9984 11.6014C11.3298 11.6014 11.5984 11.3327 11.5984 11.0014C11.5984 10.67 11.3298 10.4014 10.9984 10.4014Z" fill="#717171"/>
<path fill-rule="evenodd" clip-rule="evenodd" d="M7.19922 11.0002C7.19922 8.90151 8.90054 7.2002 10.9992 7.2002C13.0979 7.2002 14.7992 8.90151 14.7992 11.0002C14.7992 13.0989 13.0979 14.8002 10.9992 14.8002C8.90054 14.8002 7.19922 13.0989 7.19922 11.0002ZM10.9992 8.2002C9.45282 8.2002 8.19922 9.4538 8.19922 11.0002C8.19922 12.5466 9.45282 13.8002 10.9992 13.8002C12.5456 13.8002 13.7992 12.5466 13.7992 11.0002C13.7992 9.4538 12.5456 8.2002 10.9992 8.2002Z" fill="#717171"/>
<path fill-rule="evenodd" clip-rule="evenodd" d="M20.9 9.9H19.723C19.218 5.91779 16.0822 2.78199 12.1 2.277V1.1C12.1 0.492487 11.6075 0 11 0C10.3925 0 9.9 0.492487 9.9 1.1V2.277C5.91779 2.78199 2.78199 5.91779 2.277 9.9H1.1C0.492487 9.9 0 10.3925 0 11C0 11.6075 0.492487 12.1 1.1 12.1H2.277C2.78199 16.0822 5.91779 19.218 9.9 19.723V20.9C9.9 21.5075 10.3925 22 11 22C11.6075 22 12.1 21.5075 12.1 20.9V19.723C16.0822 19.218 19.218 16.0822 19.723 12.1H20.9C21.5075 12.1 22 11.6075 22 11C22 10.3925 21.5075 9.9 20.9 9.9ZM12.101 17.501C12.101 16.8935 11.6085 16.401 11.001 16.401C10.3935 16.401 9.901 16.8935 9.901 17.501C7.13596 17.0311 4.96988 14.8651 4.5 12.1C5.10751 12.1 5.6 11.6075 5.6 11C5.6 10.3925 5.10751 9.90002 4.5 9.90002C4.96988 7.13498 7.13596 4.9689 9.901 4.49902C9.901 5.10654 10.3935 5.59902 11.001 5.59902C11.6085 5.59902 12.101 5.10654 12.101 4.49902C14.866 4.9689 17.0321 7.13498 17.502 9.90002C16.8945 9.90002 16.402 10.3925 16.402 11C16.402 11.6075 16.8945 12.1 17.502 12.1C17.0321 14.8651 14.866 17.0311 12.101 17.501Z" fill="#717171"/>
</g>
<defs>
<clipPath id="clip0_913_39061">
<rect width="22" height="22" fill="white"/>
</clipPath>
</defs>
</svg>
