<svg width="18" height="18" viewBox="0 0 18 18" fill="none" xmlns="http://www.w3.org/2000/svg">
<path fill-rule="evenodd" clip-rule="evenodd" d="M2 0C0.895431 0 0 0.89543 0 2V16C0 17.1046 0.89543 18 2 18H16C17.1046 18 18 17.1046 18 16V2C18 0.895431 17.1046 0 16 0H2ZM11 7.23C11 7.10297 10.897 7 10.77 7H3.23C3.10297 7 3 7.10297 3 7.23V14.77C3 14.897 3.10297 15 3.23 15H10.77C10.897 15 11 14.897 11 14.77V7.23ZM3 6C2.44772 6 2 6.44772 2 7V15C2 15.5523 2.44772 16 3 16H11C11.5523 16 12 15.5523 12 15V7C12 6.44772 11.5523 6 11 6H3ZM7 3.3V4.5C7 4.77614 6.77614 5 6.5 5C6.22386 5 6 4.77614 6 4.5V3C6 2.44772 6.44772 2 7 2H15C15.5523 2 16 2.44772 16 3V11C16 11.5523 15.5523 12 15 12H13.5C13.2239 12 13 11.7761 13 11.5C13 11.2239 13.2239 11 13.5 11H14.7C14.8657 11 15 10.8657 15 10.7V3.3C15 3.13431 14.8657 3 14.7 3H7.3C7.13431 3 7 3.13431 7 3.3Z" fill="#951447"/>
</svg>
