<svg width="22" height="22" viewBox="0 0 22 22" fill="none" xmlns="http://www.w3.org/2000/svg">
<g clip-path="url(#clip0_913_39055)">
<path fill-rule="evenodd" clip-rule="evenodd" d="M22 3.30005V9.7002C22 10.2524 21.5524 10.7001 21.0002 10.7002L20.7998 10.7003C20.2475 10.7004 19.7996 10.2527 19.7996 9.70032V7H12V15C12 15.5523 11.5523 16 11 16C10.4477 16 10 15.5523 10 15V7H2.1996V18.7004C2.1996 19.308 2.69209 19.8005 3.29961 19.8005H7.69978C8.252 19.8005 8.69969 20.248 8.69978 20.8003L8.69983 20.9999C8.69992 21.5521 8.25217 22 7.69981 22H3.3C1.47746 22 0 20.5226 0 18.7V3.30005C0 1.47742 1.47746 0 3.3 0H18.7C20.5225 0 22 1.47742 22 3.30005ZM19.7996 5V3.30054C19.7996 2.69299 19.3071 2.20044 18.6996 2.20044H3.29961C2.69209 2.20044 2.1996 2.69299 2.1996 3.30054V5H19.7996Z" fill="#717171"/>
<path d="M21.5292 12.3099C22.0945 12.7724 22.16 13.5849 21.6754 14.1246L15.4108 21.1011C14.3886 22.2395 12.5675 22.3063 11.4568 21.2461L9.39489 19.2779C8.86837 18.7753 8.86837 17.9604 9.39489 17.4578C9.92142 16.9552 10.7751 16.9552 11.3016 17.4578L13.0546 19.1312C13.2212 19.2902 13.4944 19.2802 13.6478 19.1094L19.6281 12.4495C20.1126 11.9098 20.9638 11.8473 21.5292 12.3099Z" fill="#717171"/>
</g>
<defs>
<clipPath id="clip0_913_39055">
<rect width="22" height="22" fill="white"/>
</clipPath>
</defs>
</svg>
