<svg width="22" height="22" viewBox="0 0 22 22" fill="none" xmlns="http://www.w3.org/2000/svg">
<path fill-rule="evenodd" clip-rule="evenodd" d="M20 4C20 1.79086 15.9706 0 11 0C6.02944 0 2 1.79086 2 4V17C2 18.6874 3.34191 19.9458 4.89593 20.7229C6.50977 21.5298 8.66928 22 11 22C13.3307 22 15.4902 21.5298 17.1041 20.7229C18.6581 19.9458 20 18.6874 20 17V4ZM17.8439 3.82179C17.6248 3.59156 17.2133 3.29323 16.5517 2.9992C15.2336 2.41337 13.2724 2 11 2C8.72757 2 6.76643 2.41337 5.44832 2.9992C4.78673 3.29323 4.37516 3.59156 4.15605 3.82179C4.05896 3.92381 4.05896 4.07619 4.15605 4.17821C4.37516 4.40844 4.78673 4.70677 5.44832 5.0008C6.76643 5.58663 8.72757 6 11 6C13.2724 6 15.2336 5.58663 16.5517 5.0008C17.2133 4.70677 17.6248 4.40844 17.8439 4.17821C17.941 4.07619 17.941 3.92381 17.8439 3.82179ZM18 10V6.51437C16.35 7.42059 13.8273 8 11 8C8.17273 8 5.64996 7.42059 4 6.51437V10C4 10.5217 4.44895 11.2633 5.79036 11.934C7.07196 12.5748 8.91244 13 11 13C13.0876 13 14.928 12.5748 16.2096 11.934C17.5511 11.2633 18 10.5217 18 10ZM18 13.2006V17C18 17.5217 17.5511 18.2633 16.2096 18.934C14.928 19.5748 13.0876 20 11 20C8.91244 20 7.07196 19.5748 5.79036 18.934C4.44895 18.2633 4 17.5217 4 17V13.2006C4.28422 13.3936 4.58585 13.5678 4.89593 13.7229C6.50977 14.5298 8.66928 15 11 15C13.3307 15 15.4902 14.5298 17.1041 13.7229C17.4141 13.5678 17.7158 13.3936 18 13.2006Z" fill="#D3D3D3"/>
</svg>
