<svg width="18" height="18" viewBox="0 0 18 18" fill="none" xmlns="http://www.w3.org/2000/svg">
<g clip-path="url(#clip0_913_40284)">
<path fill-rule="evenodd" clip-rule="evenodd" d="M0 2C0 0.89543 0.895431 0 2 0H16C17.1046 0 18 0.895431 18 2V16C18 17.1046 17.1046 18 16 18H2C0.89543 18 0 17.1046 0 16V2ZM8 14C9.46832 14 10.8135 13.4726 11.8563 12.5968L14.6421 15.8268C14.7293 15.928 14.8533 15.9924 14.9868 15.9968C15.0562 15.9991 15.1388 15.9998 15.2927 15.9999C15.4253 16.0001 15.5527 15.9473 15.6464 15.8536L15.8536 15.6464C15.9473 15.5527 16.0001 15.4253 15.9999 15.2927C15.9998 15.1388 15.9991 15.0562 15.9968 14.9868C15.9924 14.8533 15.928 14.7293 15.8268 14.6421L12.5968 11.8563C13.4726 10.8135 14 9.46832 14 8C14 4.68629 11.3137 2 8 2C4.68629 2 2 4.68629 2 8C2 11.3137 4.68629 14 8 14ZM8 13C10.7614 13 13 10.7614 13 8C13 5.23858 10.7614 3 8 3C5.23858 3 3 5.23858 3 8C3 10.7614 5.23858 13 8 13Z" fill="#D3D3D3"/>
</g>
<defs>
<clipPath id="clip0_913_40284">
<rect width="18" height="18" fill="white"/>
</clipPath>
</defs>
</svg>
