<svg width="22" height="22" viewBox="0 0 22 22" fill="none" xmlns="http://www.w3.org/2000/svg">
<path d="M9 7C9 6.44772 9.44771 6 10 6H15C15.5523 6 16 6.44772 16 7C16 7.55228 15.5523 8 15 8H10C9.44772 8 9 7.55228 9 7Z" fill="#717171"/>
<path d="M10 10C9.44771 10 9 10.4477 9 11C9 11.5523 9.44772 12 10 12H15C15.5523 12 16 11.5523 16 11C16 10.4477 15.5523 10 15 10H10Z" fill="#717171"/>
<path d="M9 15C9 14.4477 9.44771 14 10 14H15C15.5523 14 16 14.4477 16 15C16 15.5523 15.5523 16 15 16H10C9.44772 16 9 15.5523 9 15Z" fill="#717171"/>
<path d="M7 6C6.44772 6 6 6.44772 6 7C6 7.55228 6.44772 8 7 8C7.55228 8 8 7.55228 8 7C8 6.44772 7.55228 6 7 6Z" fill="#717171"/>
<path d="M6 11C6 10.4477 6.44772 10 7 10C7.55228 10 8 10.4477 8 11C8 11.5523 7.55228 12 7 12C6.44772 12 6 11.5523 6 11Z" fill="#717171"/>
<path d="M7 14C6.44772 14 6 14.4477 6 15C6 15.5523 6.44772 16 7 16C7.55228 16 8 15.5523 8 15C8 14.4477 7.55228 14 7 14Z" fill="#717171"/>
<path fill-rule="evenodd" clip-rule="evenodd" d="M1 16C0.447715 16 0 16.4477 0 17C0 17.5523 0.447715 18 1 18V19C1 20.6569 2.34315 22 4 22H19C20.6569 22 22 20.6569 22 19V3C22 1.34315 20.6569 0 19 0H4C2.34315 0 1 1.34315 1 3V5C0.447715 5 0 5.44772 0 6C0 6.55228 0.447715 7 1 7V16ZM18.8293 2H19C19.5523 2 20 2.44772 20 3V19C20 19.5523 19.5523 20 19 20H18.8293C18.9398 19.6872 19 19.3506 19 19V3C19 2.64936 18.9398 2.31278 18.8293 2ZM16 2H4C3.44772 2 3 2.44772 3 3V5H4C4.55229 5 5 5.44772 5 6C5 6.55228 4.55229 7 4 7H3V16H4C4.55229 16 5 16.4477 5 17C5 17.5523 4.55229 18 4 18H3V19C3 19.5523 3.44772 20 4 20H16C16.5523 20 17 19.5523 17 19V3C17 2.44772 16.5523 2 16 2Z" fill="#717171"/>
</svg>
