<svg width="34" height="28" viewBox="0 0 34 28" fill="none" xmlns="http://www.w3.org/2000/svg">
<path fill-rule="evenodd" clip-rule="evenodd" d="M20.517 0.0219954C19.6647 0.760674 20.7668 2.42989 22.7823 3.45294C24.4918 4.32056 24.6568 4.83294 23.1465 4.58301C19.9204 4.04872 19.2844 4.03932 19.2844 4.52551C19.2844 4.78597 19.8103 5.26789 20.4532 5.59639C21.2595 6.00828 21.5606 6.3325 21.4238 6.64135C20.9545 7.70027 20.8835 9.54397 21.2526 11.0837C21.5708 12.4113 21.5655 12.877 21.2263 13.4261C20.6531 14.3538 16.9968 15.8237 14.6716 16.0611C13.6392 16.1667 12.4428 16.4503 12.0132 16.6916C11.4032 17.0338 10.7987 17.0828 9.25948 16.9145C6.22669 16.5826 5.40628 16.6028 5.56142 17.0059C5.64064 17.2117 6.37854 17.3908 7.31464 17.4312C9.99081 17.547 10.9115 17.8758 10.8487 18.6931C10.7277 20.2712 9.82844 21.4815 8.37006 22.0295C7.5937 22.3213 6.6073 22.8889 6.17771 23.2911C5.74845 23.693 4.97373 24.1026 4.45638 24.2011C3.9387 24.2996 3.23367 24.6904 2.88888 25.0699C2.54441 25.4493 2.03954 25.7596 1.76706 25.7596C1.25135 25.7596 -0.267174 27.7095 0.040805 27.9762C0.137439 28.0599 0.487817 27.9156 0.819791 27.6557C1.15144 27.3955 1.68391 27.1829 2.00273 27.1829C2.32189 27.1829 2.66043 26.9267 2.75477 26.6136C2.84943 26.3004 3.14722 26.0443 3.41641 26.0443C3.68561 26.0443 4.18652 25.7351 4.52967 25.3577C5.67778 24.0932 8.29938 23.1977 10.8513 23.1977C12.947 23.1977 13.2478 23.1197 14.4846 22.2552C16.5632 20.8026 17.5615 20.5541 20.3941 20.7841C23.6014 21.0443 25.682 20.6142 27.3632 19.3438C28.4975 18.4861 28.8686 18.37 30.4598 18.3734L32.2675 18.3777L31.4458 18.925C30.9939 19.2262 30.231 19.7343 29.7505 20.0543C29.2699 20.3742 28.6691 20.6358 28.415 20.6358C28.1609 20.6358 27.5282 21.0201 27.0086 21.4898L26.0639 22.3438H26.9773C27.4799 22.3438 28.2671 22.0876 28.7266 21.7744C29.1864 21.4613 29.8063 21.2051 30.1045 21.2051C30.868 21.2051 34.2068 18.212 33.9899 17.7221C33.8002 17.2943 30.8414 16.366 29.667 16.366C29.0418 16.366 28.9034 16.1314 28.5886 14.5388C28.347 13.3188 27.8789 12.2735 27.1801 11.3937C26.3361 10.331 26.2098 9.99572 26.529 9.66267C27.0579 9.11045 27.4017 9.14204 28.0548 9.80272C28.4699 10.2226 28.746 10.2886 29.2019 10.0771C29.5322 9.92427 29.8024 9.60375 29.8024 9.36521C29.8024 8.88671 27.9966 6.76148 27.0907 6.17452C26.7745 5.96928 26.5155 5.55739 26.5155 5.25907C26.5155 4.16372 22.6042 0.0171561 22.0359 0.509608C21.9399 0.592728 22.1151 0.996083 22.4254 1.4057C23.084 2.27646 22.898 2.58958 21.9764 2.16231C21.6181 1.99607 21.1987 1.39858 21.0442 0.834115C20.8897 0.269929 20.6527 -0.0955669 20.517 0.0219954Z" fill="white"/>
</svg>
