<svg width="128" height="24" viewBox="0 0 128 24" fill="none" xmlns="http://www.w3.org/2000/svg">
<path d="M0 23.4919V0.917969H7.62174C10.6963 0.917969 13.129 1.38185 14.9198 2.30962C16.7107 3.22661 18.1347 4.58051 19.1919 6.37132C20.2491 8.16213 20.7778 10.1148 20.7778 12.2292C20.7778 13.7395 20.4865 15.1851 19.9039 16.566C19.3214 17.9469 18.4907 19.1605 17.4119 20.207C16.3115 21.2858 15.0331 22.1003 13.5767 22.6505C12.7245 22.9849 11.9424 23.2114 11.2303 23.3301C10.5183 23.438 9.15904 23.4919 7.15246 23.4919H0ZM7.28192 3.79837H3.23641V20.6115H7.37901C8.99722 20.6115 10.254 20.5036 11.1494 20.2879C12.0448 20.0613 12.7892 19.7808 13.3826 19.4464C13.9867 19.1012 14.5369 18.6805 15.0331 18.1842C16.6298 16.566 17.4281 14.5217 17.4281 12.0512C17.4281 9.62391 16.6082 7.64431 14.9684 6.11241C14.3643 5.54064 13.6684 5.07136 12.8809 4.70457C12.1042 4.33777 11.3652 4.09504 10.664 3.97638C9.96275 3.85771 8.8354 3.79837 7.28192 3.79837Z" fill="white"/>
<path d="M33.7719 14.5756V20.9028C33.7719 21.4098 33.9445 21.6634 34.2898 21.6634C34.6458 21.6634 35.2013 21.399 35.9565 20.8704V22.6666C35.2877 23.0982 34.7482 23.3894 34.3383 23.5405C33.9391 23.7023 33.5184 23.7832 33.0761 23.7832C31.8139 23.7832 31.0695 23.2869 30.843 22.2944C29.5916 23.2654 28.2592 23.7508 26.846 23.7508C25.8104 23.7508 24.9473 23.411 24.2569 22.7314C23.5665 22.0409 23.2212 21.1779 23.2212 20.1422C23.2212 19.2037 23.5557 18.3676 24.2245 17.634C24.9042 16.8896 25.8643 16.3017 27.1049 15.8702L30.8753 14.5756V13.7827C30.8753 11.9919 29.9799 11.0965 28.1891 11.0965C26.5817 11.0965 25.0174 11.9272 23.4963 13.5885V10.3683C24.6399 9.01978 26.285 8.34553 28.4319 8.34553C30.0393 8.34553 31.3284 8.76626 32.2994 9.60773C32.623 9.87743 32.9143 10.2388 33.1732 10.6919C33.4321 11.1342 33.5939 11.5819 33.6587 12.035C33.7342 12.4773 33.7719 13.3242 33.7719 14.5756ZM30.8753 20.5792V16.1615L28.9011 16.922C27.8978 17.3212 27.1858 17.7257 26.7651 18.1357C26.3552 18.5348 26.1502 19.0365 26.1502 19.6406C26.1502 20.2555 26.3444 20.7572 26.7327 21.1455C27.1319 21.5339 27.6443 21.7281 28.27 21.7281C29.2086 21.7281 30.077 21.3451 30.8753 20.5792Z" fill="white"/>
<path d="M36.4743 10.9994L42.0086 5.56222V8.6368H46.7176V11.2907H42.0086V18.5888C42.0086 20.2933 42.7152 21.1455 44.1284 21.1455C45.1857 21.1455 46.3022 20.7895 47.4781 20.0775V22.8285C46.3454 23.465 45.1102 23.7832 43.7724 23.7832C42.4239 23.7832 41.302 23.3894 40.4066 22.6019C40.1261 22.3646 39.8941 22.1003 39.7107 21.809C39.5273 21.5069 39.3709 21.1186 39.2415 20.6439C39.1228 20.1584 39.0635 19.2414 39.0635 17.8929V11.2907H36.4743V10.9994Z" fill="white"/>
<path d="M58.9512 14.5756V20.9028C58.9512 21.4098 59.1238 21.6634 59.469 21.6634C59.825 21.6634 60.3806 21.399 61.1358 20.8704V22.6666C60.4669 23.0982 59.9275 23.3894 59.5176 23.5405C59.1184 23.7023 58.6977 23.7832 58.2554 23.7832C56.9932 23.7832 56.2488 23.2869 56.0222 22.2944C54.7708 23.2654 53.4385 23.7508 52.0253 23.7508C50.9896 23.7508 50.1266 23.411 49.4362 22.7314C48.7457 22.0409 48.4005 21.1779 48.4005 20.1422C48.4005 19.2037 48.7349 18.3676 49.4038 17.634C50.0834 16.8896 51.0436 16.3017 52.2842 15.8702L56.0546 14.5756V13.7827C56.0546 11.9919 55.1592 11.0965 53.3684 11.0965C51.761 11.0965 50.1967 11.9272 48.6756 13.5885V10.3683C49.8191 9.01978 51.4643 8.34553 53.6111 8.34553C55.2185 8.34553 56.5077 8.76626 57.4786 9.60773C57.8023 9.87743 58.0936 10.2388 58.3525 10.6919C58.6114 11.1342 58.7732 11.5819 58.8379 12.035C58.9134 12.4773 58.9512 13.3242 58.9512 14.5756ZM56.0546 20.5792V16.1615L54.0804 16.922C53.0771 17.3212 52.3651 17.7257 51.9444 18.1357C51.5344 18.5348 51.3295 19.0365 51.3295 19.6406C51.3295 20.2555 51.5236 20.7572 51.912 21.1455C52.3112 21.5339 52.8236 21.7281 53.4493 21.7281C54.3879 21.7281 55.2563 21.3451 56.0546 20.5792Z" fill="white"/>
<path d="M71.7997 23.5243H64.1456V0.917969H70.0683C71.9346 0.917969 73.391 1.17149 74.4374 1.67852C75.4839 2.17477 76.2822 2.86521 76.8324 3.74983C77.3826 4.62366 77.6576 5.63773 77.6576 6.79205C77.6576 9.01439 76.5087 10.6056 74.2109 11.5658C75.8614 11.8786 77.1722 12.5583 78.1431 13.6047C79.1248 14.6511 79.6157 15.9025 79.6157 17.3589C79.6157 18.5132 79.319 19.5435 78.7257 20.4497C78.1323 21.3559 77.2585 22.0949 76.1042 22.6666C74.9606 23.2384 73.5258 23.5243 71.7997 23.5243ZM70.1654 3.79837H67.382V10.5948H69.5343C71.2603 10.5948 72.4848 10.2658 73.2076 9.60773C73.9412 8.94966 74.308 8.0974 74.308 7.05096C74.308 4.88257 72.9271 3.79837 70.1654 3.79837ZM70.4081 13.4752H67.382V20.6439H70.5699C72.3391 20.6439 73.5366 20.509 74.1623 20.2393C74.7988 19.9588 75.3059 19.5273 75.6834 18.9448C76.0718 18.3622 76.266 17.7365 76.266 17.0676C76.266 16.3772 76.061 15.7461 75.6511 15.1744C75.2519 14.6026 74.6802 14.1765 73.9358 13.896C73.1914 13.6155 72.0155 13.4752 70.4081 13.4752Z" fill="white"/>
<path d="M91.8978 23.5243V21.631C91.2721 22.3106 90.5547 22.8392 89.7456 23.2168C88.9473 23.5944 88.149 23.7832 87.3507 23.7832C86.4121 23.7832 85.5437 23.5513 84.7454 23.0874C83.9579 22.6127 83.3591 21.9762 82.9492 21.1779C82.55 20.3688 82.3504 19.0311 82.3504 17.1647V8.6368H85.2956V17.1324C85.2956 18.6966 85.5167 19.7916 85.959 20.4173C86.4121 21.0323 87.1997 21.3397 88.3216 21.3397C89.7241 21.3397 90.9161 20.6547 91.8978 19.2846V8.6368H94.843V23.5243H91.8978Z" fill="white"/>
<path d="M110.151 20.0451V22.9579C108.673 23.5081 107.228 23.7832 105.814 23.7832C103.484 23.7832 101.623 23.0928 100.232 21.7119C98.8507 20.331 98.1603 18.4809 98.1603 16.1615C98.1603 13.8205 98.8345 11.9325 100.183 10.4977C101.532 9.06293 103.306 8.34553 105.507 8.34553C106.273 8.34553 106.958 8.42104 107.562 8.57208C108.177 8.71232 108.932 8.98202 109.828 9.38118V12.5205C108.339 11.5711 106.958 11.0965 105.685 11.0965C104.358 11.0965 103.268 11.5658 102.416 12.5043C101.564 13.4321 101.138 14.6188 101.138 16.0644C101.138 17.5855 101.596 18.7937 102.513 19.6891C103.441 20.5845 104.687 21.0323 106.251 21.0323C107.384 21.0323 108.684 20.7032 110.151 20.0451Z" fill="white"/>
<path d="M123.194 8.6368H126.705L120.346 15.9349L128 23.5243H124.052L116.592 15.9349L123.194 8.6368ZM113.517 0.917969H116.462V23.5243H113.517V0.917969Z" fill="white"/>
</svg>
