<svg width="18" height="18" viewBox="0 0 18 18" fill="none" xmlns="http://www.w3.org/2000/svg">
<g clip-path="url(#clip0_913_40367)">
<path fill-rule="evenodd" clip-rule="evenodd" d="M2 0C0.895431 0 0 0.89543 0 2V16C0 17.1046 0.89543 18 2 18H16C17.1046 18 18 17.1046 18 16V2C18 0.895431 17.1046 0 16 0H2ZM9 13.1667C6.16735 13.1667 3.76333 11.4206 2.91618 9C3.76333 6.57938 6.16735 4.83333 9 4.83333C11.8326 4.83333 14.2367 6.57938 15.0838 9C14.2367 11.4206 11.8326 13.1667 9 13.1667ZM9 4C12.3211 4 15.1231 6.1121 16 9C15.1231 11.8879 12.3211 14 9 14C5.6789 14 2.87687 11.8879 2 9C2.87687 6.11209 5.6789 4 9 4ZM11.25 9C11.25 10.2426 10.2426 11.25 9 11.25C7.75736 11.25 6.75 10.2426 6.75 9C6.75 7.75736 7.75736 6.75 9 6.75C10.2426 6.75 11.25 7.75736 11.25 9ZM12 9C12 10.6569 10.6569 12 9 12C7.34315 12 6 10.6569 6 9C6 7.34315 7.34315 6 9 6C10.6569 6 12 7.34315 12 9Z" fill="#D3D3D3"/>
</g>
<defs>
<clipPath id="clip0_913_40367">
<rect width="18" height="18" fill="white"/>
</clipPath>
</defs>
</svg>
