<svg width="18" height="18" viewBox="0 0 18 18" fill="none" xmlns="http://www.w3.org/2000/svg">
<path d="M4.09975 4.40028H5.08333C5.23771 4.75331 5.59004 5 6 5C6.40996 5 6.76229 4.75331 6.91667 4.40028H11.0833C11.2377 4.75331 11.59 5 12 5C12.41 5 12.7623 4.75331 12.9167 4.40028H13.8997C14.2863 4.40028 14.5997 4.71372 14.5997 5.10034V6.18182H3.39975V5.10034C3.39975 4.71372 3.71315 4.40028 4.09975 4.40028Z" fill="#717171"/>
<path d="M14.5991 14.8997C14.5991 15.2863 14.2865 15.6003 13.8999 15.6003H4.09975C3.71315 15.6003 3.39975 15.2869 3.39975 14.9003V7.45455H14.5997V9.17293C14.5997 9.20488 14.6021 9.23628 14.6066 9.26696C14.6019 9.29842 14.5994 9.33063 14.5994 9.36342L14.5991 14.8997Z" fill="#717171"/>
<path fill-rule="evenodd" clip-rule="evenodd" d="M2 0C0.895431 0 0 0.89543 0 2V16C0 17.1046 0.89543 18 2 18H16C17.1046 18 18 17.1046 18 16V2C18 0.895431 17.1046 0 16 0H2ZM6 1C5.44772 1 5 1.44772 5 2V3H4.1C2.9402 3 2 3.94017 2 5.10003V14.9C2 16.0598 2.9402 17 4.1 17H13.8999C15.0597 17 15.9993 16.0598 15.9993 14.9L15.9996 9.3635C15.9996 9.33152 15.9973 9.3001 15.9927 9.26939C15.9975 9.23791 16 9.20567 16 9.17285V5.10003C16 3.94017 15.0598 3 13.9 3H13V2C13 1.44772 12.5523 1 12 1C11.4477 1 11 1.44772 11 2V3H7V2C7 1.44772 6.55228 1 6 1Z" fill="#717171"/>
</svg>
