<svg width="18" height="18" viewBox="0 0 18 18" fill="none" xmlns="http://www.w3.org/2000/svg">
<g clip-path="url(#clip0_913_40370)">
<path d="M7 4H6V8H7V4Z" fill="#717171"/>
<path d="M6.5 10C6.22386 10 6 10.2239 6 10.5C6 10.7761 6.22386 11 6.5 11H11.5C11.7761 11 12 10.7761 12 10.5C12 10.2239 11.7761 10 11.5 10H6.5Z" fill="#717171"/>
<path d="M6 12.5C6 12.2239 6.22386 12 6.5 12H11.5C11.7761 12 12 12.2239 12 12.5C12 12.7761 11.7761 13 11.5 13H6.5C6.22386 13 6 12.7761 6 12.5Z" fill="#717171"/>
<path d="M9 5H8V8H9V5Z" fill="#717171"/>
<path d="M10 6H11V8H10V6Z" fill="#717171"/>
<path fill-rule="evenodd" clip-rule="evenodd" d="M2 0C0.895431 0 0 0.89543 0 2V16C0 17.1046 0.89543 18 2 18H16C17.1046 18 18 17.1046 18 16V2C18 0.895431 17.1046 0 16 0H2ZM5 2C4.44772 2 4 2.44772 4 3V15C4 15.5523 4.44772 16 5 16H13C13.5523 16 14 15.5523 14 15V3C14 2.44772 13.5523 2 13 2H5Z" fill="#717171"/>
</g>
<defs>
<clipPath id="clip0_913_40370">
<rect width="18" height="18" fill="white"/>
</clipPath>
</defs>
</svg>
