<svg width="18" height="18" viewBox="0 0 18 18" fill="none" xmlns="http://www.w3.org/2000/svg">
<g clip-path="url(#clip0_913_40366)">
<path fill-rule="evenodd" clip-rule="evenodd" d="M2 0C0.895431 0 0 0.89543 0 2V16C0 17.1046 0.89543 18 2 18H16C17.1046 18 18 17.1046 18 16V2C18 0.895431 17.1046 0 16 0H2ZM9.11338 5.99657L11.8115 2.96373C11.9334 2.82671 12.0006 2.64766 12.0004 2.46435C12.0001 2.20967 11.7934 2.00006 11.5385 2C11.4065 1.99997 11.2808 2.05636 11.1931 2.15493L7.44896 6.36354C7.3816 6.43925 7.3816 6.55334 7.44896 6.62906L11.2056 10.8517C11.2947 10.9518 11.4234 11.0076 11.5575 11.0041C11.8037 10.9976 12.0001 10.7965 12.0004 10.5503L12.0004 10.5308C12.0006 10.3445 11.9323 10.1647 11.8085 10.0254L9.11311 6.99572H15.5008C15.7769 6.99572 16.0008 6.77206 16.0008 6.49615C16.0008 6.22024 15.7769 5.99657 15.5008 5.99657H9.11338ZM6.18925 7.9595L8.88739 10.9923H2.5C2.22386 10.9923 2 11.216 2 11.4919C2 11.7678 2.22386 11.9915 2.5 11.9915H8.88766L6.19231 15.0212C6.06844 15.1604 6.00013 15.3403 6.00036 15.5266L6.00039 15.5461C6.0007 15.7922 6.19706 15.9934 6.44331 15.9998C6.57735 16.0034 6.7061 15.9476 6.79518 15.8475L10.5518 11.6248C10.6192 11.5491 10.6192 11.435 10.5518 11.3593L6.80766 7.1507C6.71997 7.05213 6.59426 6.99574 6.46226 6.99577C6.20737 6.99583 6.00068 7.20545 6.00036 7.46012C6.00013 7.64343 6.06735 7.82249 6.18925 7.9595Z" fill="#D3D3D3"/>
</g>
<defs>
<clipPath id="clip0_913_40366">
<rect width="18" height="18" fill="white"/>
</clipPath>
</defs>
</svg>
