<svg width="18" height="18" viewBox="0 0 18 18" fill="none" xmlns="http://www.w3.org/2000/svg">
<path d="M10.4545 2.45455H6.09091V3.90909H10.4545V2.45455Z" fill="#D3D3D3"/>
<path fill-rule="evenodd" clip-rule="evenodd" d="M2 0C0.895431 0 0 0.89543 0 2V16C0 17.1046 0.89543 18 2 18H16C17.1046 18 18 17.1046 18 16V2C18 0.895431 17.1046 0 16 0H2ZM6.09091 1C5.2876 1 4.63636 1.65119 4.63636 2.45455H3.39999C2.74947 2.45455 2.1594 2.71333 1.72714 3.13361L1.70432 3.15607C1.6903 3.1701 1.6764 3.1843 1.66273 3.19869C1.25209 3.62935 1 4.21254 1 4.85458V14.6C1 15.9255 2.07453 17 3.39999 17L13.1455 16.9998C14.4709 16.9998 15.5455 15.9253 15.5455 14.5999C15.5455 14.3188 15.3176 14.0909 15.0365 14.0909H14.4544C14.1735 14.0909 13.9458 14.3186 13.9458 14.5995C13.9458 15.0414 13.5876 15.3995 13.1457 15.3995L3.39972 15.3997C2.95787 15.3997 2.5997 15.0415 2.5997 14.5996V4.85494C2.5997 4.41309 2.95787 4.05487 3.39972 4.05487H4.63636V4.63636C4.63636 5.038 4.96196 5.36364 5.36364 5.36364H11.1818C11.5835 5.36364 11.9091 5.038 11.9091 4.63636V4.05487H13.1452C13.587 4.05487 13.9452 4.41309 13.9452 4.85494C13.9452 5.13588 14.1729 5.36364 14.4539 5.36364H15.0364C15.3175 5.36364 15.5455 5.13572 15.5455 4.85458C15.5455 3.52903 14.4709 2.45455 13.1455 2.45455H11.9091C11.9091 1.65119 11.2579 1 10.4545 1H6.09091ZM6.09091 6.81818C5.68925 6.81818 5.36364 7.14379 5.36364 7.54545C5.36364 7.94712 5.68925 8.27273 6.09091 8.27273H8.27273C8.67439 8.27273 9 7.94712 9 7.54545C9 7.14379 8.67439 6.81818 8.27273 6.81818H6.09091ZM9.72727 7.54545C9.72727 7.14379 10.0529 6.81818 10.4545 6.81818H16.2727C16.6744 6.81818 17 7.14379 17 7.54545C17 7.94712 16.6744 8.27273 16.2727 8.27273H10.4545C10.0529 8.27273 9.72727 7.94712 9.72727 7.54545ZM5.36364 9.72727C4.96198 9.72727 4.63636 10.0529 4.63636 10.4545C4.63636 10.8562 4.96198 11.1818 5.36364 11.1818H9C9.40166 11.1818 9.72727 10.8562 9.72727 10.4545C9.72727 10.0529 9.40166 9.72727 9 9.72727H5.36364ZM10.4545 10.4545C10.4545 10.0529 10.7802 9.72727 11.1818 9.72727H12.6364C13.038 9.72727 13.3636 10.0529 13.3636 10.4545C13.3636 10.8562 13.038 11.1818 12.6364 11.1818H11.1818C10.7802 11.1818 10.4545 10.8562 10.4545 10.4545ZM9.72727 11.9091C9.32561 11.9091 9 12.2347 9 12.6364C9 13.038 9.32561 13.3636 9.72727 13.3636H15.5455C15.9471 13.3636 16.2727 13.038 16.2727 12.6364C16.2727 12.2347 15.9471 11.9091 15.5455 11.9091H9.72727Z" fill="#D3D3D3"/>
</svg>
