<svg width="16" height="16" viewBox="0 0 16 16" fill="none" xmlns="http://www.w3.org/2000/svg">
<path d="M12.6565 1.62818C13.3058 1.62818 13.8536 1.8578 14.3 2.31703C14.7667 2.77626 15 3.33986 15 4.00783V13.6204C15 14.2883 14.7667 14.8519 14.3 15.3112C13.8536 15.7704 13.3058 16 12.6565 16H3.31304C2.66377 16 2.11594 15.7704 1.66957 15.3112C1.22319 14.8519 1 14.2883 1 13.6204V4.00783C1 3.33986 1.22319 2.77626 1.66957 2.31703C2.11594 1.8578 2.66377 1.62818 3.31304 1.62818H4.89565V0.81409C4.89565 0.584475 4.96667 0.396608 5.1087 0.250489C5.25072 0.0834964 5.43333 0 5.65652 0C5.87971 0 6.06232 0.0834964 6.20435 0.250489C6.36667 0.396608 6.44783 0.584475 6.44783 0.81409V1.62818H9.55217V0.81409C9.55217 0.584475 9.62319 0.396608 9.76522 0.250489C9.90725 0.0834964 10.0899 0 10.313 0C10.5565 0 10.7493 0.0834964 10.8913 0.250489C11.0333 0.396608 11.1043 0.584475 11.1043 0.81409V1.62818H12.6565ZM3.31304 3.22505C2.8058 3.22505 2.55217 3.48598 2.55217 4.00783V6.41879H13.4478V4.00783C13.4478 3.77821 13.3667 3.59035 13.2043 3.44423C13.0623 3.29811 12.8797 3.22505 12.6565 3.22505H11.1043V4.00783C11.1043 4.23744 11.0333 4.43575 10.8913 4.60274C10.7493 4.74886 10.5565 4.82192 10.313 4.82192C10.0899 4.82192 9.90725 4.74886 9.76522 4.60274C9.62319 4.43575 9.55217 4.23744 9.55217 4.00783V3.22505H6.44783V4.00783C6.44783 4.23744 6.36667 4.43575 6.20435 4.60274C6.06232 4.74886 5.87971 4.82192 5.65652 4.82192C5.43333 4.82192 5.25072 4.74886 5.1087 4.60274C4.96667 4.43575 4.89565 4.23744 4.89565 4.00783V3.22505H3.31304ZM12.6565 14.4031C12.8797 14.4031 13.0623 14.3301 13.2043 14.184C13.3667 14.0378 13.4478 13.85 13.4478 13.6204V8.01566H2.55217V13.6204C2.55217 14.1422 2.8058 14.4031 3.31304 14.4031H12.6565Z" fill="#717171"/>
<path d="M9.04696 9.54999C8.81734 9.32037 8.53554 9.20557 8.20156 9.20557C7.86757 9.20557 7.57533 9.32037 7.32484 9.54999C7.09523 9.7796 6.98042 10.0718 6.98042 10.4267C6.98042 10.7607 7.09523 11.0425 7.32484 11.2721C7.57533 11.5017 7.86757 11.6165 8.20156 11.6165C8.53554 11.6165 8.81734 11.5017 9.04696 11.2721C9.27657 11.0425 9.39138 10.7607 9.39138 10.4267C9.39138 10.0718 9.27657 9.7796 9.04696 9.54999Z" fill="#717171"/>
<path d="M12.2407 9.54999C12.0111 9.32037 11.7293 9.20557 11.3953 9.20557C11.0613 9.20557 10.7795 9.32037 10.5499 9.54999C10.3203 9.7796 10.2055 10.0718 10.2055 10.4267C10.2055 10.7607 10.3203 11.0425 10.5499 11.2721C10.7795 11.5017 11.0613 11.6165 11.3953 11.6165C11.7293 11.6165 12.0111 11.5017 12.2407 11.2721C12.4703 11.0425 12.5851 10.7607 12.5851 10.4267C12.5851 10.0718 12.4703 9.7796 12.2407 9.54999Z" fill="#717171"/>
<path d="M5.85322 9.54999C5.6236 9.32037 5.3418 9.20557 5.00782 9.20557C4.65296 9.20557 4.36072 9.32037 4.1311 9.54999C3.90149 9.7796 3.78668 10.0718 3.78668 10.4267C3.78668 10.7607 3.90149 11.0425 4.1311 11.2721C4.36072 11.5017 4.65296 11.6165 5.00782 11.6165C5.3418 11.6165 5.6236 11.5017 5.85322 11.2721C6.08283 11.0425 6.19764 10.7607 6.19764 10.4267C6.19764 10.0718 6.08283 9.7796 5.85322 9.54999Z" fill="#717171"/>
</svg>
