<svg width="19" height="18" viewBox="0 0 19 18" fill="none" xmlns="http://www.w3.org/2000/svg">
<path d="M11.3496 4H5.34961C4.79732 4 4.34961 4.44772 4.34961 5V11H5.34961V5.5C5.34961 5.22386 5.57347 5 5.84961 5H11.3496V4Z" fill="#434343"/>
<path fill-rule="evenodd" clip-rule="evenodd" d="M7.34961 6C6.79732 6 6.34961 6.44772 6.34961 7V13C6.34961 13.5523 6.79732 14 7.34961 14H13.3496C13.9019 14 14.3496 13.5523 14.3496 13V7C14.3496 6.44772 13.9019 6 13.3496 6H7.34961ZM13.3496 7.5C13.3496 7.22386 13.1258 7 12.8496 7H7.84961C7.57347 7 7.34961 7.22386 7.34961 7.5V12.5C7.34961 12.7761 7.57347 13 7.84961 13H12.8496C13.1258 13 13.3496 12.7761 13.3496 12.5V7.5Z" fill="#434343"/>
</svg>
