<svg width="15" height="18" viewBox="0 0 15 18" fill="none" xmlns="http://www.w3.org/2000/svg">
<path d="M14.5866 4.51205L10.1848 0.188839C10.0621 0.0683036 9.89641 0 9.72254 0H1.03345C0.671406 0 0.378906 0.287277 0.378906 0.642857V17.3571C0.378906 17.7127 0.671406 18 1.03345 18H14.1244C14.4864 18 14.7789 17.7127 14.7789 17.3571V4.96808C14.7789 4.79732 14.7094 4.63259 14.5866 4.51205ZM13.2694 5.26339H9.41982V1.48259L13.2694 5.26339ZM13.3062 16.5536H1.85163V1.44643H8.02891V5.78571C8.02891 6.00949 8.11942 6.2241 8.28053 6.38234C8.44164 6.54057 8.66015 6.62946 8.888 6.62946H13.3062V16.5536ZM7.62186 10.3681L6.35777 8.31094C6.31277 8.23862 6.233 8.19442 6.14709 8.19442H5.36163C5.31459 8.19442 5.26959 8.20647 5.23072 8.23259C5.11618 8.3029 5.08141 8.45156 5.15504 8.56607L6.83845 11.1857L5.13254 13.8536C5.10936 13.8902 5.09656 13.9322 5.09546 13.9753C5.09435 14.0183 5.10499 14.0609 5.12626 14.0986C5.14753 14.1363 5.17867 14.1677 5.21646 14.1896C5.25424 14.2115 5.2973 14.2231 5.34118 14.2232H6.04686C6.13277 14.2232 6.2105 14.179 6.2555 14.1087L7.538 12.0696L8.81232 14.1067C8.85732 14.179 8.93709 14.2212 9.02095 14.2212H9.788C9.83504 14.2212 9.88004 14.2071 9.92095 14.183C10.0355 14.1107 10.0682 13.9621 9.99459 13.8496L8.27641 11.2299L10.0212 8.56808C10.0448 8.5316 10.058 8.48956 10.0595 8.44636C10.061 8.40315 10.0506 8.36034 10.0295 8.3224C10.0084 8.28445 9.97736 8.25275 9.93956 8.2306C9.90176 8.20844 9.85861 8.19664 9.81459 8.19643H9.08436C8.99845 8.19643 8.91868 8.24062 8.87368 8.31295L7.62186 10.3681Z" fill="#434343"/>
</svg>
