<svg width="14" height="14" viewBox="0 0 14 14" fill="none" xmlns="http://www.w3.org/2000/svg">
<path fill-rule="evenodd" clip-rule="evenodd" d="M11.2426 11.2426C8.89949 13.5858 5.10051 13.5858 2.75736 11.2426C0.414213 8.89949 0.414213 5.10051 2.75736 2.75736C5.10051 0.414213 8.89949 0.414213 11.2426 2.75736C13.5858 5.10051 13.5858 8.89949 11.2426 11.2426ZM3.16424 10.0644L10.0644 3.16424C8.1369 1.62049 5.3155 1.742 3.52875 3.52875C1.742 5.3155 1.62049 8.1369 3.16424 10.0644ZM10.4713 10.4713C8.6845 12.258 5.8631 12.3795 3.93563 10.8358L10.8358 3.93563C12.3795 5.8631 12.258 8.6845 10.4713 10.4713Z" fill="#434343"/>
</svg>
