<svg width="14" height="14" viewBox="0 0 14 14" fill="none" xmlns="http://www.w3.org/2000/svg">
<path d="M9 1H5V2.09091H9V1Z" fill="#434343"/>
<path d="M6.26867 5.36364V10.8182H5.26867V5.36364H6.26867Z" fill="#434343"/>
<path d="M8.69295 10.8182V5.36364H7.69295V10.8182H8.69295Z" fill="#434343"/>
<path fill-rule="evenodd" clip-rule="evenodd" d="M2 3.18182H12V4.27273H11V12C11 12.5523 10.5523 13 10 13H4C3.44772 13 3 12.5523 3 12V4.27273H2V3.18182ZM9.5 11.9091C9.77614 11.9091 10 11.6852 10 11.4091V4.27273H4V11.4091C4 11.6852 4.22386 11.9091 4.5 11.9091H9.5Z" fill="#434343"/>
</svg>
