<svg width="18" height="18" viewBox="0 0 18 18" fill="none" xmlns="http://www.w3.org/2000/svg">
<path d="M15.4 0H17V18H15.4V0ZM10.6 1.5V16.5H7.4V1.5H10.6ZM10.6 0H7.4C6.97565 0 6.56869 0.158035 6.26863 0.43934C5.96857 0.720644 5.8 1.10218 5.8 1.5V16.5C5.8 16.8978 5.96857 17.2794 6.26863 17.5607C6.56869 17.842 6.97565 18 7.4 18H10.6C11.0243 18 11.4313 17.842 11.7314 17.5607C12.0314 17.2794 12.2 16.8978 12.2 16.5V1.5C12.2 1.10218 12.0314 0.720644 11.7314 0.43934C11.4313 0.158035 11.0243 0 10.6 0ZM1 0H2.6V18H1V0Z" fill="#D3D3D3"/>
</svg>
