<svg width="14" height="14" viewBox="0 0 14 14" fill="none" xmlns="http://www.w3.org/2000/svg">
<path d="M9.4 1H2C1.44772 1 1 1.44772 1 2V9.4H2.2V2.7C2.2 2.42386 2.42386 2.2 2.7 2.2H9.4V1Z" fill="#434343"/>
<path fill-rule="evenodd" clip-rule="evenodd" d="M4.4 3.4C3.84772 3.4 3.4 3.84772 3.4 4.4V12C3.4 12.5523 3.84772 13 4.4 13H12C12.5523 13 13 12.5523 13 12V4.4C13 3.84772 12.5523 3.4 12 3.4H4.4ZM11.8 5.1C11.8 4.82386 11.5761 4.6 11.3 4.6H5.1C4.82386 4.6 4.6 4.82386 4.6 5.1V11.3C4.6 11.5761 4.82386 11.8 5.1 11.8H11.3C11.5761 11.8 11.8 11.5761 11.8 11.3V5.1Z" fill="#434343"/>
</svg>
