<svg width="14" height="14" viewBox="0 0 14 14" fill="none" xmlns="http://www.w3.org/2000/svg">
<path fill-rule="evenodd" clip-rule="evenodd" d="M11.0764 3.90947L11.0816 3.90425L8.19482 1.00534C8.19189 1.00239 8.18713 1.00239 8.1842 1.00534V1.00534V1.00534C8.18141 1.00247 8.17681 1.00244 8.17398 1.00527L2.05713 7.14357V10.0574H4.95873L11.0764 3.91848C11.0788 3.91599 11.0788 3.91196 11.0764 3.90947V3.90947ZM4.55837 9.08614H3.02433V7.5461L6.69573 3.86193L8.22942 5.40221L4.55837 9.08614ZM9.71788 3.90852L8.1842 2.36824L7.37993 3.17543L8.91361 4.71559L9.71788 3.90852Z" fill="#434343"/>
<path d="M12 13V12.0287H2V13H12Z" fill="#434343"/>
</svg>
