<svg width="57" height="55" viewBox="0 0 57 55" fill="none" xmlns="http://www.w3.org/2000/svg">
<path d="M28.6382 37.8458C29.2683 37.8458 29.7791 37.3256 29.7791 36.6839C29.7791 36.0422 29.2683 35.522 28.6382 35.522C28.0081 35.522 27.4972 36.0422 27.4972 36.6839C27.4972 37.3256 28.0081 37.8458 28.6382 37.8458Z" fill="#B3B3B3"/>
<path fill-rule="evenodd" clip-rule="evenodd" d="M34.6276 0.79565C34.9293 0.488485 35.3901 0.412279 35.7717 0.606583L41.7186 3.63462C42.2082 3.88394 42.4066 4.4902 42.1618 4.98883C41.9171 5.48741 41.3217 5.68947 40.8321 5.44022L35.5241 2.73752L30.4162 7.93925L48.5419 18.4203L54.0003 12.8617L47.747 9.46534C47.264 9.20302 47.0812 8.59159 47.3389 8.09973C47.5964 7.60787 48.1968 7.42182 48.6798 7.68414L56.1134 11.7215C56.3905 11.872 56.5812 12.1473 56.6274 12.4636C56.6736 12.7798 56.5699 13.0997 56.3478 13.3258L50.1371 19.6506L56.3215 25.4986C56.5535 25.7181 56.6686 26.0374 56.6312 26.3576C56.5937 26.678 56.4081 26.9608 56.1319 27.1185L50.1957 30.5098V41.8832C50.1957 42.2482 50.0021 42.5849 49.6895 42.7635L29.3895 54.3603C29.2515 54.4433 29.0919 54.4933 28.9214 54.4994C28.9024 54.5001 28.8834 54.5002 28.8645 54.4997L28.8507 54.4993C28.8319 54.4987 28.8131 54.4975 28.7944 54.4957C28.756 54.4921 28.7182 54.4863 28.6812 54.4784C28.6315 54.4677 28.5831 54.4533 28.5365 54.4354C28.4913 54.418 28.4477 54.3974 28.4059 54.3738L8.09873 43.2772C7.77702 43.1014 7.57624 42.7597 7.57624 42.3878V30.6334L1.16074 27.1277C0.878717 26.9736 0.687129 26.6904 0.646295 26.3671C0.605461 26.0439 0.720401 25.7205 0.95494 25.4987L7.13928 19.6506L0.928504 13.3259C0.70679 13.1001 0.603041 12.7808 0.648836 12.4649C0.69457 12.149 0.884403 11.8737 1.16074 11.7228L21.4793 0.620013C21.8526 0.415975 22.3119 0.476164 22.6224 0.769714L28.8605 6.66863L34.6276 0.79565ZM29.8772 51.767L29.8771 40.1622C29.8771 39.6047 29.4333 39.1528 28.886 39.1528C28.3385 39.1528 27.8948 39.6048 27.8948 40.1622L27.8949 51.8036L9.55854 41.784V31.7166L21.4793 38.2305C21.8645 38.441 22.3397 38.3697 22.6487 38.0549L28.3904 32.2078L34.6276 38.5594C34.9416 38.8792 35.4261 38.9473 35.8134 38.726L48.2134 31.6422V41.2921L29.8772 51.767ZM48.3587 29.2445C48.5328 28.9551 48.8463 28.7619 49.204 28.7617L53.976 26.0356L48.5563 20.9106L30.1158 31.11L35.4984 36.5914L48.3587 29.2445ZM21.7925 2.7398L27.1253 7.78258L8.73435 18.4202L3.27359 12.8592L21.7925 2.7398ZM3.32023 26.0168L8.72001 20.9107L26.8374 30.9344L21.7678 36.0972L3.32023 26.0168ZM28.6352 9.23087L10.6081 19.658L28.6352 29.6317L46.6677 19.658L28.6352 9.23087Z" fill="#B3B3B3"/>
<path d="M46.0394 6.80891C46.0394 7.45059 45.5286 7.97079 44.8985 7.97079C44.2684 7.97079 43.7576 7.45059 43.7576 6.80891C43.7576 6.16722 44.2684 5.64703 44.8985 5.64703C45.5286 5.64703 46.0394 6.16722 46.0394 6.80891Z" fill="#B3B3B3"/>
</svg>
