<svg width="18" height="18" viewBox="0 0 18 18" fill="none" xmlns="http://www.w3.org/2000/svg">
<path d="M6.52881 12.2147H14.9952L13.3367 13.8797L14.2431 14.7861L17.4574 11.5718L14.2431 8.35754L13.3367 9.26397L14.9952 10.929H6.52881V12.2147Z" fill="#D3D3D3"/>
<path d="M13.0859 7.71429V5.14287C13.0864 5.05826 13.0702 4.97439 13.0382 4.89607C13.0062 4.81774 12.959 4.74651 12.8995 4.68644L8.39947 0.186439C8.3394 0.126858 8.26816 0.0797207 8.18984 0.0477292C8.11151 0.0157377 8.02765 -0.0004784 7.94304 1.07449e-05H1.51447C1.17348 1.07449e-05 0.846455 0.135469 0.605336 0.376587C0.364218 0.617706 0.22876 0.944732 0.22876 1.28572V16.7143C0.22876 17.0553 0.364218 17.3823 0.605336 17.6234C0.846455 17.8645 1.17348 18 1.51447 18H11.8002C12.1412 18 12.4682 17.8645 12.7093 17.6234C12.9504 17.3823 13.0859 17.0553 13.0859 16.7143V15.4286H11.8002V16.7143H1.51447V1.28572H6.65733V5.14287C6.65733 5.48386 6.79279 5.81088 7.0339 6.052C7.27502 6.29312 7.60205 6.42858 7.94304 6.42858H11.8002V7.71429H13.0859ZM7.94304 5.14287V1.5493L11.5366 5.14287H7.94304Z" fill="#D3D3D3"/>
</svg>
