<svg width="19" height="18" viewBox="0 0 19 18" fill="none" xmlns="http://www.w3.org/2000/svg">
<path d="M11.3333 18H8.66667C8.31305 18 7.97391 17.842 7.72386 17.5607C7.47381 17.2794 7.33333 16.8978 7.33333 16.5V10.8075L2.39333 5.25C2.14294 4.96999 2.00149 4.58968 2 4.1925V1.5C2 1.10218 2.14048 0.720644 2.39052 0.43934C2.64057 0.158035 2.97971 0 3.33333 0H16.6667C17.0203 0 17.3594 0.158035 17.6095 0.43934C17.8595 0.720644 18 1.10218 18 1.5V4.1925C17.9985 4.58968 17.8571 4.96999 17.6067 5.25L12.6667 10.8075V16.5C12.6667 16.8978 12.5262 17.2794 12.2761 17.5607C12.0261 17.842 11.687 18 11.3333 18ZM3.33333 1.5V4.1925L8.66667 10.1925V16.5H11.3333V10.1925L16.6667 4.1925V1.5H3.33333Z" fill="#951447"/>
</svg>
