<svg width="14" height="14" viewBox="0 0 14 14" fill="none" xmlns="http://www.w3.org/2000/svg">
<path fill-rule="evenodd" clip-rule="evenodd" d="M1.54545 1C1.24421 1 1 1.24421 1 1.54545V12.4545C1 12.7558 1.24421 13 1.54545 13H11.3636C11.6649 13 11.9091 12.7558 11.9091 12.4545V10.8182H10.8182V11.9091H4.27273V2.09091H7.54545V4.81818C7.54545 5.11943 7.78966 5.36364 8.09091 5.36364H10.8182V6.45455H11.9091V4.7246C11.9091 4.43527 11.7942 4.15779 11.5896 3.95321L8.95588 1.31952C8.7513 1.11493 8.47382 1 8.18449 1H1.54545ZM3.18182 2.09091V11.9091H2.09091V2.09091H3.18182ZM8.63636 2.63636L10.2727 4.27273H8.63636V2.63636Z" fill="#434343"/>
<path d="M9.18182 6.45455C8.88057 6.45455 8.63636 6.69875 8.63636 7C8.63636 7.30125 8.88057 7.54545 9.18182 7.54545H10.2727C10.574 7.54545 10.8182 7.30125 10.8182 7C10.8182 6.69875 10.574 6.45455 10.2727 6.45455H9.18182Z" fill="#434343"/>
<path d="M5.90909 7.54545C5.60785 7.54545 5.36364 7.78966 5.36364 8.09091C5.36364 8.39216 5.60785 8.63636 5.90909 8.63636H8.09091C8.39216 8.63636 8.63636 8.39216 8.63636 8.09091C8.63636 7.78966 8.39216 7.54545 8.09091 7.54545H5.90909Z" fill="#434343"/>
<path d="M8.63636 9.18182C8.63636 8.88057 8.88057 8.63636 9.18182 8.63636H12.4545C12.7558 8.63636 13 8.88057 13 9.18182C13 9.48306 12.7558 9.72727 12.4545 9.72727H9.18182C8.88057 9.72727 8.63636 9.48306 8.63636 9.18182Z" fill="#434343"/>
</svg>
