<svg width="24" height="24" viewBox="0 0 24 24" fill="none" xmlns="http://www.w3.org/2000/svg">
<path d="M14 4C14 5.10458 13.1045 6 12 6C10.8955 6 10 5.10458 10 4C10 2.89542 10.8955 2 12 2C13.1045 2 14 2.89542 14 4Z" fill="#9A9898"/>
<path d="M14 20C14 21.1046 13.1045 22 12 22C10.8955 22 10 21.1046 10 20C10 18.8954 10.8955 18 12 18C13.1045 18 14 18.8954 14 20Z" fill="#9A9898"/>
<path d="M12 14C13.1045 14 14 13.1046 14 12C14 10.8954 13.1045 10 12 10C10.8955 10 10 10.8954 10 12C10 13.1046 10.8955 14 12 14Z" fill="#9A9898"/>
</svg>
