<svg width="15" height="18" viewBox="0 0 15 18" fill="none" xmlns="http://www.w3.org/2000/svg">
<path d="M7.70915 10.2536L7.71518 10.2254C7.8317 9.74531 7.97835 9.14665 7.86384 8.60424C7.7875 8.17634 7.4721 8.0096 7.2029 7.99754C6.88549 7.98348 6.60223 8.16429 6.53192 8.42745C6.39933 8.9096 6.51786 9.56853 6.73482 10.4083C6.46161 11.0592 6.02567 12.0054 5.70625 12.5679C5.11161 12.8752 4.31406 13.3493 4.19554 13.948C4.17143 14.0585 4.19955 14.1991 4.26585 14.3257C4.34018 14.4663 4.4587 14.5748 4.59732 14.627C4.65759 14.6491 4.72991 14.6672 4.81429 14.6672C5.16786 14.6672 5.7404 14.3819 6.50379 13.0721C6.62031 13.0339 6.74085 12.9937 6.85737 12.9536C7.40379 12.7687 7.97031 12.5759 8.48259 12.4895C9.04911 12.7929 9.69397 12.9877 10.1319 12.9877C10.5658 12.9877 10.7366 12.7306 10.8009 12.5759C10.9134 12.3047 10.8592 11.9632 10.6763 11.7804C10.4112 11.5192 9.76629 11.4509 8.76183 11.5754C8.26763 11.2741 7.9442 10.8643 7.70915 10.2536ZM5.50536 13.3051C5.22612 13.7109 5.01518 13.9138 4.90067 14.0022C5.03527 13.7551 5.29844 13.494 5.50536 13.3051ZM7.26518 8.57411C7.36964 8.7529 7.35558 9.2933 7.27522 9.56652C7.17679 9.16674 7.16272 8.60022 7.22098 8.53393C7.23705 8.53594 7.25112 8.54799 7.26518 8.57411ZM7.23304 10.9949C7.44799 11.3665 7.7192 11.6859 8.01853 11.923C7.5846 12.0214 7.18884 12.1842 6.83527 12.3288C6.75089 12.3629 6.66853 12.3971 6.58817 12.4292C6.85536 11.9451 7.07835 11.3967 7.23304 10.9949ZM10.3589 12.3107C10.3609 12.3147 10.3629 12.3208 10.3509 12.3288H10.3469L10.3429 12.3348C10.3268 12.3449 10.1621 12.4413 9.4529 12.1621C10.2685 12.1239 10.3569 12.3087 10.3589 12.3107ZM14.204 4.51205L9.8808 0.188839C9.76027 0.0683036 9.59754 0 9.42679 0H0.892857C0.537277 0 0.25 0.287277 0.25 0.642857V17.3571C0.25 17.7127 0.537277 18 0.892857 18H13.75C14.1056 18 14.3929 17.7127 14.3929 17.3571V4.96808C14.3929 4.79732 14.3246 4.63259 14.204 4.51205ZM12.9103 5.26339H9.12946V1.48259L12.9103 5.26339ZM12.9464 16.5536H1.69643V1.44643H7.76339V5.78571C7.76339 6.00949 7.85229 6.2241 8.01052 6.38234C8.16876 6.54057 8.38337 6.62946 8.60714 6.62946H12.9464V16.5536Z" fill="#434343"/>
</svg>
