<svg width="14" height="14" viewBox="0 0 14 14" fill="none" xmlns="http://www.w3.org/2000/svg">
<path d="M9.77778 3.18182H4.22222V4.27273H9.77778V3.18182Z" fill="#434343"/>
<path d="M9.77778 5.36364H4.22222V6.45455H9.77778V5.36364Z" fill="#434343"/>
<path fill-rule="evenodd" clip-rule="evenodd" d="M3.11111 1C2.49746 1 2 1.48842 2 2.09091V11.9091C2 12.5116 2.49746 13 3.11111 13H10.8889C11.5025 13 12 12.5116 12 11.9091V2.09091C12 1.48842 11.5025 1 10.8889 1H3.11111ZM10.8889 2.09091H3.11111V8.09091H6.20028C7.34964 8.09091 8.3803 8.7859 8.7929 9.83915L9.60378 11.9091H10.8889V2.09091ZM3.11111 11.9091L3.11111 9.18182H6.20028C6.8899 9.18182 7.50829 9.59881 7.75585 10.2308L8.41332 11.9091H3.11111Z" fill="#434343"/>
</svg>
