<svg width="19" height="18" viewBox="0 0 19 18" fill="none" xmlns="http://www.w3.org/2000/svg">
<rect x="5.56708" y="4" width="8.16667" height="10" rx="0.5" stroke="#434343"/>
<rect x="6.90039" y="5.33334" width="5.5" height="0.916667" fill="#434343"/>
<rect x="6.90039" y="7.16666" width="5.5" height="0.916667" fill="#434343"/>
<path d="M10.6026 11.7852C10.3375 12.0503 10.0192 12.1838 9.65045 12.1838C9.28165 12.1838 8.96341 12.0503 8.69829 11.7852C8.43317 11.5201 8.29973 11.2019 8.29973 10.8331C8.29973 10.4643 8.43317 10.146 8.69829 9.88089C8.83511 9.74407 8.99441 9.64132 9.17577 9.57288C9.31703 9.51958 9.46235 9.49181 9.61148 9.48959L9.50049 9.3786C9.4591 9.33721 9.43714 9.28643 9.43714 9.22853C9.43714 9.17064 9.45909 9.11991 9.50053 9.07865M10.6026 11.7852L9.80049 9.07877L9.76505 9.11404L9.8004 9.07869L9.80044 9.07872C9.75918 9.03729 9.70845 9.01534 9.65056 9.01534C9.59269 9.01534 9.54192 9.03728 9.50053 9.07865M10.6026 11.7852C10.6026 11.7852 10.6026 11.7852 10.6026 11.7852C10.7928 11.5952 10.9155 11.3703 10.9701 11.1113C11.0245 10.8528 11.0052 10.6009 10.912 10.3569C10.9119 10.3569 10.9119 10.3568 10.9119 10.3568L10.8652 10.3746C10.8443 10.3192 10.8075 10.2872 10.755 10.2786C10.7024 10.2701 10.6542 10.2877 10.6102 10.3317L10.575 10.2962C10.5441 10.3268 10.5248 10.3656 10.5155 10.4101C10.5061 10.4544 10.5081 10.4977 10.5233 10.5383L10.5701 10.5208C10.6312 10.6925 10.6408 10.8692 10.5988 11.0507C10.5567 11.2322 10.4698 11.3889 10.3381 11.5207C10.1471 11.7117 9.91785 11.8072 9.65045 11.8072C9.38305 11.8072 9.15385 11.7117 8.96284 11.5207C8.77184 11.3297 8.67634 11.1005 8.67634 10.8331C8.67634 10.5657 8.77184 10.3364 8.96284 10.1454C9.08692 10.0214 9.23254 9.93688 9.3997 9.89195C9.54799 9.8521 9.69664 9.84796 9.84565 9.87954L10.6026 11.7852ZM9.50053 9.07865C9.50052 9.07866 9.50051 9.07867 9.50049 9.07869L9.53585 9.11404L9.50058 9.0786C9.50056 9.07862 9.50055 9.07863 9.50053 9.07865ZM9.7364 9.5438L9.68308 9.49047L9.66171 9.53982C9.68649 9.54042 9.71139 9.54174 9.7364 9.5438ZM9.80299 9.92219L9.50058 10.2246C9.50056 10.2246 9.50054 10.2246 9.50052 10.2247L9.50049 10.2247L9.53585 10.26C9.50338 10.2924 9.48714 10.3305 9.48714 10.3745C9.48714 10.4185 9.50338 10.4568 9.53585 10.4893L9.50041 10.5245C9.50044 10.5246 9.50046 10.5246 9.50049 10.5246C9.54175 10.566 9.59247 10.588 9.65033 10.588C9.70823 10.588 9.75901 10.566 9.8004 10.5246L10.3733 9.95169C10.3733 9.95168 10.3733 9.95167 10.3733 9.95166L9.80299 9.92219Z" fill="#434343" stroke="#434343" stroke-width="0.1"/>
</svg>
