<svg width="19" height="18" viewBox="0 0 19 18" fill="none" xmlns="http://www.w3.org/2000/svg">
<path d="M8.85439 13.296H6.80869C6.67305 13.296 6.54297 13.2378 6.44706 13.1342C6.35115 13.0306 6.29726 12.8901 6.29726 12.7435V5.00829C6.29726 4.86175 6.35115 4.72122 6.44706 4.6176C6.54297 4.51398 6.67305 4.45577 6.80869 4.45577H9.36582V6.11332C9.36582 6.55293 9.52746 6.97454 9.8152 7.28539C10.1029 7.59624 10.4932 7.77087 10.9001 7.77087H12.4344V8.32339C12.4344 8.46993 12.4883 8.61046 12.5842 8.71408C12.6801 8.8177 12.8102 8.87591 12.9458 8.87591C13.0814 8.87591 13.2115 8.8177 13.3074 8.71408C13.4033 8.61046 13.4572 8.46993 13.4572 8.32339V7.21836C13.4572 7.21836 13.4572 7.21836 13.4572 7.1852C13.4519 7.13445 13.4416 7.08444 13.4265 7.03603V6.9863C13.4019 6.92949 13.3691 6.87727 13.3294 6.83159L10.2608 3.51649C10.2185 3.47352 10.1702 3.43808 10.1176 3.41152C10.1023 3.40917 10.0868 3.40917 10.0716 3.41152L9.90793 3.35074H6.80869C6.40177 3.35074 6.01153 3.52537 5.72379 3.83622C5.43606 4.14707 5.27441 4.56868 5.27441 5.00829V12.7435C5.27441 13.1831 5.43606 13.6047 5.72379 13.9156C6.01153 14.2264 6.40177 14.4011 6.80869 14.4011H8.85439C8.99003 14.4011 9.12011 14.3429 9.21602 14.2392C9.31193 14.1356 9.36582 13.9951 9.36582 13.8486C9.36582 13.702 9.31193 13.5615 9.21602 13.4579C9.12011 13.3543 8.99003 13.296 8.85439 13.296ZM10.3887 5.23482L11.7133 6.66584H10.9001C10.7645 6.66584 10.6344 6.60763 10.5385 6.50401C10.4425 6.40039 10.3887 6.25986 10.3887 6.11332V5.23482ZM7.83154 9.98094H10.9001C11.0357 9.98094 11.1658 9.92273 11.2617 9.81911C11.3576 9.7155 11.4115 9.57496 11.4115 9.42842C11.4115 9.28189 11.3576 9.14135 11.2617 9.03773C11.1658 8.93412 11.0357 8.87591 10.9001 8.87591H7.83154C7.6959 8.87591 7.56582 8.93412 7.46991 9.03773C7.374 9.14135 7.32012 9.28189 7.32012 9.42842C7.32012 9.57496 7.374 9.7155 7.46991 9.81911C7.56582 9.92273 7.6959 9.98094 7.83154 9.98094ZM7.83154 7.77087H8.34297C8.4786 7.77087 8.60869 7.71266 8.7046 7.60904C8.80051 7.50543 8.85439 7.36489 8.85439 7.21836C8.85439 7.07182 8.80051 6.93128 8.7046 6.82767C8.60869 6.72405 8.4786 6.66584 8.34297 6.66584H7.83154C7.6959 6.66584 7.56582 6.72405 7.46991 6.82767C7.374 6.93128 7.32012 7.07182 7.32012 7.21836C7.32012 7.36489 7.374 7.50543 7.46991 7.60904C7.56582 7.71266 7.6959 7.77087 7.83154 7.77087ZM8.85439 11.086H7.83154C7.6959 11.086 7.56582 11.1442 7.46991 11.2478C7.374 11.3514 7.32012 11.492 7.32012 11.6385C7.32012 11.785 7.374 11.9256 7.46991 12.0292C7.56582 12.1328 7.6959 12.191 7.83154 12.191H8.85439C8.99003 12.191 9.12011 12.1328 9.21602 12.0292C9.31193 11.9256 9.36582 11.785 9.36582 11.6385C9.36582 11.492 9.31193 11.3514 9.21602 11.2478C9.12011 11.1442 8.99003 11.086 8.85439 11.086Z" fill="#434343"/>
<path d="M13.1263 14.0633C12.6926 14.4204 12.1968 14.5754 11.6415 14.5273C11.0862 14.4793 10.6244 14.2413 10.2585 13.815C9.89265 13.3888 9.73231 12.9018 9.77949 12.3569C9.82667 11.8119 10.0683 11.3598 10.502 11.0027C10.7257 10.8186 10.9787 10.6878 11.2606 10.6105C11.5001 10.5448 11.7429 10.5246 11.9887 10.5498L11.7942 10.3233C11.7406 10.2609 11.7159 10.1884 11.7228 10.1085C11.7298 10.0285 11.7665 9.96148 11.8301 9.90942M13.1263 14.0633L13.2097 12.2006C13.2782 12.4558 13.2703 12.7112 13.1856 12.968C13.101 13.2248 12.9536 13.4395 12.7427 13.6132C12.4366 13.8652 12.0874 13.9737 11.6924 13.9395C11.2974 13.9053 10.9721 13.7384 10.7138 13.4376C10.4557 13.1367 10.3441 12.7947 10.3775 12.4086C10.4109 12.0226 10.5796 11.7048 10.8857 11.4529C11.0844 11.2892 11.3095 11.1859 11.5619 11.1423C11.7848 11.1038 12.0036 11.1165 12.2187 11.1805L11.6818 11.6226L11.7135 11.6613L11.6817 11.6227L11.6817 11.6226C11.6182 11.6747 11.5814 11.7417 11.5745 11.8217C11.5676 11.9016 11.5923 11.9741 11.6459 12.0365L11.6838 12.0039L11.6458 12.0364C11.6991 12.0988 11.7672 12.1347 11.8479 12.1417C11.9285 12.1487 12.0018 12.1251 12.0653 12.0728L13.0138 11.292L12.9821 11.2533L13.0139 11.2919L13.0138 11.2919C13.0774 11.2399 13.1141 11.1728 13.1211 11.0929C13.128 11.0129 13.1033 10.9405 13.0497 10.8781L12.2496 9.94586L12.2115 9.97834L12.2495 9.94577L12.2495 9.94582C12.1962 9.88339 12.1281 9.84757 12.0475 9.84059C11.9668 9.8336 11.8935 9.85718 11.8301 9.90942M13.1263 14.0633C13.4373 13.8075 13.651 13.4915 13.7663 13.1161C13.8815 12.7412 13.8846 12.3668 13.7752 11.9942C13.746 11.8934 13.6818 11.8261 13.5835 11.8016C13.4865 11.7774 13.3947 11.8035 13.3119 11.8717L13.3437 11.9103M13.1263 14.0633L13.3437 11.9103M11.8301 9.90942C11.83 9.90943 11.83 9.90944 11.83 9.90945L11.8618 9.94806L11.8301 9.90938C11.8301 9.90939 11.8301 9.9094 11.8301 9.90942ZM13.3437 11.9103C13.4164 11.8504 13.4923 11.8304 13.5714 11.8501C13.6505 11.8698 13.7024 11.9225 13.7272 12.0082L13.3437 11.9103ZM12.1122 10.617L12.0622 10.5587L12.1122 10.617Z" fill="#434343" stroke="#434343" stroke-width="0.1"/>
</svg>
