<svg width="14" height="14" viewBox="0 0 14 14" fill="none" xmlns="http://www.w3.org/2000/svg">
<path fill-rule="evenodd" clip-rule="evenodd" d="M1 1.54545C1 1.24423 1.24423 1 1.54545 1H6.00271C6.29195 1 6.56947 1.11506 6.77401 1.3196L9.4078 3.95313C9.61235 4.15767 9.72727 4.43519 9.72727 4.7247V6.45455H8.63636V5.36364H5.90909C5.60787 5.36364 5.36364 5.11941 5.36364 4.81818V2.09091H2.09091V11.9091H8.63636V10.8182H9.72727V12.4545C9.72727 12.7558 9.48304 13 9.18182 13H1.54545C1.24423 13 1 12.7558 1 12.4545V1.54545ZM8.09091 4.27273L6.45455 2.63636V4.27273H8.09091Z" fill="#434343"/>
<path d="M9.72727 7C9.72727 6.69878 9.9715 6.45455 10.2727 6.45455H11.3636C11.6649 6.45455 11.9091 6.69878 11.9091 7C11.9091 7.30123 11.6649 7.54545 11.3636 7.54545H10.2727C9.9715 7.54545 9.72727 7.30123 9.72727 7Z" fill="#434343"/>
<path d="M5.36364 8.09091C5.36364 7.78968 5.60787 7.54545 5.90909 7.54545H8.09091C8.39213 7.54545 8.63636 7.78968 8.63636 8.09091C8.63636 8.39213 8.39213 8.63636 8.09091 8.63636H5.90909C5.60787 8.63636 5.36364 8.39213 5.36364 8.09091Z" fill="#434343"/>
<path d="M8.63636 9.18182C8.63636 8.88059 8.88059 8.63636 9.18182 8.63636H12.4545C12.7558 8.63636 13 8.88059 13 9.18182C13 9.48304 12.7558 9.72727 12.4545 9.72727H9.18182C8.88059 9.72727 8.63636 9.48304 8.63636 9.18182Z" fill="#434343"/>
</svg>
