<svg width="349" height="57" viewBox="0 0 349 57" fill="none" xmlns="http://www.w3.org/2000/svg">
<path fill-rule="evenodd" clip-rule="evenodd" d="M41.1736 0.952266C39.4663 2.43205 41.6741 5.77596 45.7117 7.82541C49.1363 9.56352 49.4669 10.59 46.4413 10.0893C39.9785 9.01894 38.7044 9.00012 38.7044 9.97409C38.7044 10.4959 39.758 11.4613 41.0459 12.1194C42.6611 12.9445 43.2642 13.594 42.9903 14.2127C42.05 16.334 41.9078 20.0275 42.6473 23.1119C43.2846 25.7716 43.2741 26.7045 42.5946 27.8045C41.4462 29.6629 34.1216 32.6076 29.4637 33.0832C27.3955 33.2948 24.9987 33.8627 24.1381 34.3463C22.9161 35.0317 21.7052 35.1298 18.6216 34.7928C12.5461 34.1279 10.9026 34.1684 11.2134 34.9759C11.3721 35.3882 12.8503 35.7468 14.7256 35.8278C20.0867 36.0599 21.931 36.7185 21.8052 38.3557C21.5629 41.5171 19.7614 43.9418 16.8399 45.0395C15.2846 45.624 13.3086 46.7611 12.448 47.5668C11.588 48.372 10.0361 49.1926 8.99966 49.3899C7.96259 49.5872 6.55023 50.3702 5.85951 51.1303C5.16945 51.8904 4.15805 52.512 3.61219 52.512C2.57908 52.512 -0.462961 56.4182 0.15401 56.9525C0.347595 57.1201 1.0495 56.831 1.71454 56.3104C2.37892 55.7892 3.44561 55.3632 4.08431 55.3632C4.72367 55.3632 5.40187 54.85 5.59085 54.2227C5.78048 53.5955 6.37704 53.0822 6.91631 53.0822C7.45559 53.0822 8.45906 52.463 9.14649 51.7068C11.4465 49.1738 16.6983 47.3798 21.8105 47.3798C26.0088 47.3798 26.6113 47.2236 29.0891 45.4917C33.2531 42.5818 35.2528 42.084 40.9274 42.5447C47.3526 43.0659 51.5206 42.2043 54.8886 39.6593C57.1609 37.9411 57.9043 37.7085 61.0918 37.7153L64.7133 37.7239L63.0672 38.8204C62.1618 39.4238 60.6336 40.4417 59.6709 41.0826C58.7082 41.7236 57.5046 42.2476 56.9956 42.2476C56.4866 42.2476 55.2191 43.0174 54.1781 43.9583L52.2857 45.6691H54.1155C55.1223 45.6691 56.6993 45.1559 57.6198 44.5286C58.541 43.9013 59.7828 43.3881 60.3801 43.3881C61.9096 43.3881 68.5982 37.392 68.1636 36.4106C67.7837 35.5535 61.8563 33.694 59.5037 33.694C58.2513 33.694 57.9741 33.2241 57.3433 30.0336C56.8593 27.5895 55.9217 25.4956 54.5218 23.7329C52.8309 21.6042 52.578 20.9325 53.2174 20.2653C54.2768 19.159 54.9656 19.2223 56.2739 20.5458C57.1056 21.387 57.6587 21.5193 58.5719 21.0956C59.2337 20.7893 59.7749 20.1472 59.7749 19.6694C59.7749 18.7108 56.1574 14.4534 54.3427 13.2775C53.7093 12.8664 53.1904 12.0412 53.1904 11.4436C53.1904 9.24931 45.3548 0.942572 44.2164 1.92909C44.0241 2.0956 44.375 2.90364 44.9966 3.72422C46.3162 5.4686 45.9435 6.09587 44.0972 5.23993C43.3795 4.90691 42.5393 3.70997 42.2298 2.57917C41.9203 1.44895 41.4456 0.716755 41.1736 0.952266Z" fill="#760071"/>
<path d="M92.2227 55.9818V10.7598H107.491C113.65 10.7598 118.524 11.6891 122.111 13.5476C125.699 15.3846 128.552 18.0969 130.669 21.6844C132.787 25.2719 133.846 29.1836 133.846 33.4194C133.846 36.445 133.263 39.341 132.096 42.1072C130.929 44.8735 129.265 47.3048 127.104 49.4011C124.899 51.5623 122.338 53.1939 119.421 54.2961C117.713 54.9661 116.147 55.4199 114.72 55.6576C113.294 55.8737 110.571 55.9818 106.551 55.9818H92.2227ZM106.81 16.53H98.7061V50.2115H107.005C110.247 50.2115 112.764 49.9954 114.558 49.5632C116.352 49.1093 117.843 48.5475 119.032 47.8775C120.242 47.1859 121.344 46.3431 122.338 45.3489C125.537 42.1072 127.136 38.0119 127.136 33.0628C127.136 28.2002 125.494 24.2345 122.209 21.1657C120.998 20.0203 119.604 19.0802 118.027 18.3454C116.471 17.6106 114.99 17.1243 113.586 16.8866C112.181 16.6489 109.922 16.53 106.81 16.53Z" fill="#C93D01"/>
<path d="M159.877 38.1199V50.795C159.877 51.8108 160.223 52.3187 160.915 52.3187C161.628 52.3187 162.741 51.7892 164.254 50.7302V54.3285C162.914 55.193 161.833 55.7765 161.012 56.0791C160.212 56.4032 159.37 56.5653 158.483 56.5653C155.955 56.5653 154.464 55.5712 154.01 53.5829C151.503 55.528 148.834 56.5005 146.003 56.5005C143.928 56.5005 142.199 55.8197 140.816 54.4582C139.433 53.0751 138.741 51.3461 138.741 49.2714C138.741 47.3912 139.411 45.7163 140.751 44.2468C142.113 42.7556 144.036 41.5777 146.522 40.7133L154.075 38.1199V36.5315C154.075 32.944 152.281 31.1502 148.693 31.1502C145.473 31.1502 142.34 32.8143 139.292 36.1425V29.6914C141.583 26.99 144.879 25.6393 149.18 25.6393C152.4 25.6393 154.982 26.4821 156.927 28.1678C157.576 28.7081 158.159 29.4321 158.678 30.3398C159.197 31.2258 159.521 32.1227 159.651 33.0304C159.802 33.9165 159.877 35.613 159.877 38.1199ZM154.075 50.1467V41.2968L150.12 42.8204C148.11 43.62 146.684 44.4305 145.841 45.2517C145.02 46.0513 144.609 47.0563 144.609 48.2665C144.609 49.4984 144.998 50.5033 145.776 51.2813C146.576 52.0593 147.602 52.4483 148.856 52.4483C150.736 52.4483 152.475 51.6811 154.075 50.1467Z" fill="#C93D01"/>
<path d="M165.291 30.9557L176.378 20.0635V26.2228H185.811V31.5392H176.378V46.1594C176.378 49.574 177.793 51.2813 180.624 51.2813C182.742 51.2813 184.979 50.5681 187.335 49.1418V54.6527C185.066 55.9278 182.591 56.5653 179.911 56.5653C177.21 56.5653 174.962 55.7765 173.168 54.1989C172.607 53.7234 172.142 53.1939 171.775 52.6104C171.407 52.0053 171.094 51.2273 170.834 50.2764C170.597 49.3039 170.478 47.4669 170.478 44.7654V31.5392H165.291V30.9557Z" fill="#C93D01"/>
<path d="M210.319 38.1199V50.795C210.319 51.8108 210.664 52.3187 211.356 52.3187C212.069 52.3187 213.182 51.7892 214.695 50.7302V54.3285C213.355 55.193 212.274 55.7765 211.453 56.0791C210.654 56.4032 209.811 56.5653 208.925 56.5653C206.396 56.5653 204.905 55.5712 204.451 53.5829C201.944 55.528 199.275 56.5005 196.444 56.5005C194.369 56.5005 192.64 55.8197 191.257 54.4582C189.874 53.0751 189.183 51.3461 189.183 49.2714C189.183 47.3912 189.853 45.7163 191.192 44.2468C192.554 42.7556 194.477 41.5777 196.963 40.7133L204.516 38.1199V36.5315C204.516 32.944 202.722 31.1502 199.135 31.1502C195.915 31.1502 192.781 32.8143 189.734 36.1425V29.6914C192.025 26.99 195.32 25.6393 199.621 25.6393C202.841 25.6393 205.424 26.4821 207.369 28.1678C208.017 28.7081 208.601 29.4321 209.119 30.3398C209.638 31.2258 209.962 32.1227 210.092 33.0304C210.243 33.9165 210.319 35.613 210.319 38.1199ZM204.516 50.1467V41.2968L200.561 42.8204C198.551 43.62 197.125 44.4305 196.282 45.2517C195.461 46.0513 195.05 47.0563 195.05 48.2665C195.05 49.4984 195.439 50.5033 196.217 51.2813C197.017 52.0593 198.043 52.4483 199.297 52.4483C201.177 52.4483 202.917 51.6811 204.516 50.1467Z" fill="#C93D01"/>
<path d="M236.058 56.0466H220.725V10.7598H232.589C236.328 10.7598 239.246 11.2676 241.342 12.2834C243.438 13.2775 245.038 14.6606 246.14 16.4328C247.242 18.1833 247.793 20.2148 247.793 22.5272C247.793 26.9792 245.491 30.1669 240.888 32.0903C244.195 32.717 246.82 34.0786 248.765 36.1749C250.732 38.2712 251.715 40.7781 251.715 43.6957C251.715 46.0081 251.121 48.072 249.933 49.8874C248.744 51.7027 246.993 53.1831 244.681 54.3285C242.39 55.4739 239.516 56.0466 236.058 56.0466ZM232.784 16.53H227.208V30.1453H231.52C234.977 30.1453 237.43 29.4861 238.878 28.1678C240.348 26.8495 241.083 25.1422 241.083 23.0459C241.083 18.702 238.316 16.53 232.784 16.53ZM233.27 35.9155H227.208V50.2764H233.594C237.139 50.2764 239.537 50.0062 240.791 49.4659C242.066 48.904 243.082 48.0396 243.838 46.8726C244.616 45.7055 245.005 44.4521 245.005 43.1122C245.005 41.729 244.594 40.4648 243.773 39.3193C242.974 38.1739 241.828 37.3203 240.337 36.7584C238.846 36.1965 236.49 35.9155 233.27 35.9155Z" fill="#C93D01"/>
<path d="M276.32 56.0466V52.2538C275.067 53.6153 273.63 54.6743 272.009 55.4307C270.409 56.1871 268.81 56.5653 267.211 56.5653C265.331 56.5653 263.591 56.1007 261.992 55.1714C260.414 54.2205 259.215 52.9454 258.393 51.3461C257.594 49.7253 257.194 47.0455 257.194 43.3067V26.2228H263.094V43.2418C263.094 46.3755 263.537 48.5691 264.423 49.8225C265.331 51.0544 266.908 51.6703 269.156 51.6703C271.965 51.6703 274.354 50.298 276.32 47.5533V26.2228H282.22V56.0466H276.32Z" fill="#C93D01"/>
<path d="M312.887 49.0769V54.912C309.926 56.0142 307.03 56.5653 304.199 56.5653C299.531 56.5653 295.803 55.1822 293.015 52.4159C290.249 49.6496 288.866 45.9433 288.866 41.2968C288.866 36.6071 290.216 32.8251 292.918 29.9508C295.619 27.0764 299.174 25.6393 303.583 25.6393C305.117 25.6393 306.49 25.7906 307.7 26.0931C308.932 26.3741 310.445 26.9144 312.238 27.714V34.0029C309.256 32.1011 306.49 31.1502 303.94 31.1502C301.281 31.1502 299.099 32.0903 297.391 33.9705C295.684 35.8291 294.83 38.2064 294.83 41.1023C294.83 44.1495 295.749 46.57 297.586 48.3638C299.444 50.1575 301.941 51.0544 305.074 51.0544C307.343 51.0544 309.948 50.3952 312.887 49.0769Z" fill="#C93D01"/>
<path d="M339.015 26.2228H346.05L333.31 40.843L348.643 56.0466H340.733L325.789 40.843L339.015 26.2228ZM319.63 10.7598H325.53V56.0466H319.63V10.7598Z" fill="#C93D01"/>
</svg>
