<svg width="18" height="18" viewBox="0 0 18 18" fill="none" xmlns="http://www.w3.org/2000/svg">
<path d="M3.25012 3.75C3.25012 2.64543 4.14555 1.75 5.25012 1.75H6.06591C7.72277 1.75 9.06591 3.09314 9.06591 4.75V5.25C9.06591 6.63071 10.1852 7.75 11.5659 7.75H11.7501C13.407 7.75 14.7501 9.09315 14.7501 10.75V14.25C14.7501 15.3546 13.8547 16.25 12.7501 16.25H5.25012C4.14555 16.25 3.25012 15.3546 3.25012 14.25V3.75Z" stroke="white" stroke-width="2"/>
<path d="M3.25012 3.75C3.25012 2.64543 4.14555 1.75 5.25012 1.75H5.87879C8.23861 1.75 10.478 2.79186 11.9981 4.59691L12.8694 5.63162C14.084 7.07399 14.7501 8.89905 14.7501 10.7847V14.25C14.7501 15.3546 13.8547 16.25 12.7501 16.25H5.25012C4.14555 16.25 3.25012 15.3546 3.25012 14.25V3.75Z" stroke="white" stroke-width="2"/>
</svg>
