<?xml version="1.0" encoding="utf-8"?>
<!-- Generator: Adobe Illustrator 25.4.1, SVG Export Plug-In . SVG Version: 6.00 Build 0)  -->
<svg version="1.1" id="Layer_1" xmlns="http://www.w3.org/2000/svg" xmlns:xlink="http://www.w3.org/1999/xlink" x="0px" y="0px"
	 viewBox="0 0 20 20" style="enable-background:new 0 0 20 20;" xml:space="preserve">
<style type="text/css">
	.st0{fill:none;stroke:#000000;}
</style>
<path class="st0" d="M3,3.8c0-1.4,1.1-2.5,2.5-2.5h1.7c1.9,0,3.5,1.6,3.5,3.5V6c0,1.1,0.9,2,2,2h0.8c1.9,0,3.5,1.6,3.5,3.5v4.7
	c0,1.4-1.1,2.5-2.5,2.5h-9c-1.4,0-2.5-1.1-2.5-2.5V3.8z"/>
<path class="st0" d="M3,3.8c0-1.4,1.1-2.5,2.5-2.5H7c2.5,0,4.9,1.1,6.5,3L15,6.1c1.3,1.5,2,3.5,2,5.5v4.5c0,1.4-1.1,2.5-2.5,2.5h-9
	c-1.4,0-2.5-1.1-2.5-2.5V3.8z"/>
</svg>
