<svg width="20" height="20" viewBox="0 0 20 20" fill="none" xmlns="http://www.w3.org/2000/svg">
<path d="M3 3.83325C3 2.45254 4.11929 1.33325 5.5 1.33325H7.18421C9.11721 1.33325 10.6842 2.90026 10.6842 4.83325V5.99992C10.6842 7.10449 11.5796 7.99992 12.6842 7.99992H13.5C15.433 7.99992 17 9.56692 17 11.4999V16.1666C17 17.5473 15.8807 18.6666 14.5 18.6666H5.5C4.11929 18.6666 3 17.5473 3 16.1666V3.83325Z" stroke="white"/>
<path d="M3 3.83325C3 2.45254 4.11929 1.33325 5.5 1.33325H6.99708C9.50439 1.33325 11.8838 2.44023 13.4988 4.3581L15.0017 6.14281C16.2923 7.67532 17 9.61444 17 11.618V16.1666C17 17.5473 15.8807 18.6666 14.5 18.6666H5.5C4.11929 18.6666 3 17.5473 3 16.1666V3.83325Z" stroke="white"/>
</svg>
