<?xml version="1.0" encoding="utf-8"?>
<!-- Generator: Adobe Illustrator 25.4.1, SVG Export Plug-In . SVG Version: 6.00 Build 0)  -->
<svg version="1.1" id="Layer_1" xmlns="http://www.w3.org/2000/svg" xmlns:xlink="http://www.w3.org/1999/xlink" x="0px" y="0px"
	 viewBox="0 0 18 18" style="enable-background:new 0 0 18 18;" xml:space="preserve">
<style type="text/css">
	.st0{fill:none;stroke:#233B5E;stroke-width:2;}
</style>
<path class="st0" d="M1.8,1.5h2.5c0.1,0,0.2,0.1,0.2,0.2v2.5c0,0.1-0.1,0.2-0.2,0.2H1.8c-0.1,0-0.2-0.1-0.2-0.2V1.8
	C1.5,1.6,1.6,1.5,1.8,1.5z"/>
<path class="st0" d="M7.8,1.5h2.5c0.1,0,0.2,0.1,0.2,0.2v2.5c0,0.1-0.1,0.2-0.2,0.2H7.8c-0.1,0-0.2-0.1-0.2-0.2V1.8
	C7.5,1.6,7.6,1.5,7.8,1.5z"/>
<path class="st0" d="M13.8,1.5h2.5c0.1,0,0.2,0.1,0.2,0.2v2.5c0,0.1-0.1,0.2-0.2,0.2h-2.5c-0.1,0-0.2-0.1-0.2-0.2V1.8
	C13.5,1.6,13.6,1.5,13.8,1.5z"/>
<path class="st0" d="M1.8,7.5h2.5c0.1,0,0.2,0.1,0.2,0.2v2.5c0,0.1-0.1,0.2-0.2,0.2H1.8c-0.1,0-0.2-0.1-0.2-0.2V7.8
	C1.5,7.6,1.6,7.5,1.8,7.5z"/>
<path class="st0" d="M7.8,7.5h2.5c0.1,0,0.2,0.1,0.2,0.2v2.5c0,0.1-0.1,0.2-0.2,0.2H7.8c-0.1,0-0.2-0.1-0.2-0.2V7.8
	C7.5,7.6,7.6,7.5,7.8,7.5z"/>
<path class="st0" d="M13.8,7.5h2.5c0.1,0,0.2,0.1,0.2,0.2v2.5c0,0.1-0.1,0.2-0.2,0.2h-2.5c-0.1,0-0.2-0.1-0.2-0.2V7.8
	C13.5,7.6,13.6,7.5,13.8,7.5z"/>
<path class="st0" d="M1.8,13.5h2.5c0.1,0,0.2,0.1,0.2,0.2v2.5c0,0.1-0.1,0.2-0.2,0.2H1.8c-0.1,0-0.2-0.1-0.2-0.2v-2.5
	C1.5,13.6,1.6,13.5,1.8,13.5z"/>
<path class="st0" d="M7.8,13.5h2.5c0.1,0,0.2,0.1,0.2,0.2v2.5c0,0.1-0.1,0.2-0.2,0.2H7.8c-0.1,0-0.2-0.1-0.2-0.2v-2.5
	C7.5,13.6,7.6,13.5,7.8,13.5z"/>
<path class="st0" d="M13.8,13.5h2.5c0.1,0,0.2,0.1,0.2,0.2v2.5c0,0.1-0.1,0.2-0.2,0.2h-2.5c-0.1,0-0.2-0.1-0.2-0.2v-2.5
	C13.5,13.6,13.6,13.5,13.8,13.5z"/>
</svg>
