<?xml version="1.0" encoding="utf-8"?>
<!-- Generator: Adobe Illustrator 25.4.1, SVG Export Plug-In . SVG Version: 6.00 Build 0)  -->
<svg version="1.1" id="Layer_1" xmlns="http://www.w3.org/2000/svg" xmlns:xlink="http://www.w3.org/1999/xlink" x="0px" y="0px"
	 viewBox="0 0 20 20" style="enable-background:new 0 0 20 20;" xml:space="preserve">
<style type="text/css">
	.st0{fill:none;stroke:#000000;}
</style>
<path class="st0" d="M1.8,0.8h4.7c0.6,0,1,0.4,1,1v4.7c0,0.6-0.4,1-1,1H1.8c-0.6,0-1-0.4-1-1V1.8C0.8,1.3,1.3,0.8,1.8,0.8z"/>
<path class="st0" d="M13.5,0.8h4.7c0.6,0,1,0.4,1,1v4.7c0,0.6-0.4,1-1,1h-4.7c-0.6,0-1-0.4-1-1V1.8C12.5,1.3,12.9,0.8,13.5,0.8z"/>
<path class="st0" d="M1.8,12.5h4.7c0.6,0,1,0.4,1,1v4.7c0,0.6-0.4,1-1,1H1.8c-0.6,0-1-0.4-1-1v-4.7C0.8,12.9,1.3,12.5,1.8,12.5z"/>
<path class="st0" d="M13.5,12.5h4.7c0.6,0,1,0.4,1,1v4.7c0,0.6-0.4,1-1,1h-4.7c-0.6,0-1-0.4-1-1v-4.7C12.5,12.9,12.9,12.5,13.5,12.5
	z"/>
</svg>
