<?xml version="1.0" encoding="utf-8"?>
<!-- Generator: Adobe Illustrator 25.4.1, SVG Export Plug-In . SVG Version: 6.00 Build 0)  -->
<svg version="1.1" id="Layer_1" xmlns="http://www.w3.org/2000/svg" xmlns:xlink="http://www.w3.org/1999/xlink" x="0px" y="0px"
	 viewBox="0 0 20 20" style="enable-background:new 0 0 20 20;" xml:space="preserve">
<style type="text/css">
	.st0{fill:none;stroke:#000000;stroke-linecap:round;stroke-linejoin:round;}
</style>
<path class="st0" d="M1.7,8.5c0-1,0.5-1.9,1.2-2.4L10,0.8l7.1,5.2c0.8,0.6,1.2,1.5,1.2,2.4v8.2c0,1.4-1.1,2.5-2.5,2.5h-2.3
	c-0.6,0-1-0.4-1-1v-4.7c0-0.3-0.2-0.5-0.5-0.5H8c-0.3,0-0.5,0.2-0.5,0.5v4.7c0,0.6-0.4,1-1,1H4.2c-1.4,0-2.5-1.1-2.5-2.5V8.5z"/>
</svg>
