<svg width="20" height="20" viewBox="0 0 20 20" fill="none" xmlns="http://www.w3.org/2000/svg">
<path d="M1.66675 8.48612C1.66675 7.53257 2.12006 6.63581 2.8879 6.0704L10.0001 0.833252L17.1123 6.0704C17.8801 6.63581 18.3334 7.53257 18.3334 8.48612V16.6666C18.3334 18.0473 17.2141 19.1666 15.8334 19.1666H13.5001C12.9478 19.1666 12.5001 18.7189 12.5001 18.1666V13.4166C12.5001 13.1404 12.2762 12.9166 12.0001 12.9166H8.00008C7.72394 12.9166 7.50008 13.1404 7.50008 13.4166V18.1666C7.50008 18.7189 7.05237 19.1666 6.50008 19.1666H4.16675C2.78604 19.1666 1.66675 18.0473 1.66675 16.6666V8.48612Z" stroke="white" stroke-linecap="round" stroke-linejoin="round"/>
</svg>
