<?xml version="1.0" encoding="utf-8"?>
<!-- Generator: Adobe Illustrator 25.4.1, SVG Export Plug-In . SVG Version: 6.00 Build 0)  -->
<svg version="1.1" id="Layer_1" xmlns="http://www.w3.org/2000/svg" xmlns:xlink="http://www.w3.org/1999/xlink" x="0px" y="0px"
	 viewBox="0 0 18 20" style="enable-background:new 0 0 18 20;" xml:space="preserve">
<style type="text/css">
	.st0{fill:none;stroke:#FFFFFF;stroke-width:2;}
</style>
<path class="st0" d="M4.5,3.2L4.5,3.2c-1.2,0-2.3,1-2.3,2.2v9.8c0,1.7,1.3,3,3,3h7.5c1.7,0,3-1.3,3-3V5.5c0-1.2-1-2.2-2.2-2.2l0,0"
	/>
<path class="st0" d="M6,1.8h6c0.8,0,1.5,0.7,1.5,1.5l0,0c0,0.8-0.7,1.5-1.5,1.5H6c-0.8,0-1.5-0.7-1.5-1.5l0,0C4.5,2.4,5.2,1.8,6,1.8
	z"/>
</svg>
