<svg width="20" height="20" viewBox="0 0 20 20" fill="none" xmlns="http://www.w3.org/2000/svg">
<circle cx="10.0001" cy="10.0001" r="3.33333" stroke="white"/>
<path d="M8.28452 2.02967C9.0611 0.733709 10.9391 0.73371 11.7156 2.02968L11.8908 2.32189C12.3436 3.07768 13.2378 3.44805 14.0925 3.23387L14.4229 3.15107C15.8884 2.78381 17.2164 4.11172 16.8491 5.57724L16.7663 5.90768C16.5521 6.76236 16.9225 7.65651 17.6783 8.10941L17.9705 8.28452C19.2665 9.0611 19.2665 10.9391 17.9705 11.7156L17.6783 11.8908C16.9225 12.3436 16.5521 13.2378 16.7663 14.0925L16.8491 14.4229C17.2164 15.8884 15.8884 17.2164 14.4229 16.8491L14.0925 16.7663C13.2378 16.5521 12.3436 16.9225 11.8907 17.6783L11.7156 17.9705C10.9391 19.2665 9.0611 19.2665 8.28452 17.9705L8.10941 17.6783C7.65651 16.9225 6.76236 16.5521 5.90768 16.7663L5.57724 16.8491C4.11172 17.2164 2.78381 15.8884 3.15107 14.4229L3.23387 14.0925C3.44805 13.2378 3.07768 12.3436 2.32189 11.8907L2.02967 11.7156C0.733709 10.9391 0.73371 9.0611 2.02968 8.28452L2.32189 8.10941C3.07768 7.65651 3.44805 6.76236 3.23387 5.90768L3.15107 5.57724C2.78381 4.11172 4.11172 2.78381 5.57724 3.15107L5.90768 3.23387C6.76236 3.44805 7.65651 3.07768 8.10941 2.32189L8.28452 2.02967Z" stroke="white"/>
</svg>
