<?xml version="1.0" encoding="utf-8"?>
<!-- Generator: Adobe Illustrator 25.4.1, SVG Export Plug-In . SVG Version: 6.00 Build 0)  -->
<svg version="1.1" id="Layer_1" xmlns="http://www.w3.org/2000/svg" xmlns:xlink="http://www.w3.org/1999/xlink" x="0px" y="0px"
	 viewBox="0 0 18 18" style="enable-background:new 0 0 18 18;" xml:space="preserve">
<style type="text/css">
	.st0{fill:none;stroke:#233B5E;stroke-width:2;}
</style>
<circle class="st0" cx="9" cy="9" r="3"/>
<path class="st0" d="M7.3,2c0.7-1.2,2.6-1.2,3.3,0l0,0c0.4,0.7,1.3,1.1,2.1,0.9l0,0c1.4-0.4,2.7,0.9,2.3,2.3l0,0
	C14.9,6,15.3,6.9,16,7.3l0,0c1.2,0.7,1.2,2.6,0,3.3l0,0c-0.7,0.4-1.1,1.3-0.9,2.1l0,0c0.4,1.4-0.9,2.7-2.3,2.3l0,0
	c-0.8-0.2-1.7,0.2-2.1,0.9l0,0c-0.7,1.2-2.6,1.2-3.3,0l0,0c-0.4-0.7-1.3-1.1-2.1-0.9l0,0c-1.4,0.4-2.7-0.9-2.3-2.3l0,0
	C3.1,12,2.7,11.1,2,10.7l0,0C0.8,9.9,0.8,8.1,2,7.3l0,0C2.7,6.9,3.1,6,2.9,5.2l0,0C2.5,3.8,3.8,2.5,5.2,2.9l0,0C6,3.1,6.9,2.7,7.3,2
	L7.3,2z"/>
</svg>
