<svg width="18" height="18" viewBox="0 0 18 18" fill="none" xmlns="http://www.w3.org/2000/svg">
<circle cx="9.00006" cy="9.00092" r="3" stroke="white" stroke-width="2"/>
<path d="M7.34696 2.00961C8.09527 0.760829 9.90485 0.760829 10.6532 2.00961V2.00961C11.0896 2.73789 11.9512 3.09478 12.7747 2.8884V2.8884C14.1869 2.53451 15.4665 3.81408 15.1126 5.22624V5.22624C14.9062 6.0498 15.2631 6.9114 15.9914 7.34781V7.34781C17.2401 8.09612 17.2401 9.90571 15.9914 10.654V10.654C15.2631 11.0904 14.9062 11.952 15.1126 12.7756V12.7756C15.4665 14.1878 14.1869 15.4673 12.7747 15.1134V15.1134C11.9512 14.9071 11.0896 15.2639 10.6532 15.9922V15.9922C9.90485 17.241 8.09527 17.241 7.34696 15.9922V15.9922C6.91055 15.2639 6.04894 14.9071 5.22539 15.1134V15.1134C3.81322 15.4673 2.53366 14.1878 2.88754 12.7756V12.7756C3.09392 11.952 2.73704 11.0904 2.00876 10.654V10.654C0.759974 9.90571 0.759974 8.09612 2.00876 7.34781V7.34781C2.73704 6.9114 3.09392 6.0498 2.88754 5.22624V5.22624C2.53366 3.81408 3.81322 2.53451 5.22539 2.8884V2.8884C6.04894 3.09478 6.91055 2.73789 7.34696 2.00961V2.00961Z" stroke="white" stroke-width="2"/>
</svg>
