<svg width="18" height="18" viewBox="0 0 18 18" fill="none" xmlns="http://www.w3.org/2000/svg">
<g clip-path="url(#clip0_913_40364)">
<path fill-rule="evenodd" clip-rule="evenodd" d="M0 2C0 0.89543 0.895431 0 2 0H16C17.1046 0 18 0.895431 18 2V16C18 17.1046 17.1046 18 16 18H2C0.89543 18 0 17.1046 0 16V2ZM8.95927 3.07066C5.70708 3.07066 3.07066 5.70708 3.07066 8.95927C3.07066 12.2115 5.70708 14.8479 8.95927 14.8479C12.0311 14.8479 14.5536 12.4957 14.8239 9.4942C14.8504 9.19974 15.0876 8.95927 15.3832 8.95927C15.6789 8.95927 15.9207 9.19979 15.8983 9.49459C15.6249 13.088 12.6227 15.9185 8.95927 15.9185C5.11577 15.9185 2 12.8028 2 8.95927C2 5.11577 5.11577 2 8.95927 2C10.9559 2 12.7563 2.84131 14.0247 4.18719C14.2275 4.40235 14.1902 4.74101 13.9601 4.92674C13.7301 5.11246 13.3947 5.07458 13.189 4.86224C12.118 3.75674 10.6189 3.07066 8.95927 3.07066ZM15.9177 5.74728C16.0744 5.998 15.9981 6.32827 15.7474 6.48496L8.07694 11.279C7.5859 11.5859 6.93985 11.4468 6.61865 10.965L5.06262 8.63096C4.89862 8.38497 4.9651 8.0526 5.21109 7.8886C5.45709 7.7246 5.78946 7.79107 5.95346 8.03707L7.33648 10.1116C7.43284 10.2561 7.62666 10.2979 7.77397 10.2058L15.18 5.57705C15.4307 5.42035 15.761 5.49657 15.9177 5.74728Z" fill="#717171"/>
</g>
<defs>
<clipPath id="clip0_913_40364">
<rect width="18" height="18" fill="white"/>
</clipPath>
</defs>
</svg>
