<svg width="34" height="29" viewBox="0 0 34 29" fill="none" xmlns="http://www.w3.org/2000/svg">
<path fill-rule="evenodd" clip-rule="evenodd" d="M20.517 0.441307C19.6647 1.17999 20.7668 2.8492 22.7823 3.87225C24.4918 4.73987 24.6568 5.25225 23.1465 5.00233C19.9204 4.46803 19.2844 4.45864 19.2844 4.94483C19.2844 5.20528 19.8103 5.68721 20.4532 6.0157C21.2595 6.42759 21.5606 6.75181 21.4238 7.06066C20.9545 8.11958 20.8835 9.96329 21.2526 11.503C21.5708 12.8306 21.5655 13.2963 21.2263 13.8454C20.6531 14.7731 16.9968 16.243 14.6716 16.4805C13.6392 16.5861 12.4428 16.8696 12.0132 17.111C11.4032 17.4531 10.7987 17.5021 9.25948 17.3338C6.22669 17.0019 5.40628 17.0221 5.56142 17.4252C5.64064 17.631 6.37854 17.8101 7.31464 17.8505C9.99081 17.9663 10.9115 18.2951 10.8487 19.1124C10.7277 20.6905 9.82844 21.9008 8.37006 22.4488C7.5937 22.7406 6.6073 23.3082 6.17771 23.7104C5.74845 24.1123 4.97373 24.5219 4.45638 24.6204C3.9387 24.7189 3.23367 25.1098 2.88888 25.4892C2.54441 25.8686 2.03954 26.1789 1.76706 26.1789C1.25135 26.1789 -0.267174 28.1288 0.040805 28.3955C0.137439 28.4792 0.487817 28.3349 0.819791 28.075C1.15144 27.8148 1.68391 27.6022 2.00273 27.6022C2.32189 27.6022 2.66043 27.346 2.75477 27.0329C2.84943 26.7198 3.14722 26.4636 3.41641 26.4636C3.68561 26.4636 4.18652 26.1544 4.52967 25.777C5.67778 24.5125 8.29938 23.617 10.8513 23.617C12.947 23.617 13.2478 23.539 14.4846 22.6745C16.5632 21.2219 17.5615 20.9734 20.3941 21.2034C23.6014 21.4636 25.682 21.0335 27.3632 19.7631C28.4975 18.9054 28.8686 18.7893 30.4598 18.7927L32.2675 18.797L31.4458 19.3444C30.9939 19.6455 30.231 20.1536 29.7505 20.4736C29.2699 20.7935 28.6691 21.0551 28.415 21.0551C28.1609 21.0551 27.5282 21.4394 27.0086 21.9091L26.0639 22.7631H26.9773C27.4799 22.7631 28.2671 22.5069 28.7266 22.1938C29.1864 21.8806 29.8063 21.6244 30.1045 21.6244C30.868 21.6244 34.2068 18.6313 33.9899 18.1414C33.8002 17.7136 30.8414 16.7853 29.667 16.7853C29.0418 16.7853 28.9034 16.5508 28.5886 14.9581C28.347 13.7381 27.8789 12.6928 27.1801 11.813C26.3361 10.7504 26.2098 10.415 26.529 10.082C27.0579 9.52976 27.4017 9.56135 28.0548 10.222C28.4699 10.6419 28.746 10.7079 29.2019 10.4964C29.5322 10.3436 29.8024 10.0231 29.8024 9.78452C29.8024 9.30602 27.9966 7.18079 27.0907 6.59383C26.7745 6.38859 26.5155 5.9767 26.5155 5.67838C26.5155 4.58303 22.6042 0.436468 22.0359 0.92892C21.9399 1.01204 22.1151 1.41539 22.4254 1.82501C23.084 2.69577 22.898 3.00889 21.9764 2.58162C21.6181 2.41539 21.1987 1.8179 21.0442 1.25343C20.8897 0.689241 20.6527 0.323745 20.517 0.441307Z" fill="white"/>
</svg>
