<svg width="174" height="28" viewBox="0 0 174 28" fill="none" xmlns="http://www.w3.org/2000/svg">
<path fill-rule="evenodd" clip-rule="evenodd" d="M20.517 0.0219954C19.6647 0.760674 20.7668 2.42989 22.7823 3.45294C24.4918 4.32056 24.6568 4.83294 23.1465 4.58302C19.9204 4.04872 19.2844 4.03932 19.2844 4.52551C19.2844 4.78597 19.8103 5.26789 20.4532 5.59639C21.2595 6.00828 21.5606 6.3325 21.4238 6.64135C20.9545 7.70027 20.8835 9.54397 21.2526 11.0837C21.5708 12.4113 21.5655 12.877 21.2263 13.4261C20.6531 14.3538 16.9968 15.8237 14.6716 16.0611C13.6392 16.1667 12.4428 16.4503 12.0132 16.6916C11.4032 17.0338 10.7987 17.0828 9.25948 16.9145C6.22669 16.5826 5.40628 16.6028 5.56142 17.0059C5.64064 17.2117 6.37854 17.3908 7.31464 17.4312C9.99081 17.547 10.9115 17.8758 10.8487 18.6931C10.7277 20.2712 9.82844 21.4815 8.37006 22.0295C7.5937 22.3213 6.6073 22.8889 6.17771 23.2911C5.74845 23.693 4.97373 24.1026 4.45638 24.2011C3.9387 24.2996 3.23367 24.6904 2.88888 25.0699C2.54441 25.4493 2.03954 25.7596 1.76706 25.7596C1.25135 25.7596 -0.267174 27.7095 0.040805 27.9762C0.137439 28.0599 0.487817 27.9156 0.819791 27.6557C1.15144 27.3955 1.68391 27.1829 2.00273 27.1829C2.32189 27.1829 2.66043 26.9267 2.75477 26.6136C2.84943 26.3004 3.14722 26.0443 3.41641 26.0443C3.68561 26.0443 4.18652 25.7351 4.52967 25.3577C5.67778 24.0932 8.29938 23.1977 10.8513 23.1977C12.947 23.1977 13.2478 23.1197 14.4846 22.2552C16.5632 20.8026 17.5615 20.5541 20.3941 20.7841C23.6014 21.0443 25.682 20.6142 27.3632 19.3438C28.4975 18.4861 28.8686 18.37 30.4598 18.3734L32.2675 18.3777L31.4458 18.925C30.9939 19.2262 30.231 19.7343 29.7505 20.0543C29.2699 20.3742 28.6691 20.6358 28.415 20.6358C28.1609 20.6358 27.5282 21.0201 27.0086 21.4898L26.0639 22.3437H26.9773C27.4799 22.3437 28.2671 22.0876 28.7266 21.7744C29.1864 21.4613 29.8063 21.2051 30.1045 21.2051C30.868 21.2051 34.2068 18.212 33.9899 17.7221C33.8002 17.2943 30.8414 16.366 29.667 16.366C29.0418 16.366 28.9034 16.1314 28.5886 14.5388C28.347 13.3188 27.8789 12.2735 27.1801 11.3937C26.3361 10.331 26.2098 9.99572 26.529 9.66267C27.0579 9.11045 27.4017 9.14204 28.0548 9.80273C28.4699 10.2226 28.746 10.2886 29.2019 10.0771C29.5322 9.92427 29.8024 9.60375 29.8024 9.36521C29.8024 8.88671 27.9966 6.76148 27.0907 6.17452C26.7745 5.96928 26.5155 5.55739 26.5155 5.25907C26.5155 4.16372 22.6042 0.0171561 22.0359 0.509608C21.9399 0.592728 22.1151 0.996083 22.4254 1.4057C23.084 2.27646 22.898 2.58958 21.9764 2.16231C21.6181 1.99607 21.1987 1.39858 21.0442 0.834115C20.8897 0.269929 20.6527 -0.0955669 20.517 0.0219954Z" fill="white"/>
<path d="M46 27.4919V4.91797H53.6217C56.6963 4.91797 59.129 5.38185 60.9198 6.30962C62.7107 7.22661 64.1347 8.58051 65.1919 10.3713C66.2491 12.1621 66.7777 14.1148 66.7777 16.2292C66.7777 17.7395 66.4865 19.1851 65.9039 20.566C65.3214 21.9469 64.4907 23.1605 63.4119 24.207C62.3115 25.2858 61.0331 26.1003 59.5767 26.6505C58.7245 26.9849 57.9424 27.2114 57.2303 27.3301C56.5183 27.438 55.159 27.4919 53.1525 27.4919H46ZM53.2819 7.79837H49.2364V24.6115H53.379C54.9972 24.6115 56.254 24.5036 57.1494 24.2879C58.0448 24.0613 58.7892 23.7808 59.3826 23.4464C59.9867 23.1012 60.5369 22.6805 61.0331 22.1842C62.6298 20.566 63.4281 18.5217 63.4281 16.0512C63.4281 13.6239 62.6082 11.6443 60.9684 10.1124C60.3643 9.54064 59.6684 9.07136 58.8809 8.70457C58.1042 8.33777 57.3652 8.09504 56.664 7.97638C55.9627 7.85771 54.8354 7.79837 53.2819 7.79837Z" fill="white"/>
<path d="M79.7719 18.5756V24.9028C79.7719 25.4098 79.9445 25.6634 80.2898 25.6634C80.6458 25.6634 81.2013 25.399 81.9565 24.8704V26.6666C81.2877 27.0982 80.7482 27.3894 80.3383 27.5405C79.9391 27.7023 79.5184 27.7832 79.0761 27.7832C77.8139 27.7832 77.0695 27.2869 76.843 26.2944C75.5916 27.2654 74.2592 27.7508 72.846 27.7508C71.8104 27.7508 70.9473 27.411 70.2569 26.7314C69.5665 26.0409 69.2212 25.1779 69.2212 24.1422C69.2212 23.2037 69.5557 22.3676 70.2245 21.634C70.9042 20.8896 71.8643 20.3017 73.1049 19.8702L76.8753 18.5756V17.7827C76.8753 15.9919 75.9799 15.0965 74.1891 15.0965C72.5817 15.0965 71.0174 15.9272 69.4963 17.5885V14.3683C70.6399 13.0198 72.285 12.3455 74.4319 12.3455C76.0393 12.3455 77.3284 12.7663 78.2994 13.6077C78.623 13.8774 78.9143 14.2388 79.1732 14.6919C79.4321 15.1342 79.5939 15.5819 79.6587 16.035C79.7342 16.4773 79.7719 17.3242 79.7719 18.5756ZM76.8753 24.5792V20.1615L74.9011 20.922C73.8978 21.3212 73.1858 21.7257 72.7651 22.1357C72.3552 22.5348 72.1502 23.0365 72.1502 23.6406C72.1502 24.2555 72.3444 24.7572 72.7327 25.1455C73.1319 25.5339 73.6443 25.7281 74.27 25.7281C75.2086 25.7281 76.077 25.3451 76.8753 24.5792Z" fill="white"/>
<path d="M82.4743 14.9994L88.0086 9.56222V12.6368H92.7176V15.2907H88.0086V22.5888C88.0086 24.2933 88.7152 25.1455 90.1284 25.1455C91.1857 25.1455 92.3022 24.7895 93.4781 24.0775V26.8285C92.3454 27.465 91.1102 27.7832 89.7724 27.7832C88.4239 27.7832 87.302 27.3894 86.4066 26.6019C86.1261 26.3646 85.8941 26.1003 85.7107 25.809C85.5273 25.5069 85.3709 25.1186 85.2415 24.6439C85.1228 24.1584 85.0635 23.2414 85.0635 21.8929V15.2907H82.4743V14.9994Z" fill="white"/>
<path d="M104.951 18.5756V24.9028C104.951 25.4098 105.124 25.6634 105.469 25.6634C105.825 25.6634 106.381 25.399 107.136 24.8704V26.6666C106.467 27.0982 105.928 27.3894 105.518 27.5405C105.118 27.7023 104.698 27.7832 104.255 27.7832C102.993 27.7832 102.249 27.2869 102.022 26.2944C100.771 27.2654 99.4385 27.7508 98.0253 27.7508C96.9896 27.7508 96.1266 27.411 95.4362 26.7314C94.7457 26.0409 94.4005 25.1779 94.4005 24.1422C94.4005 23.2037 94.7349 22.3676 95.4038 21.634C96.0834 20.8896 97.0436 20.3017 98.2842 19.8702L102.055 18.5756V17.7827C102.055 15.9919 101.159 15.0965 99.3684 15.0965C97.761 15.0965 96.1967 15.9272 94.6756 17.5885V14.3683C95.8191 13.0198 97.4643 12.3455 99.6111 12.3455C101.219 12.3455 102.508 12.7663 103.479 13.6077C103.802 13.8774 104.094 14.2388 104.352 14.6919C104.611 15.1342 104.773 15.5819 104.838 16.035C104.913 16.4773 104.951 17.3242 104.951 18.5756ZM102.055 24.5792V20.1615L100.08 20.922C99.0771 21.3212 98.3651 21.7257 97.9444 22.1357C97.5344 22.5348 97.3295 23.0365 97.3295 23.6406C97.3295 24.2555 97.5236 24.7572 97.912 25.1455C98.3112 25.5339 98.8236 25.7281 99.4493 25.7281C100.388 25.7281 101.256 25.3451 102.055 24.5792Z" fill="white"/>
<path d="M117.8 27.5243H110.146V4.91797H116.068C117.935 4.91797 119.391 5.17149 120.437 5.67852C121.484 6.17477 122.282 6.86521 122.832 7.74983C123.383 8.62366 123.658 9.63773 123.658 10.7921C123.658 13.0144 122.509 14.6056 120.211 15.5658C121.861 15.8786 123.172 16.5583 124.143 17.6047C125.125 18.6511 125.616 19.9025 125.616 21.3589C125.616 22.5132 125.319 23.5435 124.726 24.4497C124.132 25.3559 123.258 26.0949 122.104 26.6666C120.961 27.2384 119.526 27.5243 117.8 27.5243ZM116.165 7.79837H113.382V14.5948H115.534C117.26 14.5948 118.485 14.2658 119.208 13.6077C119.941 12.9497 120.308 12.0974 120.308 11.051C120.308 8.88257 118.927 7.79837 116.165 7.79837ZM116.408 17.4752H113.382V24.6439H116.57C118.339 24.6439 119.537 24.509 120.162 24.2393C120.799 23.9588 121.306 23.5273 121.683 22.9448C122.072 22.3622 122.266 21.7365 122.266 21.0677C122.266 20.3772 122.061 19.7461 121.651 19.1744C121.252 18.6026 120.68 18.1765 119.936 17.896C119.191 17.6155 118.016 17.4752 116.408 17.4752Z" fill="white"/>
<path d="M137.898 27.5243V25.631C137.272 26.3106 136.555 26.8392 135.746 27.2168C134.947 27.5944 134.149 27.7832 133.351 27.7832C132.412 27.7832 131.544 27.5513 130.745 27.0874C129.958 26.6127 129.359 25.9762 128.949 25.1779C128.55 24.3688 128.35 23.0311 128.35 21.1647V12.6368H131.296V21.1324C131.296 22.6966 131.517 23.7916 131.959 24.4173C132.412 25.0323 133.2 25.3397 134.322 25.3397C135.724 25.3397 136.916 24.6547 137.898 23.2846V12.6368H140.843V27.5243H137.898Z" fill="white"/>
<path d="M156.151 24.0451V26.9579C154.673 27.5081 153.228 27.7832 151.814 27.7832C149.484 27.7832 147.623 27.0928 146.232 25.7119C144.851 24.331 144.16 22.4809 144.16 20.1615C144.16 17.8205 144.835 15.9325 146.183 14.4977C147.532 13.0629 149.306 12.3455 151.507 12.3455C152.273 12.3455 152.958 12.421 153.562 12.5721C154.177 12.7123 154.932 12.982 155.828 13.3812V16.5205C154.339 15.5711 152.958 15.0965 151.685 15.0965C150.358 15.0965 149.268 15.5658 148.416 16.5043C147.564 17.4321 147.138 18.6188 147.138 20.0644C147.138 21.5855 147.596 22.7937 148.513 23.6891C149.441 24.5845 150.687 25.0323 152.251 25.0323C153.384 25.0323 154.684 24.7032 156.151 24.0451Z" fill="white"/>
<path d="M169.194 12.6368H172.705L166.346 19.9349L174 27.5243H170.052L162.592 19.9349L169.194 12.6368ZM159.517 4.91797H162.462V27.5243H159.517V4.91797Z" fill="white"/>
</svg>
