<svg width="32" height="32" viewBox="0 0 32 32" fill="none" xmlns="http://www.w3.org/2000/svg">
<circle cx="16" cy="16" r="15.5" fill="white" stroke="white"/>
<path fill-rule="evenodd" clip-rule="evenodd" d="M20.0002 12C20.0002 9.79088 18.2093 8 16.0002 8C13.791 8 12.0002 9.79088 12.0002 12C12.0002 14.2002 13.7765 15.9855 15.9733 16H15.2C11.2235 16 8 19.2236 8 23.2001C8 23.6419 8.35817 24.0001 8.8 24.0001H23.2C23.6418 24.0001 24 23.6419 24 23.2001C24 19.2236 20.7765 16 16.8 16H16.0268C17.0781 15.993 18.0847 15.5724 18.8286 14.8285C19.5788 14.0783 20.0002 13.0609 20.0002 12ZM16.0268 16H15.9733L16.0002 16.0001L16.0268 16ZM15.2003 17.6016C12.4159 17.6008 10.054 19.6458 9.65625 22.4016H22.3443C21.9465 19.6458 19.5846 17.6008 16.8003 17.6016H15.2003ZM13.5996 12.0016C13.5996 13.3271 14.6741 14.4016 15.9996 14.4016C16.6361 14.4016 17.2466 14.1488 17.6967 13.6987C18.1468 13.2486 18.3996 12.6381 18.3996 12.0016C18.3996 10.6761 17.3251 9.60156 15.9996 9.60156C14.6741 9.60156 13.5996 10.6761 13.5996 12.0016Z" fill="#E3311D"/>
</svg>
