<svg width="32" height="33" viewBox="0 0 32 33" fill="none" xmlns="http://www.w3.org/2000/svg">
<path d="M31.5 16.2084C31.5 24.7134 24.5632 31.6132 16 31.6132C7.43677 31.6132 0.5 24.7134 0.5 16.2084C0.5 7.70345 7.43677 0.803711 16 0.803711C24.5632 0.803711 31.5 7.70345 31.5 16.2084Z" fill="white" stroke="white"/>
<path fill-rule="evenodd" clip-rule="evenodd" d="M23.1931 20.1846H22.4347V14.6179C22.4347 11.1044 19.5448 8.25604 15.9798 8.25604C12.4149 8.25604 9.52496 11.1044 9.52496 14.6179V20.1846H8.80686C8.36124 20.1846 8 20.5406 8 20.9798C8 21.419 8.36124 21.7751 8.80686 21.7751H13.5593C13.5593 23.0927 14.643 24.1608 15.9798 24.1608C17.3167 24.1608 18.4004 23.0927 18.4004 21.7751H23.1931C23.6388 21.7751 24 21.419 24 20.9798C24 20.5406 23.6388 20.1846 23.1931 20.1846ZM15.9807 22.5709C15.5351 22.5709 15.1738 22.2149 15.1738 21.7757H16.7875C16.7875 22.2149 16.4263 22.5709 15.9807 22.5709ZM11.1367 20.1852H17.5916H20.819V14.6186C20.819 11.9834 18.6516 9.84716 15.9779 9.84716C13.3042 9.84716 11.1367 11.9834 11.1367 14.6186V20.1852Z" fill="#E3311D"/>
</svg>
