<svg width="32" height="32" viewBox="0 0 32 32" fill="none" xmlns="http://www.w3.org/2000/svg">
<circle cx="16" cy="16" r="15.5" fill="#D22B26" stroke="white"/>
<path d="M11 9.57377C11.2847 9.36248 11.5969 9.16211 11.9366 8.97268C12.2856 8.78324 12.6621 8.61567 13.0661 8.46995C13.4793 8.32423 13.9201 8.21129 14.3884 8.13115C14.8659 8.04372 15.3802 8 15.9311 8C16.6566 8 17.3269 8.08379 17.9421 8.25137C18.5666 8.41894 19.1038 8.65574 19.5537 8.96175C20.0037 9.26776 20.3572 9.63934 20.6143 10.0765C20.8714 10.5137 21 11.0055 21 11.5519C21 12.1056 20.8944 12.5829 20.6832 12.9836C20.4812 13.3843 20.2195 13.7377 19.8981 14.0437C19.5859 14.3424 19.2415 14.6047 18.865 14.8306C18.4977 15.0492 18.1488 15.2568 17.8182 15.4536C17.4876 15.6503 17.2029 15.847 16.9642 16.0437C16.7346 16.2404 16.6015 16.459 16.5647 16.6995L16.3168 18.3716H14.6364L14.4711 16.5574C14.4343 16.2295 14.5124 15.9454 14.7052 15.7049C14.8981 15.4572 15.1506 15.2277 15.4628 15.0164C15.775 14.7978 16.1194 14.5865 16.4959 14.3825C16.8724 14.1712 17.2213 13.9381 17.5427 13.6831C17.8733 13.4281 18.1488 13.1403 18.3691 12.8197C18.5895 12.4918 18.6997 12.102 18.6997 11.6503C18.6997 11.337 18.6217 11.0528 18.4656 10.7978C18.3095 10.5428 18.0983 10.3279 17.832 10.153C17.5657 9.97086 17.2489 9.83242 16.8815 9.73771C16.5234 9.64299 16.1377 9.59563 15.7245 9.59563C15.1644 9.59563 14.6823 9.65027 14.2782 9.75956C13.8834 9.86885 13.5482 9.98907 13.2727 10.1202C12.9972 10.2514 12.7723 10.3716 12.5978 10.4809C12.4325 10.5902 12.2948 10.6448 12.1846 10.6448C11.955 10.6448 11.7759 10.561 11.6474 10.3934L11 9.57377ZM13.686 22.6339C13.686 22.4444 13.7273 22.2659 13.8099 22.0984C13.9017 21.9308 14.0211 21.7851 14.168 21.6612C14.3242 21.5373 14.5078 21.439 14.719 21.3661C14.9302 21.2933 15.1552 21.2568 15.3939 21.2568C15.6327 21.2568 15.8577 21.2933 16.0689 21.3661C16.2801 21.439 16.4637 21.5373 16.6198 21.6612C16.7759 21.7851 16.8999 21.9308 16.9917 22.0984C17.0836 22.2659 17.1295 22.4444 17.1295 22.6339C17.1295 22.8306 17.0836 23.0128 16.9917 23.1803C16.8999 23.3406 16.7759 23.4827 16.6198 23.6066C16.4637 23.7304 16.2801 23.8251 16.0689 23.8907C15.8577 23.9636 15.6327 24 15.3939 24C15.1552 24 14.9302 23.9636 14.719 23.8907C14.5078 23.8251 14.3242 23.7304 14.168 23.6066C14.0211 23.4827 13.9017 23.3406 13.8099 23.1803C13.7273 23.0128 13.686 22.8306 13.686 22.6339Z" fill="white"/>
</svg>
