<svg width="22" height="22" viewBox="0 0 22 22" fill="none" xmlns="http://www.w3.org/2000/svg">
<g clip-path="url(#clip0_913_39101)">
<path fill-rule="evenodd" clip-rule="evenodd" d="M22 3.30005V9.7002C22 10.2524 21.5524 10.7001 21.0002 10.7002L20.7998 10.7003C20.2475 10.7004 19.7996 10.2527 19.7996 9.70032V7H12L12 19.8005H18.6998C19.252 19.8005 19.6997 20.248 19.6998 20.8003L19.6998 20.9999C19.6999 21.5521 19.2522 22 18.6998 22H3.3C1.47746 22 0 20.5226 0 18.7V3.30005C0 1.47742 1.47746 0 3.3 0H18.7C20.5225 0 22 1.47742 22 3.30005ZM10 19.8005L10 7L2.1996 7V18.7004C2.1996 19.308 2.69209 19.8005 3.29961 19.8005H10ZM19.7996 5V3.30054C19.7996 2.69299 19.3071 2.20044 18.6996 2.20044H3.29961C2.69209 2.20044 2.1996 2.69299 2.1996 3.30054V5H19.7996Z" fill="#D3D3D3"/>
<path d="M22.0001 8.99979L21.9996 18.7C21.9996 20.5226 20.5224 22 18.6998 22L18.6992 19.7996C19.3067 19.7996 19.7992 19.307 19.7992 18.6995L19.7997 8.99966C19.7997 8.4473 20.2475 7.99954 20.7999 7.99966L21.0003 7.99979C21.5525 7.99991 22.0001 8.44754 22.0001 8.99979Z" fill="#D3D3D3"/>
</g>
<defs>
<clipPath id="clip0_913_39101">
<rect width="22" height="22" fill="white"/>
</clipPath>
</defs>
</svg>
