<svg width="19" height="19" viewBox="0 0 19 19" fill="none" xmlns="http://www.w3.org/2000/svg">
<path d="M12.9764 3.33334C11.9094 2.78089 11.3259 1.87952 11.7771 1.48063C11.849 1.41715 11.9744 1.61451 12.0562 1.91917C12.138 2.22399 12.3601 2.54663 12.5497 2.6364C13.0377 2.86713 13.1361 2.69804 12.7874 2.22783C12.6232 2.00664 12.5304 1.78883 12.5812 1.74394C12.8821 1.47802 14.9528 3.71716 14.9528 4.30865C14.9528 4.46974 15.0899 4.69217 15.2573 4.80299C15.7369 5.11995 16.6929 6.26757 16.6929 6.52597C16.6929 6.65478 16.5499 6.82786 16.375 6.9104C16.1336 7.02461 15.9875 6.98895 15.7677 6.76222C15.4219 6.40546 15.2399 6.38839 14.9599 6.6866C14.791 6.86644 14.8578 7.04752 15.3047 7.62133C15.6746 8.09646 15.9224 8.66089 16.0503 9.31971C16.217 10.1797 16.2903 10.3064 16.6212 10.3064C17.243 10.3064 18.8094 10.8077 18.9098 11.0387C19.0247 11.3032 17.2571 12.9195 16.8528 12.9195C16.695 12.9195 16.3668 13.0579 16.1234 13.227C15.8801 13.396 15.4634 13.5344 15.1973 13.5344H14.7137L15.2138 13.0732C15.4889 12.8196 15.8239 12.6121 15.9584 12.6121C16.0929 12.6121 16.411 12.4708 16.6654 12.2981C16.9198 12.1253 17.3237 11.8509 17.563 11.6883L17.998 11.3927L17.0409 11.3904C16.1986 11.3885 16.0021 11.4513 15.4016 11.9144C14.5115 12.6004 13.41 12.8327 11.712 12.6922C10.2124 12.568 9.68394 12.7022 8.5835 13.4866C7.9287 13.9534 7.76948 13.9955 6.65999 13.9955C5.30897 13.9955 3.92106 14.4791 3.31324 15.1619C3.13157 15.3657 2.86638 15.5327 2.72387 15.5327C2.58135 15.5327 2.4237 15.671 2.37358 15.8401C2.32364 16.0092 2.14441 16.1475 1.97545 16.1475C1.80666 16.1475 1.52476 16.2623 1.34918 16.4028C1.17343 16.5432 0.987939 16.6211 0.93678 16.5759C0.773732 16.4319 1.57766 15.3789 1.85068 15.3789C1.99494 15.3789 2.26222 15.2114 2.44458 15.0065C2.62712 14.8016 3.00037 14.5905 3.27444 14.5374C3.54833 14.4842 3.95847 14.263 4.18573 14.0459C4.41316 13.8287 4.93537 13.5222 5.34638 13.3647C6.11847 13.0688 6.59456 12.4152 6.65859 11.563C6.69183 11.1217 6.20443 10.9442 4.78763 10.8816C4.29205 10.8598 3.9014 10.7631 3.85946 10.6519C3.77733 10.4343 4.21166 10.4234 5.81725 10.6026C6.63215 10.6934 6.95215 10.667 7.27511 10.4822C7.50255 10.3519 8.13595 10.1988 8.68251 10.1418C9.91346 10.0136 11.8492 9.2198 12.1526 8.71884C12.3322 8.42233 12.335 8.17085 12.1666 7.45393C11.9711 6.6225 12.0087 5.6269 12.2572 5.05508C12.3296 4.8883 12.1702 4.71322 11.7434 4.4908C11.403 4.31342 11.1246 4.05318 11.1246 3.91253C11.1246 3.64999 11.4613 3.65506 13.1692 3.94358C13.9688 4.07854 13.8814 3.80186 12.9764 3.33334Z" fill="#717171"/>
</svg>
