<svg width="19" height="18" viewBox="0 0 19 18" fill="none" xmlns="http://www.w3.org/2000/svg">
<path fill-rule="evenodd" clip-rule="evenodd" d="M12.3148 5.78373C13.9071 5.77152 15.1941 4.48149 15.1941 2.89191C15.1941 1.29475 13.8948 0 12.292 0C10.6893 0 9.38999 1.29475 9.38999 2.89191C9.38999 4.48181 10.6775 5.77205 12.2702 5.78374C12.0427 5.78463 11.8182 5.79853 11.5975 5.82473C11.2792 5.86253 11.0559 6.14305 11.0559 6.46253C11.0559 6.91508 11.4952 7.24052 11.948 7.20552C12.062 7.19671 12.1772 7.19222 12.2935 7.19222C14.1511 7.19222 15.7403 8.33763 16.3886 9.95831C16.4308 10.0637 16.3507 10.1752 16.2369 10.1752H11.2433C10.853 10.1752 10.5366 10.4905 10.5366 10.8794C10.5366 11.2684 10.853 11.5837 11.2433 11.5837H17.2824C17.7416 11.5837 18.1201 11.2106 18.0552 10.7576C17.6538 7.95245 15.2383 5.79418 12.3148 5.78373ZM13.4881 2.89191C13.4881 3.55018 12.9526 4.08382 12.292 4.08382C11.6315 4.08382 11.0959 3.55018 11.0959 2.89191C11.0959 2.23364 11.6315 1.7 12.292 1.7C12.9526 1.7 13.4881 2.23364 13.4881 2.89191Z" fill="#898989"/>
<path fill-rule="evenodd" clip-rule="evenodd" d="M10.5268 7.50977C10.5268 9.43737 8.95867 11 7.02431 11C5.08995 11 3.52185 9.43737 3.52185 7.50977C3.52185 5.58216 5.08995 4.01953 7.02431 4.01953C8.95867 4.01953 10.5268 5.58216 10.5268 7.50977ZM8.82082 7.50977C8.82082 8.49848 8.01649 9.3 7.02431 9.3C6.03213 9.3 5.2278 8.49848 5.2278 7.50977C5.2278 6.52105 6.03213 5.71953 7.02431 5.71953C8.01649 5.71953 8.82082 6.52105 8.82082 7.50977Z" fill="#898989"/>
<path fill-rule="evenodd" clip-rule="evenodd" d="M13.9789 17.003C14.0571 17.5497 13.6003 18 13.0461 18H1.00405C0.449831 18 -0.00698194 17.5497 0.0712604 17.003C0.556914 13.6092 3.48447 11 7.02431 11C10.5641 11 13.4932 13.6092 13.9789 17.003ZM2.0827 16.0383C2.03183 16.1655 2.12842 16.3 2.2658 16.3H11.7844C11.9217 16.3 12.0183 16.1655 11.9674 16.0383C11.185 14.0823 9.26703 12.7 7.02508 12.7C4.78312 12.7 2.86517 14.0823 2.0827 16.0383Z" fill="#898989"/>
</svg>
