<svg width="16" height="18" viewBox="0 0 16 18" fill="none" xmlns="http://www.w3.org/2000/svg">
<path d="M8 9C8.55228 9 9 8.55229 9 8L9 1C9 0.447715 8.55228 0 8 0C7.44772 0 7 0.447715 7 1L7 8C7 8.55228 7.44771 9 8 9Z" fill="#898989"/>
<path d="M8 16C4.68629 16 2 13.3137 2 10C2 7.64971 3.35135 5.61504 5.31944 4.6306C5.71599 4.43225 6 4.04497 6 3.60158C6 2.91797 5.35141 2.41776 4.72773 2.69767C1.94094 3.94839 0 6.74753 0 10C0 14.4183 3.58172 18 8 18C12.4183 18 16 14.4183 16 10C16 6.74753 14.0591 3.94839 11.2723 2.69767C10.6486 2.41776 10 2.91797 10 3.60158C10 4.04497 10.284 4.43225 10.6806 4.6306C12.6487 5.61505 14 7.64971 14 10C14 13.3137 11.3137 16 8 16Z" fill="#898989"/>
</svg>
