<svg width="18" height="18" viewBox="0 0 18 18" fill="none" xmlns="http://www.w3.org/2000/svg">
<path d="M5.7207 4.94638L5.87744 4.82519C6.0558 4.68728 6.25053 4.5572 6.46131 4.43478L6.4633 4.43363C6.68234 4.30976 6.91772 4.20074 7.16911 4.1063L7.17048 4.10578C7.4299 4.01049 7.70538 3.93706 7.99655 3.88509C8.29657 3.82795 8.61738 3.7998 8.95845 3.7998C9.4096 3.7998 9.83029 3.85407 10.2193 3.9644C10.6121 4.07425 10.956 4.23112 11.2476 4.4377C11.5403 4.64505 11.773 4.899 11.9425 5.19929C12.1152 5.50513 12.1998 5.8469 12.1998 6.21975C12.1998 6.58934 12.1322 6.9194 11.989 7.20326C11.8583 7.47287 11.6884 7.71181 11.4796 7.91896C11.2816 8.11627 11.0632 8.28951 10.8248 8.43854L10.1961 8.82826C10.0052 8.94655 9.84364 9.06311 9.71007 9.17759C9.6006 9.27573 9.55043 9.37169 9.53656 9.46561L9.3634 10.682H7.99832L7.88334 9.36748C7.85691 9.1175 7.91464 8.88853 8.06357 8.69451C8.19354 8.52087 8.3605 8.36397 8.56089 8.22253C8.75445 8.08146 8.96681 7.94582 9.19765 7.81546C9.41416 7.6888 9.61419 7.54946 9.79798 7.39756L9.80011 7.3958C9.98296 7.24887 10.1337 7.0845 10.2538 6.90281C10.3617 6.73522 10.4196 6.53087 10.4196 6.28123C10.4196 6.11885 10.3812 5.9766 10.3067 5.84977C10.2286 5.71696 10.1227 5.60399 9.98603 5.51051L9.98287 5.50835C9.84539 5.41039 9.67787 5.33303 9.47682 5.27902L9.47558 5.27869C9.27982 5.22476 9.06646 5.19707 8.83448 5.19707C8.51131 5.19707 8.24144 5.22999 8.02153 5.29187C7.79282 5.35784 7.6038 5.42897 7.45226 5.50412C7.29214 5.58353 7.1653 5.65436 7.06971 5.71657C6.96144 5.79083 6.83782 5.85281 6.71052 5.85281C6.5141 5.85281 6.34539 5.77406 6.22807 5.61553L5.7207 4.94638Z" fill="#951447"/>
<path d="M7.50872 12.7182C7.5751 12.592 7.66193 12.4815 7.76863 12.3878L7.77313 12.3838C7.88642 12.2902 8.01742 12.2179 8.16354 12.1654C8.31331 12.1116 8.47131 12.0853 8.63614 12.0853C8.80096 12.0853 8.95896 12.1116 9.10873 12.1654C9.25486 12.2179 9.38579 12.2903 9.49909 12.3839C9.6126 12.4777 9.70406 12.5894 9.77182 12.7182C9.84203 12.8516 9.87746 12.9952 9.87746 13.146C9.87746 13.3001 9.84262 13.446 9.77182 13.5806L9.77009 13.5839C9.70209 13.7076 9.61096 13.8156 9.49909 13.9081C9.38494 14.0024 9.25291 14.0728 9.10569 14.1208C8.95682 14.1739 8.79985 14.1998 8.63614 14.1998C8.47243 14.1998 8.31545 14.1739 8.16659 14.1208C8.01936 14.0728 7.88733 14.0024 7.77319 13.9081L7.76857 13.9043C7.66344 13.8119 7.57706 13.7049 7.51048 13.5839L7.50463 13.5732C7.44161 13.4401 7.41134 13.2967 7.41134 13.146C7.41134 12.9986 7.44243 12.8578 7.50496 12.7257L7.50872 12.7182Z" fill="#951447"/>
<path fill-rule="evenodd" clip-rule="evenodd" d="M18 9C18 13.9706 13.9706 18 9 18C4.02944 18 0 13.9706 0 9C0 4.02944 4.02944 0 9 0C13.9706 0 18 4.02944 18 9ZM16.3 9C16.3 13.0317 13.0317 16.3 9 16.3C4.96832 16.3 1.7 13.0317 1.7 9C1.7 4.96832 4.96832 1.7 9 1.7C13.0317 1.7 16.3 4.96832 16.3 9Z" fill="#951447"/>
</svg>
