<svg width="18" height="18" viewBox="0 0 18 18" fill="none" xmlns="http://www.w3.org/2000/svg">
<path fill-rule="evenodd" clip-rule="evenodd" d="M17.3864 6.39671L16.2063 6.00937L16.7648 4.9104C16.9424 4.56368 16.877 4.14209 16.6027 3.86548L14.1345 1.38831C13.8579 1.114 13.4363 1.04858 13.0896 1.22616L11.9906 1.79366L11.6033 0.622632C11.4777 0.235888 11.1086 -0.0187875 10.7025 0.00108575H7.25246C6.84633 -0.0187875 6.47724 0.235888 6.35167 0.622632L6.00937 1.79366L4.9104 1.22616C4.56368 1.04858 4.14209 1.114 3.86548 1.38831L1.38831 3.86548C1.114 4.14209 1.04858 4.56368 1.22616 4.9104L1.79366 6.00937L0.622632 6.39671C0.235888 6.52228 -0.0187875 6.89137 0.00108575 7.2975V10.7926C-0.0187875 11.1987 0.235888 11.5678 0.622632 11.6934L1.79366 12.0807L1.23517 13.1797C1.05759 13.5264 1.12301 13.948 1.39731 14.2246L3.86548 16.6117C4.14209 16.886 4.56368 16.9514 4.9104 16.7738L6.00937 16.2063L6.39671 17.3774C6.52228 17.7641 6.89137 18.0188 7.2975 17.9989H10.7926C11.1987 18.0188 11.5678 17.7641 11.6934 17.3774L12.0807 16.2063L13.1797 16.7648C13.5264 16.9424 13.948 16.877 14.2246 16.6027L16.7018 14.1255C16.9761 13.8489 17.0415 13.4273 16.8639 13.0806L16.2063 11.9906L17.3774 11.6033C17.7641 11.4777 18.0188 11.1086 17.9989 10.7025V7.25246C17.9999 6.8652 17.7533 6.52063 17.3864 6.39671ZM4.49607 9.00015C4.49607 6.51268 6.51256 4.49618 9.00003 4.49618C10.1946 4.49618 11.3402 4.97071 12.1848 5.81536C13.0295 6.66002 13.504 7.80562 13.504 9.00015C13.504 11.4876 11.4875 13.5041 9.00003 13.5041C6.51256 13.5041 4.49607 11.4876 4.49607 9.00015ZM6.29771 8.9998C6.29771 10.4923 7.50761 11.7022 9.00009 11.7022C9.7168 11.7022 10.4042 11.4175 10.911 10.9107C11.4178 10.4039 11.7025 9.71651 11.7025 8.9998C11.7025 7.50732 10.4926 6.29742 9.00009 6.29742C7.50761 6.29742 6.29771 7.50732 6.29771 8.9998ZM15.657 10.2793L16.2065 10.0991V7.90121L15.657 7.72105C15.1569 7.55959 14.7522 7.18781 14.549 6.70315C14.3494 6.21655 14.3725 5.66703 14.6121 5.19883L14.8733 4.67637L13.3239 3.12701L12.8015 3.38824C12.3332 3.62434 11.7853 3.64469 11.3008 3.44398C10.8163 3.24326 10.4433 2.8414 10.2792 2.34332L10.0991 1.79384H7.90115L7.72099 2.34332C7.55689 2.8414 7.18391 3.24326 6.69942 3.44398C6.21493 3.64469 5.66704 3.62434 5.19877 3.38824L4.67631 3.12701L3.12695 4.67637L3.38818 5.19883C3.62777 5.66703 3.65081 6.21655 3.45124 6.70315C3.24805 7.18781 2.84337 7.55959 2.34326 7.72105L1.79378 7.90121V10.0991L2.34326 10.2793C2.84337 10.4408 3.24805 10.8125 3.45124 11.2972C3.65081 11.7838 3.62777 12.3333 3.38818 12.8015L3.12695 13.324L4.67631 14.8733L5.19877 14.6121C5.66704 14.376 6.21493 14.3557 6.69942 14.5564C7.18391 14.7571 7.55689 15.1589 7.72099 15.657L7.90115 16.2065H10.0991L10.2792 15.657C10.4433 15.1589 10.8163 14.7571 11.3008 14.5564C11.7853 14.3557 12.3332 14.376 12.8015 14.6121L13.3239 14.8733L14.8733 13.324L14.6121 12.8015C14.3725 12.3333 14.3494 11.7838 14.549 11.2972C14.7522 10.8125 15.1569 10.4408 15.657 10.2793Z" fill="#898989"/>
</svg>
