<svg width="17" height="18" viewBox="0 0 17 18" fill="none" xmlns="http://www.w3.org/2000/svg">
<path d="M4.0918 4.90265C4.0918 4.45079 4.45811 4.08447 4.90998 4.08447C5.36185 4.08447 5.72816 4.45079 5.72816 4.90265C5.72816 5.35452 5.36185 5.72084 4.90998 5.72084C4.45811 5.72084 4.0918 5.35452 4.0918 4.90265Z" fill="#951447"/>
<path d="M7.3631 4.08447C6.91123 4.08447 6.54492 4.45079 6.54492 4.90265C6.54492 5.35452 6.91123 5.72084 7.3631 5.72084H11.454C11.9059 5.72084 12.2722 5.35452 12.2722 4.90265C12.2722 4.45079 11.9059 4.08447 11.454 4.08447H7.3631Z" fill="#951447"/>
<path d="M6.54492 8.99299C6.54492 8.54112 6.91123 8.1748 7.3631 8.1748H11.454C11.9059 8.1748 12.2722 8.54112 12.2722 8.99299C12.2722 9.44486 11.9059 9.81117 11.454 9.81117H7.3631C6.91123 9.81117 6.54492 9.44486 6.54492 8.99299Z" fill="#951447"/>
<path d="M4.90998 8.1748C4.45811 8.1748 4.0918 8.54112 4.0918 8.99299C4.0918 9.44486 4.45811 9.81117 4.90998 9.81117C5.36185 9.81117 5.72816 9.44486 5.72816 8.99299C5.72816 8.54112 5.36185 8.1748 4.90998 8.1748Z" fill="#951447"/>
<path d="M4.11133 13.16C4.11133 12.7081 4.47764 12.3418 4.92951 12.3418C5.38138 12.3418 5.74769 12.7081 5.74769 13.16C5.74769 13.6118 5.38138 13.9782 4.92951 13.9782C4.47764 13.9782 4.11133 13.6118 4.11133 13.16Z" fill="#951447"/>
<path d="M7.38263 12.3418C6.93077 12.3418 6.56445 12.7081 6.56445 13.16C6.56445 13.6118 6.93077 13.9782 7.38264 13.9782H11.4735C11.9254 13.9782 12.2917 13.6118 12.2917 13.16C12.2917 12.7081 11.9254 12.3418 11.4735 12.3418H7.38263Z" fill="#951447"/>
<path fill-rule="evenodd" clip-rule="evenodd" d="M13.315 0C14.8062 0 16.015 1.20883 16.015 2.7L16.015 6.45651C16.015 6.46703 16.0149 6.4775 16.0145 6.48793V15.2927C16.0145 16.7839 14.8057 17.9927 13.3145 17.9927H8.12311L8.09981 17.993H2.70001C1.20884 17.993 7.25687e-06 16.7842 7.25687e-06 15.293L0 2.7C0 1.97772 0.283615 1.32167 0.745555 0.837161C0.769245 0.812313 0.793405 0.787915 0.81802 0.763984C1.30432 0.291169 1.96816 0 2.7 0H13.315ZM14.2147 6.45651L14.2148 6.47059V15.2923C14.2148 15.7894 13.8119 16.1923 13.3148 16.1923H7.44512C7.43728 16.1923 7.42947 16.1924 7.42167 16.1926H2.69968C2.20263 16.1926 1.79968 15.7897 1.79968 15.2926L1.79968 2.7004C1.79968 2.20334 2.20262 1.8004 2.69968 1.8004H13.3147C13.8118 1.8004 14.2147 2.20334 14.2147 2.7004L14.2147 6.45651Z" fill="#951447"/>
</svg>
