<svg width="18" height="14" viewBox="0 0 18 14" fill="none" xmlns="http://www.w3.org/2000/svg">
<path d="M5.5 7C5.5 7.55229 5.05228 8 4.5 8C3.94772 8 3.5 7.55229 3.5 7C3.5 6.44771 3.94772 6 4.5 6C5.05228 6 5.5 6.44771 5.5 7Z" fill="#951447"/>
<path d="M8.5 7C8.5 7.55229 8.05229 8 7.5 8C6.94772 8 6.5 7.55229 6.5 7C6.5 6.44771 6.94772 6 7.5 6C8.05229 6 8.5 6.44771 8.5 7Z" fill="#951447"/>
<path d="M11.5 7C11.5 7.55229 11.0523 8 10.5 8C9.94771 8 9.5 7.55229 9.5 7C9.5 6.44771 9.94771 6 10.5 6C11.0523 6 11.5 6.44771 11.5 7Z" fill="#951447"/>
<path d="M14.5 7C14.5 7.55229 14.0523 8 13.5 8C12.9477 8 12.5 7.55229 12.5 7C12.5 6.44771 12.9477 6 13.5 6C14.0523 6 14.5 6.44771 14.5 7Z" fill="#951447"/>
<path fill-rule="evenodd" clip-rule="evenodd" d="M0 2C0 0.895431 0.895431 0 2 0H16C17.1046 0 18 0.895431 18 2V12C18 13.1046 17.1046 14 16 14H2C0.89543 14 0 13.1046 0 12V2ZM15.5 2C15.7761 2 16 2.22386 16 2.5V11.5C16 11.7761 15.7761 12 15.5 12H2.5C2.22386 12 2 11.7761 2 11.5L2 2.5C2 2.22386 2.22386 2 2.5 2H15.5Z" fill="#951447"/>
</svg>
