<svg width="18" height="18" viewBox="0 0 18 18" fill="none" xmlns="http://www.w3.org/2000/svg">
<path fill-rule="evenodd" clip-rule="evenodd" d="M17.0923 13.5H16.239V7.2C16.239 3.22355 12.9878 0 8.97731 0C4.96677 0 1.71558 3.22355 1.71558 7.2V13.5H0.907716C0.406398 13.5 0 13.9029 0 14.4C0 14.8971 0.406398 15.3 0.907716 15.3H6.25416C6.25416 16.7912 7.47335 18 8.97731 18C10.4813 18 11.7005 16.7912 11.7005 15.3H17.0923C17.5936 15.3 18 14.8971 18 14.4C18 13.9029 17.5936 13.5 17.0923 13.5ZM8.97827 16.2007C8.47695 16.2007 8.07056 15.7977 8.07056 15.3007H9.88599C9.88599 15.7977 9.47959 16.2007 8.97827 16.2007ZM3.52881 13.5007H10.7905H14.4214V7.20066C14.4214 4.21832 11.983 1.80066 8.9751 1.80066C5.9672 1.80066 3.52881 4.21832 3.52881 7.20066V13.5007Z" fill="#951447"/>
</svg>
