<svg width="18" height="18" viewBox="0 0 18 18" fill="none" xmlns="http://www.w3.org/2000/svg">
<path d="M3 1.77049C3.32025 1.53279 3.67149 1.30738 4.05372 1.09426C4.44628 0.881149 4.86983 0.692624 5.32438 0.52869C5.78926 0.364755 6.28512 0.237705 6.81198 0.147542C7.34917 0.0491807 7.92769 0 8.54752 0C9.36364 0 10.1178 0.0942623 10.8099 0.282787C11.5124 0.471312 12.1167 0.737705 12.6229 1.08197C13.1291 1.42623 13.5269 1.84426 13.8161 2.33607C14.1054 2.82787 14.25 3.38115 14.25 3.9959C14.25 4.61885 14.1312 5.15574 13.8936 5.60656C13.6663 6.05738 13.3719 6.45492 13.0103 6.79918C12.6591 7.13525 12.2717 7.43033 11.8481 7.68443C11.4349 7.93033 11.0424 8.16393 10.6705 8.38525C10.2986 8.60656 9.97831 8.82787 9.70971 9.04918C9.45145 9.27049 9.30165 9.51639 9.26033 9.78689L8.9814 11.668H7.09091L6.90496 9.62705C6.86364 9.2582 6.95145 8.93853 7.16839 8.66803C7.38533 8.38934 7.66942 8.13115 8.02066 7.89344C8.3719 7.64754 8.7593 7.40984 9.18285 7.18033C9.60641 6.94262 9.99897 6.68033 10.3605 6.39344C10.7324 6.10656 11.0424 5.78279 11.2903 5.42213C11.5382 5.05328 11.6622 4.61475 11.6622 4.10656C11.6622 3.7541 11.5744 3.43443 11.3988 3.14754C11.2231 2.86066 10.9855 2.61885 10.686 2.42213C10.3864 2.21721 10.03 2.06148 9.61674 1.95492C9.21384 1.84836 8.77996 1.79508 8.31508 1.79508C7.68492 1.79508 7.14256 1.85656 6.68802 1.97951C6.2438 2.10246 5.86674 2.23771 5.55682 2.38525C5.2469 2.53279 4.9938 2.66803 4.79752 2.79099C4.61157 2.91394 4.45661 2.97541 4.33264 2.97541C4.07438 2.97541 3.87293 2.88115 3.72831 2.69262L3 1.77049ZM6.02169 16.4631C6.02169 16.25 6.06818 16.0492 6.16116 15.8607C6.26446 15.6721 6.39876 15.5082 6.56405 15.3689C6.73967 15.2295 6.94628 15.1189 7.18388 15.0369C7.42149 14.9549 7.67459 14.9139 7.94318 14.9139C8.21178 14.9139 8.46488 14.9549 8.70248 15.0369C8.94008 15.1189 9.14669 15.2295 9.32231 15.3689C9.49793 15.5082 9.6374 15.6721 9.7407 15.8607C9.84401 16.0492 9.89566 16.25 9.89566 16.4631C9.89566 16.6844 9.84401 16.8893 9.7407 17.0779C9.6374 17.2582 9.49793 17.418 9.32231 17.5574C9.14669 17.6967 8.94008 17.8033 8.70248 17.877C8.46488 17.959 8.21178 18 7.94318 18C7.67459 18 7.42149 17.959 7.18388 17.877C6.94628 17.8033 6.73967 17.6967 6.56405 17.5574C6.39876 17.418 6.26446 17.2582 6.16116 17.0779C6.06818 16.8893 6.02169 16.6844 6.02169 16.4631Z" fill="#717171"/>
</svg>
