<svg width="18" height="18" viewBox="0 0 18 18" fill="none" xmlns="http://www.w3.org/2000/svg">
<path d="M4.64824 8.10522C4.86301 7.67568 5.08545 7.26148 5.31557 6.86262C5.54568 6.46376 5.7988 6.0649 6.07493 5.66604L4.78631 5.41292L2.85338 7.34585L4.64824 8.10522ZM15.7396 1.77717C14.6657 1.80785 13.5192 2.12233 12.2999 2.72062C11.0806 3.31891 9.97209 4.11663 8.97433 5.11378C8.33002 5.75809 7.75474 6.44842 7.2485 7.18478C6.74226 7.92113 6.36641 8.61147 6.12095 9.25578L8.74422 11.856C9.38853 11.6106 10.0789 11.2347 10.8152 10.7285C11.5516 10.2222 12.2419 9.64697 12.8862 9.00266C13.8834 8.00551 14.6811 6.90097 15.2794 5.68905C15.8777 4.47714 16.1922 3.33425 16.2228 2.2604C16.2228 2.19904 16.2112 2.13767 16.1879 2.07631C16.1645 2.01495 16.1302 1.96125 16.0848 1.91523C16.0387 1.86921 15.9851 1.83485 15.9237 1.81214C15.8623 1.78944 15.801 1.77778 15.7396 1.77717ZM10.6772 7.29983C10.3243 6.947 10.1479 6.51377 10.1479 6.00016C10.1479 5.48656 10.3243 5.05303 10.6772 4.69958C11.03 4.34674 11.4672 4.17032 11.9888 4.17032C12.5104 4.17032 12.9476 4.34674 13.3004 4.69958C13.6533 5.05241 13.8297 5.48594 13.8297 6.00016C13.8297 6.51439 13.6533 6.94761 13.3004 7.29983C12.9476 7.65267 12.5104 7.82909 11.9888 7.82909C11.4672 7.82909 11.03 7.65267 10.6772 7.29983ZM9.89478 13.3287L10.6541 15.1466L12.5871 13.2137L12.334 11.9251C11.9351 12.2012 11.5362 12.4506 11.1374 12.6734C10.7385 12.8961 10.3243 13.1146 9.89478 13.3287ZM17.9717 1.04081C18.0944 2.72829 17.8183 4.37374 17.1433 5.97715C16.4683 7.58057 15.4021 9.11065 13.9447 10.5674L14.405 12.8455C14.4663 13.1523 14.451 13.4515 14.3589 13.7429C14.2669 14.0344 14.1135 14.2875 13.8987 14.5023L10.9993 17.4017C10.7692 17.6318 10.4931 17.7202 10.1709 17.6668C9.84876 17.6134 9.62631 17.433 9.50359 17.1256L8.09991 13.835L4.16501 9.90009L0.874422 8.49641C0.567607 8.37368 0.383519 8.15124 0.322156 7.82909C0.260793 7.50693 0.345167 7.2308 0.575278 7.00069L3.47468 4.10129C3.68945 3.88652 3.94625 3.73311 4.24509 3.64107C4.54393 3.54902 4.84706 3.53368 5.15449 3.59504L7.43259 4.05527C8.88996 2.5979 10.4204 1.53171 12.0238 0.856721C13.6272 0.181729 15.2723 -0.0944046 16.9592 0.0283214C17.0819 0.0436621 17.2046 0.0783321 17.3274 0.132332C17.4501 0.186331 17.5575 0.259046 17.6495 0.350477C17.7416 0.442521 17.8146 0.549907 17.8686 0.672633C17.9226 0.795359 17.957 0.918084 17.9717 1.04081ZM1.72583 12.3623C2.26276 11.8254 2.91873 11.5532 3.69374 11.5458C4.46876 11.5385 5.12442 11.803 5.66073 12.3393C6.19766 12.8762 6.46244 13.5322 6.45508 14.3072C6.44771 15.0822 6.17526 15.7379 5.63772 16.2742C5.2542 16.6577 4.61388 16.9875 3.71675 17.2636C2.81963 17.5398 1.58071 17.7852 0 18C0.21477 16.4199 0.460222 15.181 0.736355 14.2832C1.01249 13.3855 1.34231 12.7452 1.72583 12.3623ZM3.03747 13.6509C2.88406 13.8043 2.73065 14.0844 2.57724 14.4913C2.42384 14.8981 2.31645 15.3083 2.25509 15.7219C2.66929 15.6605 3.07981 15.5568 3.48664 15.4108C3.89348 15.2647 4.17329 15.1153 4.32609 14.9625C4.51018 14.7784 4.60989 14.556 4.62523 14.2952C4.64057 14.0344 4.5562 13.812 4.37211 13.6279C4.18802 13.4438 3.96558 13.3554 3.70479 13.3628C3.444 13.3702 3.22156 13.4662 3.03747 13.6509Z" fill="#717171"/>
</svg>
