<svg width="146" height="40" viewBox="0 0 146 40" fill="none" xmlns="http://www.w3.org/2000/svg">
<g filter="url(#filter0_i_732_31057)">
<path d="M-2 0H126C137.046 0 146 8.95431 146 20V20C146 31.0457 137.046 40 126 40H-2V0Z" fill="url(#paint0_linear_732_31057)"/>
</g>
<g filter="url(#filter1_d_732_31057)">
<path d="M37 27.7513L38.5407 17.8446C38.6691 16.9603 38.8745 16.1934 39.1569 15.544C39.4394 14.8946 39.8053 14.3558 40.2547 13.9275C40.7169 13.4991 41.2882 13.1813 41.9687 12.9741C42.662 12.7668 43.4901 12.6632 44.453 12.6632C44.928 12.6632 45.4159 12.6908 45.9166 12.7461C46.4302 12.8014 46.9373 12.8912 47.4381 13.0155L47.4766 13.2642C47.4381 13.5268 47.406 13.8653 47.3803 14.2798C47.3674 14.6943 47.361 15.1157 47.361 15.544C47.361 15.9585 47.361 16.304 47.361 16.5803V27.7513H45.1463V15.8342C45.1463 15.5302 45.1463 15.247 45.1463 14.9845C45.1591 14.7219 45.1912 14.4732 45.2426 14.2383L45.5893 14.9016C45.4223 14.8325 45.2169 14.7841 44.973 14.7565C44.7419 14.7288 44.4915 14.715 44.2219 14.715C43.4387 14.715 42.816 14.8325 42.3538 15.0674C41.8916 15.3022 41.5386 15.6477 41.2946 16.1036C41.0635 16.5596 40.8902 17.1468 40.7746 17.8653L39.2532 27.7513H37ZM39.0414 23.3782V21.3472H46.1092V23.3782H39.0414Z" fill="white"/>
<path d="M50.1117 25.2435H50.2657C50.7279 25.4646 51.2608 25.6511 51.8642 25.8031C52.4676 25.9413 53.0646 26.0104 53.6552 26.0104C53.8606 26.0104 54.0982 26.0035 54.3678 25.9896C54.6502 25.962 54.9327 25.9067 55.2151 25.8238C55.4976 25.7271 55.7287 25.5751 55.9085 25.3679C56.101 25.1468 56.1973 24.8497 56.1973 24.4767C56.1973 24.0207 56.024 23.7029 55.6774 23.5233C55.3435 23.3299 54.8557 23.1779 54.2137 23.0674L53.3086 22.9016C52.2429 22.7081 51.4405 22.3765 50.9013 21.9067C50.362 21.4231 50.0924 20.7323 50.0924 19.8342C50.0924 19.1986 50.2529 18.6114 50.5739 18.0725C50.8948 17.5337 51.402 17.1054 52.0953 16.7876C52.7886 16.456 53.713 16.2902 54.8685 16.2902C55.3821 16.2902 55.8764 16.3316 56.3514 16.4145C56.8264 16.4974 57.2373 16.601 57.5839 16.7254V18.715H57.4299C56.9805 18.5354 56.5504 18.4041 56.1396 18.3212C55.7287 18.2383 55.2793 18.1969 54.7915 18.1969C53.9698 18.1969 53.3278 18.3143 52.8656 18.5492C52.4034 18.7841 52.1723 19.1848 52.1723 19.7513C52.1723 20.1796 52.3392 20.4905 52.673 20.6839C53.0197 20.8636 53.5012 21.0086 54.1174 21.1192L55.0226 21.285C55.626 21.3817 56.1717 21.5544 56.6595 21.8031C57.1474 22.0518 57.539 22.3903 57.8343 22.8187C58.1296 23.247 58.2772 23.7858 58.2772 24.4352C58.2772 25.582 57.8856 26.4525 57.1025 27.0466C56.3321 27.6269 55.151 27.9171 53.5589 27.9171C52.917 27.9171 52.3007 27.8618 51.7101 27.7513C51.1195 27.6408 50.5867 27.5026 50.1117 27.3368V25.2435Z" fill="white"/>
<path d="M62.8558 27.7513H60.6988V15.544C60.6988 15.2677 60.6924 14.9085 60.6796 14.4663C60.6796 14.0242 60.6667 13.5959 60.6411 13.1813C60.6282 12.753 60.5961 12.4145 60.5448 12.1658L60.5833 12H62.8558V27.7513ZM62.5476 21.8446L67.1697 16.456H69.5577V16.7047C69.4293 16.8152 69.2817 16.9603 69.1148 17.1399C68.9479 17.3195 68.7745 17.513 68.5948 17.7202C68.415 17.9136 68.2353 18.1071 68.0555 18.3005L64.3579 22.4456L64.3772 21.0155L68.0941 25.6788C68.3508 25.9965 68.6269 26.342 68.9222 26.715C69.2303 27.0743 69.4678 27.3368 69.6347 27.5026V27.7513H67.1311L62.5476 21.8446Z" fill="white"/>
<path d="M77.5985 27.7513V25.7409H81.8932C82.4324 25.7409 82.8946 25.6028 83.2798 25.3264C83.6649 25.0501 83.8575 24.5527 83.8575 23.8342C83.8575 23.171 83.6714 22.7081 83.299 22.4456C82.9267 22.1693 82.4581 22.0311 81.8932 22.0311H77.5985V20.0622H81.1806C81.7327 20.0622 82.1885 19.924 82.548 19.6477C82.9074 19.3575 83.1771 18.9845 83.3568 18.5285C83.5366 18.0587 83.6264 17.5613 83.6264 17.0363C83.6264 16.2211 83.421 15.6615 83.0102 15.3575C82.5993 15.0397 82.0408 14.8808 81.3347 14.8808H77.5985V12.829H81.3924C82.8689 12.829 83.9795 13.1675 84.7242 13.8446C85.4688 14.5216 85.8411 15.544 85.8411 16.9119C85.8411 17.4784 85.7513 18.038 85.5715 18.5907C85.4046 19.1295 85.1414 19.6269 84.7819 20.0829C84.4224 20.525 83.9795 20.8774 83.4531 21.1399L83.3375 20.6425C84.2234 20.7945 84.8975 21.1606 85.3597 21.7409C85.8347 22.3212 86.0722 23.0466 86.0722 23.9171C86.0722 24.5941 85.931 25.2228 85.6486 25.8031C85.3789 26.3834 84.9424 26.8532 84.339 27.2124C83.7356 27.5717 82.9524 27.7513 81.9895 27.7513H77.5985ZM76.3275 27.7513V12.829H78.5615V27.7513H76.3275Z" fill="white"/>
<path d="M93.6465 28C92.9789 28 92.3434 27.924 91.7399 27.772C91.1493 27.6339 90.6294 27.3782 90.18 27.0052C89.7306 26.6321 89.3776 26.1278 89.1208 25.4922C88.864 24.8428 88.7356 24.0276 88.7356 23.0466V20C88.7356 19.7237 88.7292 19.3713 88.7164 18.943C88.7035 18.5009 88.6843 18.0656 88.6586 17.6373C88.6457 17.209 88.6136 16.8705 88.5623 16.6218L88.6008 16.456H90.8926V22.8808C90.8926 23.7375 91.0081 24.3938 91.2392 24.8497C91.4703 25.3057 91.8105 25.6235 92.2599 25.8031C92.7093 25.9689 93.2421 26.0518 93.8584 26.0518C94.2564 26.0518 94.6544 26.0104 95.0524 25.9275C95.4632 25.8446 95.8227 25.7617 96.1309 25.6788L95.7649 26.2383C95.7136 26.0449 95.6751 25.7962 95.6494 25.4922C95.6366 25.1883 95.6301 24.8636 95.6301 24.5181V20C95.6301 19.7237 95.6237 19.3713 95.6109 18.943C95.598 18.5009 95.5788 18.0656 95.5531 17.6373C95.5403 17.209 95.5082 16.8705 95.4568 16.6218L95.4953 16.456H97.7871V23.6269C97.7871 23.9033 97.7871 24.2625 97.7871 24.7047C97.7999 25.133 97.8128 25.5613 97.8256 25.9896C97.8513 26.418 97.8898 26.7565 97.9411 27.0052L97.9026 27.171C97.5431 27.323 97.1066 27.4611 96.5931 27.5855C96.0795 27.7098 95.5595 27.8066 95.0331 27.8756C94.5067 27.9585 94.0445 28 93.6465 28Z" fill="white"/>
<path d="M100.476 22.0725C100.476 20.8014 100.714 19.7306 101.189 18.8601C101.664 17.9896 102.331 17.3333 103.191 16.8912C104.052 16.4352 105.06 16.2073 106.215 16.2073C107.152 16.2073 107.942 16.3523 108.584 16.6425V18.6114H108.43C108.173 18.4732 107.865 18.3627 107.505 18.2798C107.146 18.1969 106.748 18.1554 106.311 18.1554C105.194 18.1554 104.308 18.487 103.654 19.1503C102.999 19.7997 102.671 20.7737 102.671 22.0725C102.671 23.3575 102.999 24.3316 103.654 24.9948C104.308 25.658 105.194 25.9896 106.311 25.9896C106.748 25.9896 107.146 25.9413 107.505 25.8446C107.865 25.7478 108.173 25.6373 108.43 25.513H108.584V27.5026C107.942 27.7927 107.152 27.9378 106.215 27.9378C105.034 27.9378 104.013 27.7098 103.153 27.2539C102.293 26.7979 101.632 26.1347 101.169 25.2642C100.707 24.3938 100.476 23.3299 100.476 22.0725Z" fill="white"/>
<path d="M113.221 27.7513H111.064V15.544C111.064 15.2677 111.058 14.9085 111.045 14.4663C111.045 14.0242 111.032 13.5959 111.006 13.1813C110.993 12.753 110.961 12.4145 110.91 12.1658L110.949 12H113.221V27.7513ZM112.913 21.8446L117.535 16.456H119.923V16.7047C119.795 16.8152 119.647 16.9603 119.48 17.1399C119.313 17.3195 119.14 17.513 118.96 17.7202C118.78 17.9136 118.601 18.1071 118.421 18.3005L114.723 22.4456L114.742 21.0155L118.459 25.6788C118.716 25.9965 118.992 26.342 119.287 26.715C119.596 27.0743 119.833 27.3368 120 27.5026V27.7513H117.496L112.913 21.8446Z" fill="white"/>
</g>
<defs>
<filter id="filter0_i_732_31057" x="-2" y="0" width="148" height="40" filterUnits="userSpaceOnUse" color-interpolation-filters="sRGB">
<feFlood flood-opacity="0" result="BackgroundImageFix"/>
<feBlend mode="normal" in="SourceGraphic" in2="BackgroundImageFix" result="shape"/>
<feColorMatrix in="SourceAlpha" type="matrix" values="0 0 0 0 0 0 0 0 0 0 0 0 0 0 0 0 0 0 127 0" result="hardAlpha"/>
<feOffset/>
<feGaussianBlur stdDeviation="2"/>
<feComposite in2="hardAlpha" operator="arithmetic" k2="-1" k3="1"/>
<feColorMatrix type="matrix" values="0 0 0 0 0 0 0 0 0 0 0 0 0 0 0 0 0 0 0.25 0"/>
<feBlend mode="normal" in2="shape" result="effect1_innerShadow_732_31057"/>
</filter>
<filter id="filter1_d_732_31057" x="37" y="12" width="84" height="17" filterUnits="userSpaceOnUse" color-interpolation-filters="sRGB">
<feFlood flood-opacity="0" result="BackgroundImageFix"/>
<feColorMatrix in="SourceAlpha" type="matrix" values="0 0 0 0 0 0 0 0 0 0 0 0 0 0 0 0 0 0 127 0" result="hardAlpha"/>
<feOffset dx="1" dy="1"/>
<feComposite in2="hardAlpha" operator="out"/>
<feColorMatrix type="matrix" values="0 0 0 0 0 0 0 0 0 0 0 0 0 0 0 0 0 0 0.35 0"/>
<feBlend mode="normal" in2="BackgroundImageFix" result="effect1_dropShadow_732_31057"/>
<feBlend mode="normal" in="SourceGraphic" in2="effect1_dropShadow_732_31057" result="shape"/>
</filter>
<linearGradient id="paint0_linear_732_31057" x1="146" y1="40" x2="-2" y2="40" gradientUnits="userSpaceOnUse">
<stop offset="0.273058" stop-color="#630061"/>
<stop offset="1" stop-color="#E2301D"/>
</linearGradient>
</defs>
</svg>
