<svg width="232" height="38" viewBox="0 0 232 38" fill="none" xmlns="http://www.w3.org/2000/svg">
<path d="M30.2611 4.58644C27.584 3.22756 26.1201 1.01039 27.2522 0.0292226C27.4325 -0.126932 27.7473 0.358546 27.9525 1.10794C28.1577 1.85771 28.7147 2.65134 29.1906 2.87215C30.4148 3.43967 30.6619 3.02376 29.787 1.86716C29.3749 1.32308 29.1422 0.78731 29.2696 0.676905C30.0245 0.0227947 35.2199 5.53056 35.2199 6.98548C35.2199 7.38173 35.5639 7.92883 35.9839 8.20144C37.1871 8.98108 39.5857 11.804 39.5857 12.4395C39.5857 12.7564 39.2268 13.1821 38.7881 13.3852C38.1825 13.6661 37.8158 13.5784 37.2644 13.0207C36.3969 12.1431 35.9402 12.1012 35.2378 12.8347C34.8138 13.277 34.9815 13.7224 36.1026 15.1339C37.0308 16.3026 37.6525 17.691 37.9734 19.3115C38.3917 21.427 38.5755 21.7385 39.4058 21.7385C40.9658 21.7385 44.8959 22.9715 45.1478 23.5398C45.436 24.1905 41.0011 28.1662 39.9869 28.1662C39.591 28.1662 38.7675 28.5065 38.1568 28.9224C37.5464 29.3383 36.5008 29.6786 35.8333 29.6786H34.62L35.8747 28.5443C36.565 27.9204 37.4054 27.41 37.7429 27.41C38.0804 27.41 38.8784 27.0625 39.5167 26.6375C40.155 26.2125 41.1683 25.5376 41.7686 25.1376L42.8601 24.4105L40.4589 24.4049C38.3454 24.4003 37.8525 24.5546 36.3458 25.6938C34.1127 27.3812 31.3491 27.9526 27.0889 27.607C23.3264 27.3015 22.0005 27.6315 19.2395 29.561C17.5967 30.7093 17.1972 30.8129 14.4135 30.8129C11.0239 30.8129 7.54167 32.0024 6.01668 33.6819C5.56088 34.1832 4.89553 34.5939 4.53796 34.5939C4.1804 34.5939 3.78485 34.9341 3.65912 35.3501C3.53382 35.766 3.08414 36.1063 2.66021 36.1063C2.23673 36.1063 1.52946 36.3887 1.08894 36.7343C0.647994 37.0795 0.182596 37.2712 0.0542401 37.16C-0.35484 36.8057 1.66218 34.2158 2.34718 34.2158C2.70911 34.2158 3.37971 33.8036 3.83725 33.2996C4.29523 32.7956 5.2317 32.2765 5.91932 32.1457C6.60651 32.0148 7.63554 31.4708 8.20572 30.9369C8.77633 30.4026 10.0865 29.6487 11.1177 29.2612C13.0549 28.5333 14.2494 26.9256 14.41 24.8295C14.4934 23.7439 13.2705 23.3072 9.71587 23.1533C8.47248 23.0997 7.49234 22.8618 7.38712 22.5885C7.18105 22.0531 8.27077 22.0262 12.2991 22.4671C14.3437 22.6906 15.1465 22.6255 15.9568 22.171C16.5275 21.8504 18.1166 21.4738 19.488 21.3336C22.5764 21.0182 27.4329 19.0657 28.1943 17.8335C28.6449 17.1042 28.6519 16.4856 28.2293 14.7221C27.739 12.677 27.8333 10.2281 28.4567 8.82152C28.6383 8.41129 28.2384 7.98063 27.1675 7.43353C26.3135 6.9972 25.615 6.35708 25.615 6.01112C25.615 5.36533 26.4598 5.3778 30.7449 6.0875C32.751 6.41947 32.5318 5.73889 30.2611 4.58644Z" fill="#951447"/>
<path fill-rule="evenodd" clip-rule="evenodd" d="M61.1006 6.53126V36.5156H70.601C73.2663 36.5156 75.0718 36.444 76.0176 36.3007C76.9633 36.143 78.0022 35.8421 79.1342 35.3979C81.0687 34.6671 82.7667 33.5852 84.2283 32.1523C85.6613 30.7623 86.7646 29.1503 87.5384 27.3161C88.3122 25.4819 88.6991 23.5618 88.6991 21.5557C88.6991 18.7471 87.997 16.1535 86.5927 13.7748C85.1884 11.3961 83.2969 9.59776 80.9182 8.37975C78.5396 7.14742 75.3083 6.53126 71.2244 6.53126H61.1006ZM65.3995 10.3572H70.773C72.8364 10.3572 74.3339 10.436 75.2653 10.5937C76.1967 10.7513 77.1783 11.0737 78.21 11.5609C79.256 12.0481 80.1803 12.6714 80.9827 13.4309C83.1608 15.4657 84.2498 18.0951 84.2498 21.3192C84.2498 24.6007 83.1895 27.3161 81.0687 29.4655C80.4095 30.1247 79.6787 30.6835 78.8763 31.1421C78.0882 31.5863 77.0994 31.9588 75.9101 32.2598C74.7208 32.5463 73.0514 32.6896 70.902 32.6896H65.3995V10.3572Z" fill="#951447"/>
<path fill-rule="evenodd" clip-rule="evenodd" d="M105.959 33.0765V24.6723C105.959 23.0101 105.909 21.8852 105.808 21.2977C105.722 20.6959 105.508 20.1012 105.164 19.5137C104.82 18.9119 104.433 18.4319 104.003 18.0736C102.713 16.9559 101.001 16.3971 98.8659 16.3971C96.0143 16.3971 93.8291 17.2927 92.3101 19.0838V23.3612C94.3306 21.1544 96.4084 20.0511 98.5434 20.0511C100.922 20.0511 102.111 21.2404 102.111 23.6191V24.6723L97.1033 26.3919C95.4555 26.965 94.1801 27.746 93.2774 28.7347C92.3889 29.7091 91.9447 30.8196 91.9447 32.0663C91.9447 33.4419 92.4033 34.5883 93.3204 35.5054C94.2374 36.4081 95.3838 36.8595 96.7594 36.8595C98.6366 36.8595 100.406 36.2147 102.068 34.925C102.369 36.2433 103.358 36.9025 105.035 36.9025C105.622 36.9025 106.181 36.795 106.711 36.5801C107.256 36.3795 107.972 35.9926 108.861 35.4194V33.0335C107.858 33.7357 107.12 34.0868 106.647 34.0868C106.188 34.0868 105.959 33.75 105.959 33.0765ZM102.111 26.7787V32.6466C101.051 33.664 99.8976 34.1727 98.6509 34.1727C97.8198 34.1727 97.1392 33.9148 96.609 33.3989C96.0931 32.8831 95.8352 32.2168 95.8352 31.4C95.8352 30.5975 96.1074 29.9312 96.652 29.401C97.2108 28.8565 98.1565 28.3192 99.4892 27.789L102.111 26.7787Z" fill="#951447"/>
<path d="M109.548 19.9221L116.899 12.7001V16.784H123.154V20.309H116.899V30.0029C116.899 32.2669 117.838 33.3989 119.715 33.3989C121.119 33.3989 122.603 32.9261 124.164 31.9803V35.6343C122.66 36.4798 121.019 36.9025 119.242 36.9025C117.451 36.9025 115.961 36.3795 114.772 35.3334C114.399 35.0182 114.091 34.6671 113.847 34.2802C113.604 33.879 113.396 33.3631 113.224 32.7326C113.066 32.0878 112.988 30.8698 112.988 29.0786V20.309H109.548V19.9221Z" fill="#951447"/>
<path fill-rule="evenodd" clip-rule="evenodd" d="M139.404 33.0765V24.6723C139.404 23.0101 139.354 21.8852 139.253 21.2977C139.167 20.6959 138.952 20.1012 138.609 19.5137C138.265 18.9119 137.878 18.4319 137.448 18.0736C136.158 16.9559 134.446 16.3971 132.311 16.3971C129.459 16.3971 127.274 17.2927 125.755 19.0838V23.3612C127.775 21.1544 129.853 20.0511 131.988 20.0511C134.367 20.0511 135.556 21.2404 135.556 23.6191V24.6723L130.548 26.3919C128.9 26.965 127.625 27.746 126.722 28.7347C125.834 29.7091 125.39 30.8196 125.39 32.0663C125.39 33.4419 125.848 34.5883 126.765 35.5054C127.682 36.4081 128.829 36.8595 130.204 36.8595C132.081 36.8595 133.851 36.2147 135.513 34.925C135.814 36.2433 136.803 36.9025 138.48 36.9025C139.067 36.9025 139.626 36.795 140.156 36.5801C140.701 36.3795 141.417 35.9926 142.306 35.4194V33.0335C141.302 33.7357 140.565 34.0868 140.092 34.0868C139.633 34.0868 139.404 33.75 139.404 33.0765ZM135.556 26.7787V32.6466C134.496 33.664 133.342 34.1727 132.096 34.1727C131.265 34.1727 130.584 33.9148 130.054 33.3989C129.538 32.8831 129.28 32.2168 129.28 31.4C129.28 30.5975 129.552 29.9312 130.097 29.401C130.656 28.8565 131.601 28.3192 132.934 27.789L135.556 26.7787Z" fill="#951447"/>
<path fill-rule="evenodd" clip-rule="evenodd" d="M156.47 36.5586H146.303V6.53126H154.17C156.649 6.53126 158.584 6.868 159.974 7.54148C161.364 8.20064 162.424 9.11772 163.155 10.2927C163.886 11.4534 164.251 12.8004 164.251 14.3336C164.251 17.2855 162.725 19.3991 159.673 20.6744C161.865 21.09 163.606 21.9927 164.896 23.3827C166.2 24.7726 166.852 26.4348 166.852 28.3693C166.852 29.9026 166.458 31.271 165.67 32.4747C164.882 33.6784 163.721 34.6599 162.188 35.4194C160.669 36.1789 158.763 36.5586 156.47 36.5586ZM154.299 10.3572H150.602V19.3848H153.461C155.754 19.3848 157.38 18.9477 158.34 18.0736C159.315 17.1995 159.802 16.0675 159.802 14.6775C159.802 11.7973 157.968 10.3572 154.299 10.3572ZM154.622 23.2107H150.602V32.7326H154.837C157.187 32.7326 158.777 32.5535 159.608 32.1953C160.454 31.8227 161.127 31.2495 161.629 30.4757C162.145 29.702 162.403 28.8708 162.403 27.9824C162.403 27.0653 162.13 26.2271 161.586 25.4676C161.056 24.7081 160.296 24.1421 159.307 23.7696C158.319 23.397 156.757 23.2107 154.622 23.2107Z" fill="#951447"/>
<path d="M183.166 34.0438V36.5586H187.078V16.784H183.166V30.9271C181.862 32.747 180.279 33.6569 178.416 33.6569C176.925 33.6569 175.879 33.2485 175.278 32.4317C174.69 31.6006 174.396 30.1462 174.396 28.0684V16.784H170.484V28.1114C170.484 30.5904 170.749 32.3672 171.28 33.4419C171.824 34.5023 172.619 35.3477 173.666 35.9782C174.726 36.5944 175.879 36.9025 177.126 36.9025C178.186 36.9025 179.247 36.6517 180.307 36.1502C181.382 35.6487 182.335 34.9465 183.166 34.0438Z" fill="#951447"/>
<path d="M207.411 31.9373V35.8063C205.448 36.5371 203.528 36.9025 201.651 36.9025C198.556 36.9025 196.084 35.9854 194.235 34.1512C192.401 32.3171 191.484 29.8596 191.484 26.7787C191.484 23.6693 192.38 21.1616 194.171 19.2558C195.962 17.35 198.319 16.3971 201.243 16.3971C202.26 16.3971 203.17 16.4974 203.972 16.698C204.789 16.8843 205.792 17.2425 206.981 17.7727V21.9426C205.004 20.6816 203.17 20.0511 201.479 20.0511C199.716 20.0511 198.269 20.6744 197.137 21.9211C196.005 23.1534 195.439 24.7296 195.439 26.6498C195.439 28.6702 196.048 30.2751 197.266 31.4645C198.498 32.6538 200.153 33.2485 202.231 33.2485C203.736 33.2485 205.463 32.8114 207.411 31.9373Z" fill="#951447"/>
<path d="M229.4 16.784H224.736L215.966 26.4778L225.875 36.5586H231.119L220.953 26.4778L229.4 16.784Z" fill="#951447"/>
<path d="M215.794 6.53126H211.882V36.5586H215.794V6.53126Z" fill="#951447"/>
</svg>
