<svg width="22" height="22" viewBox="0 0 22 22" fill="none" xmlns="http://www.w3.org/2000/svg">
<path fill-rule="evenodd" clip-rule="evenodd" d="M11.8113 0.304354C11.3632 -0.101452 10.6368 -0.101451 10.1887 0.304354L0.338334 9.2261C-0.38442 9.88071 0.127464 11 1.14959 11H2V21C2 21.5523 2.44772 22 3 22H8C8.55228 22 9 21.5523 9 21V15H13V21C13 21.5523 13.4477 22 14 22H19C19.5523 22 20 21.5523 20 21V11H20.8504C21.8725 11 22.3844 9.88071 21.6617 9.22609L11.8113 0.304354ZM18 20V9L17.685 8.71392L11 2.65913L4.31497 8.71392L4 9V20H7V14C7 13.4477 7.44772 13 8 13H14C14.5523 13 15 13.4477 15 14V20H18Z" fill="#717171"/>
</svg>
