<svg width="40" height="48" viewBox="0 0 40 48" fill="none" xmlns="http://www.w3.org/2000/svg">
<circle cx="20" cy="28" r="19.5" fill="#F37500" fill-opacity="0.46" stroke="#60015E"/>
<path d="M7.60614 0C2.97363 4.23825 5.58558 11.5484 2.97363 13.2404C3.20362 13.9468 17.0354 23.0968 17.0354 23.0968C17.0354 23.0968 18.826 22.1276 18.711 21.7005C18.596 21.2734 15.9019 19.0228 15.0477 15.6059C13.9738 10.5167 19.5352 8.12582 19.2989 6.92451C19.2749 6.80256 19.1216 6.77993 19.0131 6.84068C11.6025 10.9923 13.7896 15.9541 12.6493 16.3288C10.5959 17.0034 7.47472 14.8667 7.01475 14.2589C3.84428 5.91385 9.29815 4.82964 8.50964 4.23825C7.78684 3.49902 6.2591 5.73313 6.14411 5.73313C5.79913 3.28548 8.31251 0 7.60614 0Z" fill="#68051D"/>
<path d="M16.066 22.5864C13.4212 19.1202 1.98778 16.804 1.26498 12.9929C1.08197 12.1461 1.15198 11.3233 1.38775 10.5452C1.52733 10.0846 1.46209 7.75254 2.67771 6.66834C2.91294 6.24767 2.34916 8.19608 2.76832 8.01538C4.34362 6.00702 6.53122 4.67003 6.68596 4.63135C7.01454 4.74635 2.00418 12.1551 3.87689 13.4035C5.86914 14.4073 9.25523 12.2713 10.2422 10.8017C10.3233 10.681 10.5185 10.6934 10.5517 10.8349C11.0589 12.9948 7.94218 14.1794 7.78661 15.1284C7.43551 16.5786 16.4576 19.7355 16.8545 22.5864C16.8847 22.8035 16.066 22.6685 16.066 22.5864Z" fill="#3B0211"/>
<path d="M28.9944 10.4146C27.5495 6.86625 23.984 5.79848 24.4276 4.87855C25.0847 4.43501 27.1709 6.01202 28.2716 7.06339C29.3722 8.11475 31.1299 10.2996 31.1299 10.2996C31.1573 11.4002 31.1693 13.654 30.9985 13.8643C30.8276 14.0746 28.8027 15.2442 27.8116 15.8027C27.8116 15.8027 30.1114 13.1579 28.9944 10.4146Z" fill="#3C070D"/>
<path d="M24.0489 16.8038C24.2938 19.3994 23.4838 21.6565 23.3261 21.8142L25.0838 23.1776L25.3467 21.8142L27.975 17.3624L33.9381 13.387L37.1415 9.23084L36.7472 5.58397C36.5828 5.47932 36.0508 5.61963 35.8451 6.0173C35.8043 6.09622 35.8035 6.18767 35.8168 6.27552C36.0611 7.88737 35.5195 10.5549 33.3304 10.9064C32.0983 11.1043 30.8498 7.21029 30.1927 6.1425C29.5356 5.07472 25.6095 -0.174715 24.6567 0.195813C24.0653 0.425796 28.5993 4.92689 30.1927 10.545C30.7184 13.387 28.2214 15.1611 27.0222 15.309C25.823 15.4568 25.5645 13.4198 25.3795 12.1713C25.1946 10.9229 23.1619 7.66723 22.3569 8.1795C21.552 8.69177 23.8846 15.0625 24.0489 16.8038Z" fill="#68051D"/>
<path d="M27.7457 18.7103C25.5115 20.813 25.9814 22.5412 25.758 22.9486L24.8545 22.7022C24.8545 22.7022 24.296 19.5974 26.6286 17.5604C28.0742 16.4598 33.7252 13.0593 33.9223 11.548C34.2526 10.5447 33.2179 9.3351 32.7314 8.83794C32.619 8.72307 32.6533 8.54197 32.8125 8.52045C33.2474 8.46167 34.1037 8.53825 35.2401 9.57421C35.3482 9.67275 35.5185 9.67039 35.6127 9.5585C38.0703 6.64006 34.3631 2.47349 34.9573 2.18443C35.5651 1.88874 38.8998 5.91342 37.2899 9.75742C36.5343 13.125 29.2921 17.5604 27.7457 18.7103Z" fill="#3B0211"/>
<circle cx="13.5" cy="28" r="12" fill="url(#paint0_radial_732_31060)"/>
<path d="M26.7446 22.5882C26.0054 23.196 25.1348 23.8695 25.1348 23.8695L27.6974 27.4014C27.6974 27.4014 29.8823 27.3028 30.7693 27.0071C31.6564 26.7114 34.0219 24.9209 34.7776 23.9845C35.5333 23.0481 37.4553 19.2534 36.8146 18.5799C36.1739 17.9064 27.4839 21.9804 26.7446 22.5882Z" fill="url(#paint1_linear_732_31060)"/>
<path d="M30.7697 20.93C28.9463 22.0791 28.782 23.8048 28.3713 24.1169C27.9607 24.429 27.4679 24.5933 26.745 24.7576C26.0222 24.9219 26.8272 26.7946 27.8457 27.0082C28.8642 27.2217 30.359 26.8439 30.359 26.8439C31.509 26.4168 33.0695 25.2833 34.0059 24.3633C34.9423 23.4434 36.9628 19.468 36.5029 19.008C36.0429 18.5481 32.5932 19.781 30.7697 20.93Z" fill="url(#paint2_linear_732_31060)"/>
<path d="M29.8651 24.8061C29.7993 25.2497 28.7316 25.8903 28.8465 26.186C28.9615 26.4817 30.3086 25.5618 30.5878 25.4632C30.8671 25.3646 31.2778 25.4961 31.7706 25.3646C32.2634 25.2332 33.2326 24.149 33.0848 23.8862C32.937 23.6234 32.5755 24.0473 32.247 24.149C31.557 24.3626 30.9985 24.3133 30.9657 23.8862C31.0478 22.9334 36.0088 20.0258 35.5489 19.7137C35.4503 19.5165 31.4585 21.4057 30.5221 22.3256C29.635 23.4262 29.9308 24.3626 29.8651 24.8061Z" fill="#3C070D"/>
<path d="M20.3249 47.9991C20.2631 47.9996 20.2012 47.9999 20.1393 47.9999C12.4427 47.9999 5.75447 43.6826 2.36426 37.3376C2.63193 37.2956 2.87218 37.2669 3.07127 37.2565C4.63186 37.1743 7.58878 36.5575 9.06724 35.7287C10.348 35.0107 11.5055 32.4178 11.9523 31.4168C12.0213 31.2623 12.0733 31.1457 12.1063 31.0798C12.3527 30.587 13.5848 28.2214 13.5848 28.2214C13.5848 28.2214 15.7039 23.9832 15.4575 23.786C15.2111 23.5889 15.3425 22.7347 15.8846 22.554C17.3407 23.0179 18.0084 22.2385 18.403 21.7778C18.5115 21.6512 18.5993 21.5487 18.6772 21.5027C19.63 21.185 19.8436 21.8148 19.8436 22.1105C19.8764 22.2747 20.7306 22.4554 21.322 22.4554C21.6588 22.4554 22.0808 22.285 22.4667 22.1291C22.7585 22.0112 23.0296 21.9017 23.2276 21.8805C23.8199 22.3141 24.8141 22.5026 25.4865 22.6301C25.8584 22.7006 26.1319 22.7525 26.1845 22.8168C26.5952 23.2275 26.5952 23.7368 26.4638 24.0653C26.4913 24.1962 26.7097 24.3358 26.9757 24.5059C27.3439 24.7413 27.8034 25.0351 27.9751 25.4452C28.2005 25.9838 28.1777 26.2168 28.1541 26.4572C28.1468 26.5322 28.1394 26.6078 28.1394 26.6937C28.6268 27.4913 28.1049 28.3818 27.8991 28.5534C27.8786 28.5705 27.8644 28.6137 27.8757 28.638C28.0069 28.9176 27.8847 29.5009 27.7807 29.9973C27.7099 30.3356 27.6475 30.6336 27.6794 30.7677C27.6719 30.8645 27.9211 31.1774 28.2034 31.5319C28.5438 31.9594 28.9323 32.4472 28.9771 32.6897C29.6507 33.9381 29.2564 35.4166 28.8622 35.8108C28.6232 35.9738 28.3124 36.0002 28.1292 35.9995C28.0572 35.9992 27.9972 36.071 28.0098 36.142C28.042 36.3219 28.0717 36.6449 27.9751 37.01C27.6958 37.7164 26.4309 37.8889 26.0859 37.8314C26.0576 37.8267 26.0166 37.8213 25.9641 37.8143C25.6522 37.7731 24.9348 37.6784 24.049 37.355C23.9623 38.189 23.7186 38.8944 23.5013 39.5231C23.3891 39.848 23.2839 40.1523 23.2112 40.4433C23.0375 41.138 22.0165 44.016 21.5528 45.3233C21.4463 45.6236 21.3691 45.8411 21.3384 45.9301C21.2503 46.1857 20.7603 47.1552 20.3249 47.9991Z" fill="url(#paint3_linear_732_31060)"/>
<path d="M11.0568 20.5353C12.6123 21.7992 14.7114 23.5746 15.8245 23.8592C15.8551 23.867 15.8869 23.8764 15.9038 23.9031C16.0956 24.2056 14.9681 25.7317 14.95 26.2192C14.8598 27.1475 15.2249 27.2561 15.41 27.4188C15.4608 27.4633 15.4921 27.5005 15.5086 27.5827C15.5086 27.6319 15.4559 27.7065 15.4264 27.7634C14.7313 29.1053 13.1324 34.5163 12.8802 34.5478C12.4859 35.5006 10.6461 35.8456 10.8268 33.6443C11.0568 32.7737 13.603 28.634 13.6194 28.2562C13.6359 27.8783 13.258 27.4512 12.8802 27.5827C12.5024 27.7141 9.46627 27.6648 8.21484 26.2685C5.09368 22.7859 4.97866 18.8926 5.40577 18.5148C5.89859 18.0788 10.3833 20.0261 11.0568 20.5353Z" fill="url(#paint4_linear_732_31060)"/>
<path d="M12.8972 24.3143C13.0286 24.7085 14.5563 24.61 14.6385 25.7106C14.6385 26.3512 13.4228 27.3697 11.8294 27.2876C10.2359 27.2055 8.79034 26.4334 7.82112 25.1028C6.67122 23.69 5.19275 19.3861 5.702 18.8604C5.86628 18.4661 9.44744 19.7967 10.4823 20.5031C11.0573 20.9631 12.3222 21.6695 12.8972 24.3143Z" fill="url(#paint5_linear_732_31060)"/>
<path d="M9.2037 25.4679C8.94086 25.2708 7.69239 24.5644 7.92238 23.9237C8.25092 23.3652 10.1072 24.548 10.3536 23.9237C10.5343 22.6917 5.81966 20.3426 6.3125 19.7676C6.55891 19.3898 10.2057 21.0847 11.3228 22.3467C12.2099 23.3488 11.3721 25.1585 11.0271 25.3693C10.7314 25.6157 9.95936 25.8621 9.2037 25.4679Z" fill="#3C070D"/>
<path d="M27.8743 28.6036C27.6069 28.6786 27.3591 28.787 27.2371 28.8955C27.0352 29.075 27.2547 29.7143 27.3985 30.133C27.4652 30.3273 27.5156 30.4741 27.5 30.5053C27.4855 30.5343 27.4001 30.498 27.2563 30.4369C26.9107 30.2901 26.2277 29.9999 25.3809 30.1275C23.9681 30.5053 23.3274 31.8688 22.9989 32.7395C22.8296 33.1881 22.704 33.7151 22.5949 34.1724C22.4924 34.6027 22.4045 34.9711 22.3089 35.1543C22.2836 35.2029 22.2615 35.246 22.2418 35.2846C22.108 35.5459 22.0823 35.5962 21.8818 35.6964C21.7773 35.7487 21.4926 35.7874 21.1717 35.831C20.7868 35.8834 20.3495 35.9428 20.1077 36.0413C19.9819 36.0926 19.8549 36.1557 19.7265 36.2194C19.402 36.3806 19.0691 36.5459 18.7278 36.5342C18.5791 36.529 18.3808 36.4791 18.1454 36.4198C17.6266 36.2892 16.9274 36.1131 16.1816 36.2713C13.7831 37.0708 14.3276 41.101 14.5059 41.7909C15.1302 44.2057 17.1836 44.8628 19.3192 44.8628C20.2681 44.8628 21.1943 44.5774 21.9306 44.2602C22.4299 42.8447 23.0774 40.9841 23.2124 40.4439C23.2852 40.1529 23.3904 39.8485 23.5026 39.5236C23.7198 38.895 23.9636 38.1895 24.0502 37.3555C24.9361 37.679 25.6535 37.7737 25.9654 37.8149C26.0178 37.8218 26.0588 37.8272 26.0872 37.8319C26.4322 37.8894 27.6696 37.6851 28.0101 37.0626C28.0681 36.9979 28.2241 36.62 28.1338 36.3053C28.1212 36.2344 28.1812 36.1625 28.2532 36.1628C28.5207 36.1191 28.691 36.0218 28.8634 35.8114C29.2577 35.4171 29.6519 33.9387 28.9784 32.6902C28.9335 32.4477 28.5451 31.9599 28.2047 31.5325C27.9224 31.178 27.6732 30.865 27.6807 30.7682C27.6487 30.6341 27.7111 30.3361 27.782 29.9978C27.886 29.5014 28.0081 28.9181 27.877 28.6385C27.8725 28.6289 27.872 28.6164 27.8743 28.6036Z" fill="#B78145"/>
<path d="M18.6738 28.2237C18.6368 28.2301 18.5934 28.2357 18.5433 28.2398C18.2695 28.2618 17.9255 28.2269 17.6657 28.1624C17.1645 28.0381 17.0689 27.6852 17.0751 27.5726C17.0906 27.5625 17.1229 27.5467 17.1846 27.5316C17.3328 27.4953 17.5568 27.4949 17.8027 27.556C17.9864 27.6016 18.2621 27.7722 18.49 28.0035C18.5682 28.0828 18.6298 28.1583 18.6738 28.2237ZM17.0626 27.5834C17.0623 27.5832 17.0636 27.5813 17.0674 27.5781C17.0649 27.582 17.063 27.5836 17.0626 27.5834ZM18.7463 28.362C18.7466 28.3631 18.7467 28.3636 18.7466 28.3636L18.7463 28.362ZM18.8257 28.1794C18.8257 28.1794 18.8254 28.1796 18.8248 28.1799L18.8257 28.1794Z" fill="url(#paint6_radial_732_31060)" stroke="black"/>
<path d="M17.0151 27.559C17.0151 27.7064 17.1346 27.8259 17.282 27.8259C17.4293 27.8259 17.5488 27.7064 17.5488 27.559C17.5488 27.4116 17.4293 27.2921 17.282 27.2921C17.1346 27.2921 17.0151 27.4116 17.0151 27.559Z" fill="white"/>
<path d="M19.944 29.7163C20.2093 30.2965 20.0278 30.9172 19.9374 31.1574C19.9198 31.2043 19.8583 31.2109 19.8266 31.1721C19.7495 31.0775 19.6153 30.9283 19.4676 30.8333C18.827 30.4884 17.6935 30.4227 17.2664 30.3077C16.8393 30.1927 16.4286 29.8313 16.3136 29.322C16.1429 28.5664 16.33 28.1885 16.2643 27.8271C16.1986 27.4658 15.87 26.2337 16.7242 25.6095C17.5785 25.0619 19.5333 25.6752 20.059 26.9072C20.2793 27.568 19.9273 28.2492 19.7687 28.5076C19.7405 28.5535 19.6729 28.544 19.653 28.494C19.5195 28.1592 19.0734 27.2282 18.137 26.9072C17.447 26.7101 16.675 26.7265 16.4779 27.3015C16.33 27.8271 16.5436 28.2487 17.135 28.6626C17.9235 29.0405 18.3834 28.8434 18.7941 28.8926C19.2048 28.9419 19.6811 29.1414 19.944 29.7163Z" fill="white"/>
<path d="M27.7062 28.2223C27.706 28.2224 27.7058 28.2204 27.7059 28.216C27.7063 28.22 27.7063 28.2222 27.7062 28.2223Z" fill="url(#paint7_radial_732_31060)" stroke="black"/>
<path d="M27.9241 25.339C27.782 25.376 27.6555 25.4129 27.5662 25.4464C27.1719 25.5942 26.7119 26.0542 26.6134 26.6784C26.5148 27.3027 26.7612 28.584 26.9255 28.584C26.9802 28.584 27.0276 28.4239 27.0949 28.1963C27.23 27.74 27.4453 27.0126 27.9604 26.7606C28.0227 26.7301 28.083 26.7062 28.1412 26.6881C28.1415 26.605 28.1488 26.5314 28.1559 26.4584C28.1795 26.2179 28.2023 25.985 27.9769 25.4464C27.9615 25.4097 27.9438 25.3739 27.9241 25.339Z" fill="white"/>
<path d="M29.0683 32.8759C28.9727 33.078 28.866 33.2328 28.7632 33.2328C28.7111 32.9113 28.2822 32.6496 27.8556 32.3893C27.5796 32.2209 27.3046 32.0531 27.1332 31.8701C27.0866 31.8203 26.9187 31.8325 26.877 31.8865C26.753 32.0472 26.5432 32.2241 26.3269 32.4064C26 32.6818 25.6585 32.9697 25.5763 33.2328C25.3249 33.2811 25.2328 33.1872 25.136 33.0883C25.0683 33.0192 24.9983 32.9477 24.8699 32.9207C24.5578 32.855 24.065 33.2328 23.9829 33.6599C23.9008 34.087 24.0814 34.317 24.3278 34.432C24.5294 34.5261 24.8737 34.4764 25.2036 34.4289C25.5191 34.3834 25.8214 34.3399 25.9729 34.4258C26.0179 34.4513 26.0191 34.51 25.9954 34.556C25.6902 35.1474 25.9457 35.4971 26.0686 35.6655C26.1124 35.7254 26.1393 35.7623 26.1184 35.779C26.0363 35.8447 25.8063 35.8447 25.5763 35.779C25.5384 35.7682 25.4583 35.7382 25.3488 35.6973C24.7936 35.4898 23.4854 35.0007 23.1286 35.3026C22.7976 35.5827 23.2462 36.2971 23.4647 36.6042C23.5003 36.6542 23.5782 36.6298 23.5841 36.5688C23.6054 36.3503 23.6633 35.9992 23.8186 35.9104C24.0485 35.779 25.4942 35.9104 25.4942 35.9104L26.332 35.9926C26.332 35.9926 27.6626 36.1733 28.1225 35.8447C28.5524 35.5377 28.9105 34.958 28.7946 34.4275C28.7789 34.3553 28.7756 34.2756 28.8217 34.2178C28.9327 34.0784 29.1199 34.0399 29.3386 34.0606C29.3245 33.6758 29.2449 33.268 29.0683 32.8759Z" fill="url(#paint8_linear_732_31060)"/>
<circle cx="27.9389" cy="27.5676" r="0.286512" fill="white"/>
<rect x="7.5" y="13" width="1" height="1" rx="0.5" fill="white" fill-opacity="0.3"/>
<rect x="2.5" y="14" width="1" height="1" rx="0.5" fill="white" fill-opacity="0.3"/>
<rect x="5.5" y="3" width="1" height="1" rx="0.5" fill="white" fill-opacity="0.5"/>
<rect x="14.5" y="10" width="1" height="1" rx="0.5" fill="white" fill-opacity="0.5"/>
<rect x="27.5" y="7" width="1" height="1" rx="0.5" fill="white" fill-opacity="0.5"/>
<rect x="28.5" y="5" width="1" height="1" rx="0.5" fill="white" fill-opacity="0.5"/>
<circle cx="35.5" cy="28" r="2" fill="url(#paint9_radial_732_31060)"/>
<circle cx="8" cy="13.5" r="1.5" fill="url(#paint10_radial_732_31060)"/>
<circle cx="20.5" cy="16" r="6" fill="url(#paint11_radial_732_31060)"/>
<defs>
<radialGradient id="paint0_radial_732_31060" cx="0" cy="0" r="1" gradientUnits="userSpaceOnUse" gradientTransform="translate(13.5 28) rotate(90) scale(12)">
<stop stop-color="white" stop-opacity="0.6"/>
<stop offset="1" stop-color="white" stop-opacity="0"/>
</radialGradient>
<linearGradient id="paint1_linear_732_31060" x1="28.0424" y1="25.6929" x2="37.4683" y2="24.7984" gradientUnits="userSpaceOnUse">
<stop stop-color="#3A0110"/>
<stop offset="1" stop-color="#5A091D"/>
</linearGradient>
<linearGradient id="paint2_linear_732_31060" x1="36.5686" y1="18.893" x2="27.3759" y2="24.2897" gradientUnits="userSpaceOnUse">
<stop stop-color="#C7C7C7"/>
<stop offset="1" stop-color="#A0A0A0" stop-opacity="0"/>
</linearGradient>
<linearGradient id="paint3_linear_732_31060" x1="23.7533" y1="21.4205" x2="10.3157" y2="45.1087" gradientUnits="userSpaceOnUse">
<stop stop-color="#A95B00"/>
<stop offset="1" stop-color="#34000D"/>
</linearGradient>
<linearGradient id="paint4_linear_732_31060" x1="5.22507" y1="18.6955" x2="12.4367" y2="34.7285" gradientUnits="userSpaceOnUse">
<stop stop-color="#3A0110"/>
<stop offset="1" stop-color="#5A091D"/>
</linearGradient>
<linearGradient id="paint5_linear_732_31060" x1="5.58702" y1="19.0082" x2="13.9978" y2="26.3348" gradientUnits="userSpaceOnUse">
<stop stop-color="#C7C7C7"/>
<stop offset="1" stop-color="#A0A0A0" stop-opacity="0"/>
</linearGradient>
<radialGradient id="paint6_radial_732_31060" cx="0" cy="0" r="1" gradientUnits="userSpaceOnUse" gradientTransform="translate(17.7095 27.8921) rotate(19.5024) scale(1.67301 1.97679)">
<stop stop-color="#78001E"/>
<stop offset="1" stop-color="#130005"/>
</radialGradient>
<radialGradient id="paint7_radial_732_31060" cx="0" cy="0" r="1" gradientUnits="userSpaceOnUse" gradientTransform="translate(27.6896 27.7184) rotate(13.9594) scale(0.694371 1.98992)">
<stop stop-color="#78001E"/>
<stop offset="1" stop-color="#130005"/>
</radialGradient>
<linearGradient id="paint8_linear_732_31060" x1="28.0278" y1="31.8395" x2="25.96" y2="36.5825" gradientUnits="userSpaceOnUse">
<stop stop-color="#78001E"/>
<stop offset="1" stop-color="#130005"/>
</linearGradient>
<radialGradient id="paint9_radial_732_31060" cx="0" cy="0" r="1" gradientUnits="userSpaceOnUse" gradientTransform="translate(35.5 28) rotate(90) scale(2)">
<stop stop-color="white" stop-opacity="0.6"/>
<stop offset="1" stop-color="white" stop-opacity="0"/>
</radialGradient>
<radialGradient id="paint10_radial_732_31060" cx="0" cy="0" r="1" gradientUnits="userSpaceOnUse" gradientTransform="translate(8 13.5) rotate(90) scale(1.5)">
<stop stop-color="white" stop-opacity="0.6"/>
<stop offset="1" stop-color="white" stop-opacity="0"/>
</radialGradient>
<radialGradient id="paint11_radial_732_31060" cx="0" cy="0" r="1" gradientUnits="userSpaceOnUse" gradientTransform="translate(20.5 16) rotate(90) scale(6)">
<stop stop-color="white" stop-opacity="0.6"/>
<stop offset="1" stop-color="white" stop-opacity="0"/>
</radialGradient>
</defs>
</svg>
