<svg width="18" height="18" viewBox="0 0 18 18" fill="none" xmlns="http://www.w3.org/2000/svg">
<path fill-rule="evenodd" clip-rule="evenodd" d="M2 0C0.895431 0 0 0.89543 0 2V16C0 17.1046 0.89543 18 2 18H16C17.1046 18 18 17.1046 18 16V2C18 0.895431 17.1046 0 16 0H2ZM8 2C8 1.44772 8.44771 1 9 1C9.55229 1 10 1.44772 10 2V16C10 16.5523 9.55229 17 9 17C8.44771 17 8 16.5523 8 16V2ZM7 9C7 10.6569 5.65685 12 4 12C2.34315 12 1 10.6569 1 9C1 7.34315 2.34315 6 4 6C5.65685 6 7 7.34315 7 9ZM17 9C17 10.6569 15.6569 12 14 12C12.3431 12 11 10.6569 11 9C11 7.34315 12.3431 6 14 6C15.6569 6 17 7.34315 17 9Z" fill="#717171"/>
</svg>
