<svg width="18" height="18" viewBox="0 0 18 18" fill="none" xmlns="http://www.w3.org/2000/svg">
<path d="M9.98818 9.45225V14.428L8.01182 15.09V9.45225L2.97991 2.5H15.0201L9.98818 9.45225Z" fill="#951447"/>
<path fill-rule="evenodd" clip-rule="evenodd" d="M2 0C0.895431 0 0 0.89543 0 2V16C0 17.1046 0.89543 18 2 18H16C17.1046 18 18 17.1046 18 16V2C18 0.895431 17.1046 0 16 0H2ZM6.51182 16.4991V9.93813L1.19213 2.58828C0.713702 1.92727 1.18362 1 1.99705 1H16.003C16.8164 1 17.2863 1.92727 16.8079 2.58828L11.4882 9.93813V15.1657C11.4882 15.3103 11.426 15.4465 11.3197 15.5407C11.2863 15.5703 11.2452 15.5889 11.2029 15.6031L7.34918 16.8938C7.3132 16.9059 7.27917 16.923 7.24522 16.94L7.22741 16.9489C6.90528 17.1088 6.51182 16.8755 6.51182 16.4991Z" fill="#951447"/>
</svg>
